<svg id="Assessment" xmlns="http://www.w3.org/2000/svg" xmlns:xlink="http://www.w3.org/1999/xlink" width="15.84" height="18.415" viewBox="0 0 15.84 18.415">
  <defs>
    <linearGradient id="linear-gradient" x1="-0.143" y1="1" x2="1.118" gradientUnits="objectBoundingBox">
      <stop offset="0" stop-color="#fa5435"/>
      <stop offset="0.489" stop-color="#b617a4"/>
      <stop offset="1" stop-color="#7717b0"/>
    </linearGradient>
  </defs>
  <path id="Path_11602" data-name="Path 11602" d="M584,1343.285c0-.174,0-.336,0-.5a1.1,1.1,0,0,1,1.119-1.122c.345,0,.689,0,1.034,0,.052,0,.09,0,.109-.065a1.736,1.736,0,0,1,1.125-1.143,2.847,2.847,0,0,1,2.429.131,1.629,1.629,0,0,1,.845,1,.094.094,0,0,0,.109.08c.327,0,.655,0,.982,0a1.1,1.1,0,0,1,1.143,1.139c0,.158,0,.315,0,.487h.13c.517,0,1.034,0,1.551,0a1.741,1.741,0,0,1,1.783,1.778c0,1.544,0,3.088,0,4.632q0,2.363,0,4.725c0,.8,0,1.6,0,2.4a1.741,1.741,0,0,1-1.363,1.724,1.9,1.9,0,0,1-.42.047q-2.967,0-5.935,0c-2.04,0-4.081,0-6.121,0a1.842,1.842,0,0,1-1.463-.593,1.693,1.693,0,0,1-.444-1.161c0-1.448,0-2.9,0-4.343q0-1.954,0-3.909c0-1.179,0-2.358,0-3.536a1.731,1.731,0,0,1,1.514-1.75,6.358,6.358,0,0,1,.836-.019c.31,0,.62,0,.931,0C583.922,1343.291,583.952,1343.288,584,1343.285Zm-.007.879h-1.578a.876.876,0,0,0-.925.929q0,3.8,0,7.59,0,2.073,0,4.147a.862.862,0,0,0,.888.89l.414,0h8.769l3.05,0a.834.834,0,0,0,.576-.219.883.883,0,0,0,.293-.691q0-3.278,0-6.556,0-2.585,0-5.17a.875.875,0,0,0-.915-.919h-1.551c-.039,0-.079,0-.131.006a2.534,2.534,0,0,1,0,.354,1.081,1.081,0,0,1-1.092.947c-.9,0-1.806,0-2.709,0q-1.991,0-3.981,0a1.08,1.08,0,0,1-1.088-.951C583.993,1344.409,584,1344.294,583.989,1344.164Zm4.454.434h3.278c.223,0,.3-.072.3-.3,0-.175-.023-.349-.031-.524a1.081,1.081,0,0,1,.012-.164c.006-.054.019-.109.02-.163,0-.214,0-.427,0-.641,0-.185-.079-.263-.266-.263q-.693,0-1.386,0a.443.443,0,0,1-.5-.47.842.842,0,0,0-.33-.64,1.367,1.367,0,0,0-.527-.252,1.988,1.988,0,0,0-1.411.124.868.868,0,0,0-.533.777.437.437,0,0,1-.482.46l-1.448,0c-.175,0-.256.078-.257.251q0,.755,0,1.51c0,.217.078.291.294.292Z" transform="translate(-580.607 -1340.187)" fill="url(#linear-gradient)"/>
  <path id="Path_11603" data-name="Path 11603" d="M738.046,1640.272q-1.3,0-2.6,0a.44.44,0,1,1,0-.877q1.727,0,3.453,0c.582,0,1.165,0,1.747,0a.437.437,0,1,1-.006.873c-.72,0-1.441,0-2.161,0h-.434Z" transform="translate(-727.544 -1624.921)" fill="url(#linear-gradient)"/>
  <path id="Path_11604" data-name="Path 11604" d="M738.07,1567.636h-2.543a1.053,1.053,0,0,1-.155-.008.425.425,0,0,1-.363-.415.421.421,0,0,1,.347-.437,2.158,2.158,0,0,1,.34-.015h4.952a.449.449,0,0,1,.46.3.416.416,0,0,1-.155.486.569.569,0,0,1-.288.089c-.865.007-1.73,0-2.595,0Z" transform="translate(-727.571 -1555.787)" fill="url(#linear-gradient)"/>
  <path id="Path_11605" data-name="Path 11605" d="M738.063,1495.03h-2.586a.446.446,0,1,1-.023-.89q1.112,0,2.224,0h2.886a1.024,1.024,0,0,1,.236.017.442.442,0,0,1,.326.465.433.433,0,0,1-.4.407c-.206.009-.414,0-.62,0h-2.037Z" transform="translate(-727.567 -1486.758)" fill="url(#linear-gradient)"/>
  <path id="Path_11606" data-name="Path 11606" d="M629.512,1547.473a.562.562,0,0,1,.067-.11q.667-.671,1.336-1.339a.424.424,0,0,1,.465-.112.416.416,0,0,1,.289.369.4.4,0,0,1-.122.349q-.879.882-1.762,1.761a.423.423,0,0,1-.607-.008c-.305-.293-.6-.594-.9-.9a.427.427,0,0,1,.013-.606.436.436,0,0,1,.615,0c.168.163.332.33.5.5C629.43,1547.4,629.456,1547.421,629.512,1547.473Z" transform="translate(-625.87 -1535.918)" fill="url(#linear-gradient)"/>
  <path id="Path_11607" data-name="Path 11607" d="M629.479,1623.175c.286-.29.537-.545.789-.8q.324-.326.65-.65a.437.437,0,1,1,.618.617q-.856.861-1.717,1.718a.434.434,0,0,1-.638.009q-.443-.435-.877-.877a.425.425,0,0,1-.086-.5.4.4,0,0,1,.431-.237.6.6,0,0,1,.279.137c.161.14.306.3.455.451A1.087,1.087,0,0,1,629.479,1623.175Z" transform="translate(-625.881 -1607.964)" fill="url(#linear-gradient)"/>
  <path id="Path_11608" data-name="Path 11608" d="M629.528,1471.735c.125-.129.244-.252.365-.374q.522-.524,1.045-1.046a.438.438,0,1,1,.619.616q-.853.858-1.711,1.711a.434.434,0,0,1-.659,0l-.855-.856a.416.416,0,0,1-.124-.406.431.431,0,0,1,.727-.224c.17.161.332.331.5.5C629.461,1471.673,629.489,1471.7,629.528,1471.735Z" transform="translate(-625.905 -1463.843)" fill="url(#linear-gradient)"/>
  <path id="Path_11739" data-name="Path 11739" d="M705.246,943.16h-.01a.679.679,0,0,0-.664.683.656.656,0,0,0,.671.664h0a.686.686,0,0,0,.687-.664.667.667,0,0,0-.2-.475A.694.694,0,0,0,705.246,943.16Z" transform="translate(-690.094 -943.16)" fill="url(#linear-gradient)"/>
</svg>
