<svg xmlns="http://www.w3.org/2000/svg" xmlns:xlink="http://www.w3.org/1999/xlink" width="20.173" height="18.937" viewBox="0 0 20.173 18.937">
  <defs>
    <linearGradient id="linear-gradient" x1="-0.143" y1="1" x2="1.118" gradientUnits="objectBoundingBox">
      <stop offset="0" stop-color="#fa5435"/>
      <stop offset="0.489" stop-color="#b617a4"/>
      <stop offset="1" stop-color="#7717b0"/>
    </linearGradient>
  </defs>
  <g id="Assignments" transform="translate(1879.32 -459.336)">
    <g id="Group_17237" data-name="Group 17237" transform="translate(-1870.765 478.257)">
      <path id="Path_11934" data-name="Path 11934" d="M-1567.425,1147.893a.409.409,0,0,1-.059,0l-.274,0h0c-.71-.006.275,0,.339,0h0Z" transform="translate(1568.016 -1147.89)" fill="url(#linear-gradient)"/>
    </g>
    <path id="Path_11935" data-name="Path 11935" d="M-1607.272,739.78a5.289,5.289,0,0,1,.478.434q3.018,3.468,6.021,6.95a1.249,1.249,0,0,1,.264.642c.069.616.091,1.237.127,1.856.033.562-.229.784-.779.67-.584-.121-1.175-.216-1.75-.371a1.455,1.455,0,0,1-.689-.4q-3.011-3.428-5.992-6.884a1.264,1.264,0,0,1,.138-1.961c.276-.242.549-.489.832-.722A1.32,1.32,0,0,1-1607.272,739.78Zm5.8,9.414c-.017-.313-.05-.575-.042-.837a1.225,1.225,0,0,0-.363-.885c-1.385-1.576-2.755-3.166-4.13-4.75-.133-.154-.27-.3-.423-.478l-1.2,1.043a.47.47,0,0,0,.041.088q2.353,2.717,4.71,5.431a.454.454,0,0,0,.223.139C-1602.277,749.032-1601.895,749.106-1601.469,749.194Zm-6.838-6.715,1.175-1.021c-.066-.091-.108-.159-.159-.217-.56-.637-.429-.643-1.058-.088-.738.65-.8.454-.025,1.305C-1608.368,742.464-1608.354,742.464-1608.307,742.479Z" transform="translate(-261.926 -272.645)" fill="url(#linear-gradient)"/>
    <path id="Path_11936" data-name="Path 11936" d="M-1870.17,477.214a.4.4,0,0,1,.4.4q0,.1,0,.2a.454.454,0,0,1-.394.446c-.042,0-4.281-.026-5.938.014a1.713,1.713,0,0,1-1.661-1.669q.011-1.645.01-3.289,0-2.141,0-4.281l-.133-.043-.244.337c-.067.093-.133.186-.2.279a.525.525,0,0,1-.737.143.561.561,0,0,1-.162-.753.98.98,0,0,1,.131-.158l8.837-9.033a1.392,1.392,0,0,1,2.082,0q4.42,4.516,8.841,9.029a.584.584,0,0,1-.091.951.554.554,0,0,1-.593-.068c-.2-.137-.419-.253-.652-.392l-.179-.181V471a.523.523,0,0,1-.5.527.515.515,0,0,1-.534-.515V468.3a.513.513,0,0,1,.029-.172q-3.525-3.749-7.055-7.493c-.235-.25-.384-.251-.616,0q-3.559,3.779-7.114,7.562a.323.323,0,0,0-.081.2q-.006,4.108,0,8.215a.655.655,0,0,0,.6.6h5.965" transform="translate(0 0)" fill="url(#linear-gradient)"/>
  </g>
</svg>
