<svg id="Attendance" xmlns="http://www.w3.org/2000/svg" xmlns:xlink="http://www.w3.org/1999/xlink" width="19.476" height="17.063" viewBox="0 0 19.476 17.063">
  <defs>
    <linearGradient id="linear-gradient" x1="-0.143" y1="1" x2="1.118" gradientUnits="objectBoundingBox">
      <stop offset="0" stop-color="#fa5435"/>
      <stop offset="0.489" stop-color="#b617a4"/>
      <stop offset="1" stop-color="#7717b0"/>
    </linearGradient>
  </defs>
  <path id="Path_11893" data-name="Path 11893" d="M1247.8,1606.476c0-.61,0-1.192,0-1.774q0-4.174,0-8.347a2.663,2.663,0,0,1,.3-1.375,2.352,2.352,0,0,1,2.1-1.282c1.838-.019,3.676-.008,5.514-.008q3.118,0,6.237,0a2.416,2.416,0,0,1,2.422,1.909,2.649,2.649,0,0,1,.059.527c.009.393,0,.786,0,1.179,0,.5-.157.653-.662.653h-3.215c0,.075-.009.142-.009.208q0,4.972,0,9.945a2.433,2.433,0,0,1-1.628,2.484,3.514,3.514,0,0,1-1.064.144c-1.369.016-2.738.007-4.107.006-2.117,0-4.234,0-6.351,0a2.417,2.417,0,0,1-2.38-1.915,2.148,2.148,0,0,1-.055-.433c-.007-.469-.006-.938,0-1.407a.485.485,0,0,1,.515-.511c.7,0,1.394,0,2.092,0Zm.989,0h7.274c.412,0,.587.176.589.592s0,.812,0,1.217a1.4,1.4,0,0,0,.79,1.312,1.452,1.452,0,0,0,2.112-1.366q0-6.028,0-12.056a2.484,2.484,0,0,1,.4-1.385.792.792,0,0,0,.047-.11h-9.716a1.459,1.459,0,0,0-1.494,1.526q0,4.792,0,9.584Zm6.876,1h-9.719v.716a1.448,1.448,0,0,0,1.548,1.56h8.657A3.274,3.274,0,0,1,1255.664,1607.48Zm7.776-10.519c0-.3.006-.593,0-.882a1.449,1.449,0,0,0-1.27-1.39,1.412,1.412,0,0,0-1.575,1.1,8.377,8.377,0,0,0-.066,1.176Z" transform="translate(-1244.955 -1593.687)" fill="url(#linear-gradient)"/>
  <path id="Path_11894" data-name="Path 11894" d="M1377.163,1739.293c.506-.439,1-.877,1.5-1.3a.483.483,0,0,1,.748.066.5.5,0,0,1-.165.723,6.856,6.856,0,0,0-1.606,1.6.51.51,0,0,1-.9-.013,3.541,3.541,0,0,0-.637-.639c-.264-.209-.359-.467-.2-.718a.5.5,0,0,1,.732-.122C1376.83,1739.027,1377.01,1739.177,1377.163,1739.293Z" transform="translate(-1370.848 -1732.368)" fill="url(#linear-gradient)"/>
  <path id="Path_11895" data-name="Path 11895" d="M1377.179,1821.406c.421-.382.841-.764,1.265-1.143a2.592,2.592,0,0,1,.26-.192.487.487,0,0,1,.706.089.512.512,0,0,1-.135.718q-.644.559-1.261,1.149a3.726,3.726,0,0,0-.376.477.511.511,0,0,1-.894-.015,3.869,3.869,0,0,0-.65-.651.519.519,0,0,1-.194-.706.492.492,0,0,1,.728-.133C1376.823,1821.126,1377,1821.276,1377.179,1821.406Z" transform="translate(-1370.849 -1811.355)" fill="url(#linear-gradient)"/>
  <path id="Path_11896" data-name="Path 11896" d="M1377.151,1657.4c.422-.383.842-.766,1.265-1.145a2.61,2.61,0,0,1,.29-.215.492.492,0,0,1,.6.779c-.13.11-.274.205-.408.312a6.647,6.647,0,0,0-1.264,1.334c-.287.4-.646.378-.934-.016a3.2,3.2,0,0,0-.614-.609c-.27-.211-.367-.465-.213-.715a.5.5,0,0,1,.745-.124C1376.806,1657.122,1376.981,1657.268,1377.151,1657.4Z" transform="translate(-1370.821 -1653.579)" fill="url(#linear-gradient)"/>
  <path id="Path_11897" data-name="Path 11897" d="M1500.876,1679.871h1.33a.5.5,0,0,1,.556.493.509.509,0,0,1-.555.5q-1.349,0-2.7,0a.5.5,0,0,1-.531-.419.49.49,0,0,1,.343-.545.832.832,0,0,1,.225-.022c.443,0,.886,0,1.33,0Z" transform="translate(-1489.311 -1676.593)" fill="url(#linear-gradient)"/>
  <path id="Path_11898" data-name="Path 11898" d="M1500.917,1843.848c.45,0,.9,0,1.349,0a.492.492,0,0,1,.536.49.5.5,0,0,1-.534.5q-1.358.006-2.717,0a.5.5,0,0,1-.536-.5.49.49,0,0,1,.534-.491C1500,1843.846,1500.461,1843.848,1500.917,1843.848Z" transform="translate(-1489.352 -1834.332)" fill="url(#linear-gradient)"/>
  <path id="Path_11899" data-name="Path 11899" d="M1500.913,1761.859h1.33a.5.5,0,0,1,.559.489.51.51,0,0,1-.551.5q-1.339,0-2.679,0a.5.5,0,0,1-.557-.492.5.5,0,0,1,.55-.5C1500.014,1761.858,1500.464,1761.86,1500.913,1761.859Z" transform="translate(-1489.352 -1755.463)" fill="url(#linear-gradient)"/>
  <path id="Path_12109" data-name="Path 12109" d="M705.246,943.16h-.01a.679.679,0,0,0-.664.683.656.656,0,0,0,.671.664h0a.686.686,0,0,0,.687-.664.667.667,0,0,0-.2-.475A.694.694,0,0,0,705.246,943.16Z" transform="translate(-687.87 -937.714)" fill="url(#linear-gradient)"/>
</svg>
