<svg xmlns="http://www.w3.org/2000/svg" xmlns:xlink="http://www.w3.org/1999/xlink" width="441.158" height="331.584" viewBox="0 0 441.158 331.584">
  <defs>
    <linearGradient id="linear-gradient" y1="1.082" x2="1.017" gradientUnits="objectBoundingBox">
      <stop offset="0" stop-color="#fa5435"/>
      <stop offset="0.509" stop-color="#b617a4"/>
      <stop offset="1" stop-color="#7717b0"/>
    </linearGradient>
  </defs>
  <g id="CalendarwithPsymbol" transform="translate(0 16.04)">
    <g id="Calendar1">
      <path id="Rectangle_6253" data-name="Rectangle 6253" d="M0,0H375a0,0,0,0,1,0,0V193a30,30,0,0,1-30,30H30A30,30,0,0,1,0,193V0A0,0,0,0,1,0,0Z" transform="translate(0)" fill="url(#linear-gradient)"/>
      <path id="Path_11827" data-name="Path 11827" d="M1240.233-417.667h-70.446s23.989.936,39.085,13.106a107.553,107.553,0,0,0,17.969,12.156,29.363,29.363,0,0,0,26.784,0,107.553,107.553,0,0,0,17.969-12.156c15.1-12.17,39.085-13.106,39.085-13.106Z" transform="translate(-1052.9 640.505)" fill="url(#linear-gradient)"/>
    </g>
    <g id="Group_6" data-name="Group 6" transform="translate(267 -16.04)" opacity="0.04">
      <g id="Group_5" data-name="Group 5" transform="translate(0)">
        <path id="Path_4" data-name="Path 4" d="M-225.166,1151.665a85.244,85.244,0,0,0-58.958,23.357l11.922,12.031a68.515,68.515,0,0,1,47.036-18.426A68.579,68.579,0,0,1-182.79,1183.2l12.029-12.031A85.494,85.494,0,0,0-225.166,1151.665Z" transform="translate(313.001 -1118.231)" fill="#fff"/>
        <path id="Path_5" data-name="Path 5" d="M-253.6,1264a54.253,54.253,0,0,0,50.071-54.027,53.306,53.306,0,0,0-10.622-32.133l-12.085,12.084a37.258,37.258,0,0,1,5.8,20.048,37.443,37.443,0,0,1-33.162,37.067Z" transform="translate(345.662 -1090.22)" fill="#fff"/>
        <path id="Path_6" data-name="Path 6" d="M-235.339,1188.078l-18.262,18.262v17.341a24.946,24.946,0,0,0,20.808-24.657A24.652,24.652,0,0,0-235.339,1188.078Z" transform="translate(345.662 -1079.267)" fill="#fff"/>
        <path id="Path_7" data-name="Path 7" d="M-297.92,1267.37-260.637,1326l37.228-58.633Z" transform="translate(298.238 -994.419)" fill="#fff"/>
        <path id="Path_8" data-name="Path 8" d="M-297.971,1359.233h75V1226.956L-239.935,1210v134.281H-251.26V1230.533c0-.164-1.138-15.174,4.171-27.691l-12.625-12.625c-10.351,17.936-8.562,40.48-8.508,41.019v113.041h-12.789V1230.8c-.432-10.243.868-37.175,11.868-50.071l-11.921-11.921c-18.426,20.158-17.124,58.144-16.906,62.424Z" transform="translate(298.074 -1099.883)" fill="#fff"/>
        <path id="Path_9" data-name="Path 9" d="M-236.875,1184.125a36.047,36.047,0,0,1,19.4,5.474l12.247-12.3a54.875,54.875,0,0,0-31.647-10.135,53.738,53.738,0,0,0-36.307,14.037l12.029,11.975A36.408,36.408,0,0,1-236.875,1184.125Z" transform="translate(324.709 -1101.649)" fill="#fff"/>
        <path id="Path_10" data-name="Path 10" d="M-213.8,1150.9a103.96,103.96,0,0,1,68.115,25.361l10.079-11.651a119.229,119.229,0,0,0-78.195-29.1,119.128,119.128,0,0,0-81.61,32.134l10.46,11.272A104.15,104.15,0,0,1-213.8,1150.9Z" transform="translate(300.927 -1135.514)" fill="#fff"/>
        <path id="Path_11" data-name="Path 11" d="M-203.423,1178.908a68.62,68.62,0,0,1,14.956,42.862,69.447,69.447,0,0,1-65.135,69.2v17.069a86.539,86.539,0,0,0,82.1-86.271,85.812,85.812,0,0,0-19.833-54.947Z" transform="translate(345.662 -1102.013)" fill="#fff"/>
        <path id="Path_12" data-name="Path 12" d="M-251.8,1198.124l14.631-14.629a25.566,25.566,0,0,0-10.4-2.223,24.785,24.785,0,0,0-15.606,5.528l1.192,1.191Z" transform="translate(335.41 -1086.55)" fill="#fff"/>
      </g>
    </g>
  </g>
</svg>
