<svg xmlns="http://www.w3.org/2000/svg" xmlns:xlink="http://www.w3.org/1999/xlink" width="376.349" height="426.333" viewBox="0 0 376.349 426.333">
  <defs>
    <linearGradient id="linear-gradient" y1="1" x2="1" y2="0.325" gradientUnits="objectBoundingBox">
      <stop offset="0" stop-color="#fa5435"/>
      <stop offset="0.509" stop-color="#b617a4"/>
      <stop offset="1" stop-color="#7717b0"/>
    </linearGradient>
  </defs>
  <g id="Calendar-BG-Expanded" transform="translate(-370.65 -378.667)">
    <g id="Group_17313" data-name="Group 17313" transform="translate(370.65 895.667)">
      <path id="Union_2" data-name="Union 2" d="M173.941,424.026a117.6,117.6,0,0,1-17.969-8.676c-12.3-7.079-30.512-8.833-36.829-9.239H30a30,30,0,0,1-30-30V0H375V376.111a30,30,0,0,1-30,30H255.524c-6.317.407-24.526,2.16-36.829,9.239a117.6,117.6,0,0,1-17.969,8.676,40.032,40.032,0,0,1-26.784,0Z" transform="translate(0 -517)" fill="url(#linear-gradient)"/>
      <path id="Path_1425" data-name="Path 1425" d="M.527,9.339a1.663,1.663,0,0,1-.3-.154.6.6,0,0,1-.085-.85c.254-.276.519-.533.784-.8L3.738,4.722c.015-.015.029-.033.059-.066-.048-.04-.1-.081-.14-.121Q1.936,2.818.218,1.1A.632.632,0,0,1,.093.3.613.613,0,0,1,1,.131c.2.18.39.375.581.566.291.287.578.574.864.864l.938.938.949.949c.276.276.555.548.82.831a.6.6,0,0,1,0,.787c-.213.228-.438.449-.658.669-.313.316-.629.629-.942.942-.287.287-.578.574-.864.864l-.938.938-.673.673a.85.85,0,0,1-.349.188C.655,9.339.593,9.339.527,9.339Z" transform="translate(183 -105.253) rotate(-90)" fill="#fff" opacity="0.522"/>
    </g>
    <path id="Subtraction_2" data-name="Subtraction 2" d="M1656.6-2483.788l-37.282-58.633h74.511l-37.229,58.633Zm37.5-72.233h-75v-128a132.575,132.575,0,0,1,1.462-25.258,96.6,96.6,0,0,1,5-19.51,55.026,55.026,0,0,1,10.445-17.656l11.921,11.92c-10.537,12.354-12.371,38.154-11.868,50.071v113.473h12.789v-113.041c-.022-.224-1.916-22.955,8.509-41.019l12.625,12.626c-4.859,11.453-4.331,25.005-4.176,27.606v.013c0,.041,0,.065,0,.071v113.744h11.326v-134.281l16.96,16.96v132.277Zm16.962-53.324h0v-17.068a68.358,68.358,0,0,0,28.788-8.239v18.813a85.76,85.76,0,0,1-28.787,6.5Zm0-32.243h0v-16.959a37.585,37.585,0,0,0,28.788-19.587v25.552a53.649,53.649,0,0,1-28.787,11Zm0-29.37h0V-2688.3l18.262-18.263a24.6,24.6,0,0,1,2.547,10.947,25.047,25.047,0,0,1-1.582,8.806,24.806,24.806,0,0,1-4.371,7.424,25.029,25.029,0,0,1-14.854,8.426Zm-8.454-32.84h0l-10.186-10.132-1.193-1.191a24.864,24.864,0,0,1,15.607-5.528,25.649,25.649,0,0,1,10.4,2.223l-14.631,14.628Zm37.24-9.432c-.441-.826-.919-1.645-1.422-2.435l1.424-1.424v3.858Zm-57.29-10.617h0l-12.029-11.974a53.751,53.751,0,0,1,36.307-14.038,54.263,54.263,0,0,1,16.656,2.63,54.964,54.964,0,0,1,14.99,7.506l-12.246,12.3a36.191,36.191,0,0,0-19.4-5.474,36.533,36.533,0,0,0-24.277,9.049Zm-22.759-22.7h0l-11.921-12.029a84.937,84.937,0,0,1,27.081-17.307,85.92,85.92,0,0,1,31.877-6.05,84.9,84.9,0,0,1,33.015,6.618v18.758a68.958,68.958,0,0,0-33.015-8.414A68.728,68.728,0,0,0,1659.8-2746.55Zm-24.818-25.416h0l-10.46-11.27a119.134,119.134,0,0,1,81.61-32.134,119.876,119.876,0,0,1,33.719,4.83v16.156a104.1,104.1,0,0,0-33.719-5.6A104.155,104.155,0,0,0,1634.981-2771.966Z" transform="translate(-993.35 3207)" fill="#fff" stroke="rgba(0,0,0,0)" stroke-miterlimit="10" stroke-width="1" opacity="0.05"/>
  </g>
</svg>
