<svg xmlns="http://www.w3.org/2000/svg" xmlns:xlink="http://www.w3.org/1999/xlink" width="376.303" height="251.332" viewBox="0 0 376.303 251.332">
  <defs>
    <linearGradient id="linear-gradient" y1="1.082" x2="1.017" gradientUnits="objectBoundingBox">
      <stop offset="0" stop-color="#fa5435"/>
      <stop offset="0.509" stop-color="#b617a4"/>
      <stop offset="1" stop-color="#7717b0"/>
    </linearGradient>
  </defs>
  <g id="Calendar-Background" transform="translate(-370.65 -33.464)">
    <path id="Union_2" data-name="Union 2" d="M-5039.059-1646.9a107.587,107.587,0,0,1-17.969-12.155c-12.306-9.921-30.523-12.377-36.834-12.946H-5183a30,30,0,0,1-30-30v-193h375v193a30,30,0,0,1-30,30h-89.471c-6.312.569-24.528,3.024-36.835,12.946a107.466,107.466,0,0,1-17.968,12.155,29.342,29.342,0,0,1-13.392,3.232A29.35,29.35,0,0,1-5039.059-1646.9Z" transform="translate(5583.65 1928.464)" fill="url(#linear-gradient)"/>
    <path id="Subtraction_1" data-name="Subtraction 1" d="M1681.7-2604.5v-99.867l16.96,16.961v82.906H1681.7Zm-28.288,0v-78.627c-.022-.224-1.918-22.952,8.509-41.019l12.625,12.626c-4.859,11.454-4.331,25.006-4.176,27.606v.013c0,.041,0,.065,0,.071v79.33h-16.962Zm-29.749,0v-78.627a132.529,132.529,0,0,1,1.462-25.257,96.6,96.6,0,0,1,5-19.51,55.027,55.027,0,0,1,10.446-17.656l11.921,11.921c-10.537,12.354-12.371,38.154-11.868,50.071v79.059h-16.96Zm91.958-3.953h0v-17.069a69.178,69.178,0,0,0,31.4-9.734l0,1.618v.031a33.48,33.48,0,0,1-3.376,12.944,28.713,28.713,0,0,1-6.3,8.3,86.1,86.1,0,0,1-21.717,3.908Zm0-32.243h0v-16.96a37.491,37.491,0,0,0,31.521-26.132l-.074,29.92a54.124,54.124,0,0,1-14.438,9.055,53.449,53.449,0,0,1-17.008,4.118Zm0-29.37h0v-17.339l18.262-18.263a24.6,24.6,0,0,1,2.547,10.947,25.046,25.046,0,0,1-1.582,8.806,24.811,24.811,0,0,1-4.371,7.424,25.029,25.029,0,0,1-14.854,8.426Zm-8.454-32.84h0l-10.186-10.132-1.193-1.191a24.863,24.863,0,0,1,15.607-5.528,25.654,25.654,0,0,1,10.4,2.223l-14.631,14.628Zm40.026-2.675a36.908,36.908,0,0,0-4.208-9.192l4.243-4.243-.033,13.434Zm-60.076-17.374h0l-12.029-11.974a53.752,53.752,0,0,1,36.307-14.038,54.263,54.263,0,0,1,16.656,2.63,54.966,54.966,0,0,1,14.99,7.506l-12.246,12.3a36.192,36.192,0,0,0-19.4-5.474,36.533,36.533,0,0,0-24.277,9.049Zm-22.759-22.7h0l-11.921-12.029A84.929,84.929,0,0,1,1679.521-2775a85.917,85.917,0,0,1,31.877-6.05,85.841,85.841,0,0,1,18.7,2.054,85.139,85.139,0,0,1,17.267,5.868l-.047,19.136a68.727,68.727,0,0,0-35.92-10.1A68.73,68.73,0,0,0,1664.361-2745.658Zm-24.818-25.416h0l-10.46-11.27a119.135,119.135,0,0,1,81.61-32.134,119.716,119.716,0,0,1,36.759,5.765l-.04,16.3a103.938,103.938,0,0,0-36.719-6.673A104.156,104.156,0,0,0,1639.544-2771.074Z" transform="translate(-1001 2861)" fill="#fff" stroke="rgba(0,0,0,0)" stroke-miterlimit="10" stroke-width="1" opacity="0.05"/>
  </g>
</svg>
