<svg xmlns="http://www.w3.org/2000/svg" xmlns:xlink="http://www.w3.org/1999/xlink" width="441.158" height="448.372" viewBox="0 0 441.158 448.372">
  <defs>
    <linearGradient id="linear-gradient" y1="1" x2="1" y2="0.325" gradientUnits="objectBoundingBox">
      <stop offset="0" stop-color="#fa5435"/>
      <stop offset="0.509" stop-color="#b617a4"/>
      <stop offset="1" stop-color="#7717b0"/>
    </linearGradient>
  </defs>
  <g id="CalendarExapnded" transform="translate(0 22.04)">
    <g id="Group_17313" data-name="Group 17313" transform="translate(0 517)">
      <path id="Union_2" data-name="Union 2" d="M173.941,424.026a117.6,117.6,0,0,1-17.969-8.676c-12.3-7.079-30.512-8.833-36.829-9.239H30a30,30,0,0,1-30-30V0H375V376.111a30,30,0,0,1-30,30H255.524c-6.317.407-24.526,2.16-36.829,9.239a117.6,117.6,0,0,1-17.969,8.676,40.032,40.032,0,0,1-26.784,0Z" transform="translate(0 -517)" fill="url(#linear-gradient)"/>
      <path id="Path_1425" data-name="Path 1425" d="M.527,9.339a1.663,1.663,0,0,1-.3-.154.6.6,0,0,1-.085-.85c.254-.276.519-.533.784-.8L3.738,4.722c.015-.015.029-.033.059-.066-.048-.04-.1-.081-.14-.121Q1.936,2.818.218,1.1A.632.632,0,0,1,.093.3.613.613,0,0,1,1,.131c.2.18.39.375.581.566.291.287.578.574.864.864l.938.938.949.949c.276.276.555.548.82.831a.6.6,0,0,1,0,.787c-.213.228-.438.449-.658.669-.313.316-.629.629-.942.942-.287.287-.578.574-.864.864l-.938.938-.673.673a.85.85,0,0,1-.349.188C.655,9.339.593,9.339.527,9.339Z" transform="translate(183 -105.253) rotate(-90)" fill="#fff" opacity="0.522"/>
    </g>
    <g id="Group_17314" data-name="Group 17314" transform="translate(267 -22.04)" opacity="0.04">
      <g id="Group_5" data-name="Group 5" transform="translate(0)">
        <path id="Path_4" data-name="Path 4" d="M-225.166,1151.665a85.244,85.244,0,0,0-58.958,23.357l11.922,12.031a68.515,68.515,0,0,1,47.036-18.426A68.579,68.579,0,0,1-182.79,1183.2l12.029-12.031A85.494,85.494,0,0,0-225.166,1151.665Z" transform="translate(313.001 -1118.231)" fill="#fff"/>
        <path id="Path_5" data-name="Path 5" d="M-253.6,1264a54.253,54.253,0,0,0,50.071-54.027,53.306,53.306,0,0,0-10.622-32.133l-12.085,12.084a37.258,37.258,0,0,1,5.8,20.048,37.443,37.443,0,0,1-33.162,37.067Z" transform="translate(345.662 -1090.22)" fill="#fff"/>
        <path id="Path_6" data-name="Path 6" d="M-235.339,1188.078l-18.262,18.262v17.341a24.946,24.946,0,0,0,20.808-24.657A24.652,24.652,0,0,0-235.339,1188.078Z" transform="translate(345.662 -1079.267)" fill="#fff"/>
        <path id="Path_7" data-name="Path 7" d="M-297.92,1267.37-260.637,1326l37.228-58.633Z" transform="translate(298.238 -994.419)" fill="#fff"/>
        <path id="Path_8" data-name="Path 8" d="M-297.971,1359.233h75V1226.956L-239.935,1210v134.281H-251.26V1230.533c0-.164-1.138-15.174,4.171-27.691l-12.625-12.625c-10.351,17.936-8.562,40.48-8.508,41.019v113.041h-12.789V1230.8c-.432-10.243.868-37.175,11.868-50.071l-11.921-11.921c-18.426,20.158-17.124,58.144-16.906,62.424Z" transform="translate(298.074 -1099.883)" fill="#fff"/>
        <path id="Path_9" data-name="Path 9" d="M-236.875,1184.125a36.047,36.047,0,0,1,19.4,5.474l12.247-12.3a54.875,54.875,0,0,0-31.647-10.135,53.738,53.738,0,0,0-36.307,14.037l12.029,11.975A36.408,36.408,0,0,1-236.875,1184.125Z" transform="translate(324.709 -1101.649)" fill="#fff"/>
        <path id="Path_10" data-name="Path 10" d="M-213.8,1150.9a103.96,103.96,0,0,1,68.115,25.361l10.079-11.651a119.229,119.229,0,0,0-78.195-29.1,119.128,119.128,0,0,0-81.61,32.134l10.46,11.272A104.15,104.15,0,0,1-213.8,1150.9Z" transform="translate(300.927 -1135.514)" fill="#fff"/>
        <path id="Path_11" data-name="Path 11" d="M-203.423,1178.908a68.62,68.62,0,0,1,14.956,42.862,69.447,69.447,0,0,1-65.135,69.2v17.069a86.539,86.539,0,0,0,82.1-86.271,85.812,85.812,0,0,0-19.833-54.947Z" transform="translate(345.662 -1102.013)" fill="#fff"/>
        <path id="Path_12" data-name="Path 12" d="M-251.8,1198.124l14.631-14.629a25.566,25.566,0,0,0-10.4-2.223,24.785,24.785,0,0,0-15.606,5.528l1.192,1.191Z" transform="translate(335.41 -1086.55)" fill="#fff"/>
      </g>
    </g>
    <g id="bcf00f228a3ec352d57625e0aefdcd4f" transform="translate(11.273 -115.792)">
      <path id="Path_11550" data-name="Path 11550" d="M37.331,142.252a1.951,1.951,0,0,1-1.952,1.952H11.952A1.951,1.951,0,0,1,10,142.252h0a1.951,1.951,0,0,1,1.952-1.952H35.379a1.953,1.953,0,0,1,1.952,1.952Z" transform="translate(0 0.492)" fill="#fcfcfc"/>
      <path id="Path_11551" data-name="Path 11551" d="M29.617,431.952a1.951,1.951,0,0,1-1.952,1.952H11.952A1.951,1.951,0,0,1,10,431.952h0A1.951,1.951,0,0,1,11.952,430h15.71a1.953,1.953,0,0,1,1.955,1.952Z" transform="translate(0 -280.208)" fill="#fcfcfc"/>
      <path id="Path_11552" data-name="Path 11552" d="M23.76,721.652a1.951,1.951,0,0,1-1.952,1.952H11.952A1.951,1.951,0,0,1,10,721.652h0a1.951,1.951,0,0,1,1.952-1.952h9.856a1.954,1.954,0,0,1,1.952,1.952Z" transform="translate(0 -560.908)" fill="#fcfcfc"/>
    </g>
    <g id="Group_17338" data-name="Group 17338" transform="translate(-6)">
      <circle id="Ellipse_277" data-name="Ellipse 277" cx="19.02" cy="19.02" r="19.02" transform="translate(220.696 248.292)" fill="#f28437"/>
      <g id="Group_17336" data-name="Group 17336" transform="translate(0 -116)">
        <text id="_1" data-name="1" transform="translate(238 467)" fill="#fff" font-size="14" font-family="BarlowSemiCondensed-SemiBold, Barlow" font-weight="600" opacity="0.2"><tspan x="0" y="0">1</tspan></text>
        <text id="_2" data-name="2" transform="translate(276 467)" fill="#fff" font-size="14" font-family="BarlowSemiCondensed-SemiBold, Barlow" font-weight="600" opacity="0.2"><tspan x="0" y="0">2</tspan></text>
        <text id="_3" data-name="3" transform="translate(315 467)" fill="#fff" font-size="14" font-family="BarlowSemiCondensed-SemiBold, Barlow" font-weight="600" opacity="0.2"><tspan x="0" y="0">3</tspan></text>
        <text id="T" transform="translate(149 277)" fill="#fff" font-size="15" font-family="BarlowSemiCondensed-SemiBold, Barlow" font-weight="600"><tspan x="0" y="0">T</tspan></text>
        <text id="W" transform="translate(191 277)" fill="#fff" font-size="15" font-family="BarlowSemiCondensed-SemiBold, Barlow" font-weight="600"><tspan x="0" y="0">W</tspan></text>
        <text id="M" transform="translate(108 277)" fill="#fff" font-size="15" font-family="BarlowSemiCondensed-SemiBold, Barlow" font-weight="600"><tspan x="0" y="0">M</tspan></text>
        <text id="_30" data-name="30" transform="translate(64 310)" fill="#fff" font-size="14" font-family="BarlowSemiCondensed-SemiBold, Barlow" font-weight="600" opacity="0.2"><tspan x="0" y="0">30</tspan></text>
        <text id="T-2" data-name="T" transform="translate(235 277)" fill="#fff" font-size="15" font-family="BarlowSemiCondensed-SemiBold, Barlow" font-weight="600"><tspan x="0" y="0">T</tspan></text>
        <text id="F" transform="translate(274 277)" fill="#fff" font-size="15" font-family="BarlowSemiCondensed-SemiBold, Barlow" font-weight="600"><tspan x="0" y="0">F</tspan></text>
        <text id="S" transform="translate(312 277)" fill="#fff" font-size="15" font-family="BarlowSemiCondensed-SemiBold, Barlow" font-weight="600"><tspan x="0" y="0">S</tspan></text>
        <text id="S-2" data-name="S" transform="translate(67 277)" fill="#fff" font-size="15" font-family="BarlowSemiCondensed-SemiBold, Barlow" font-weight="600"><tspan x="0" y="0">S</tspan></text>
        <g id="Group_17117" data-name="Group 17117" transform="translate(9 -48)">
          <text id="_1-2" data-name="1" transform="translate(101 358)" fill="#fff" font-size="14" font-family="BarlowSemiCondensed-SemiBold, Barlow" font-weight="600"><tspan x="0" y="0">1</tspan></text>
          <text id="_8" data-name="8" transform="translate(100 399)" fill="#fff" font-size="14" font-family="BarlowSemiCondensed-SemiBold, Barlow" font-weight="600"><tspan x="0" y="0">8</tspan></text>
          <text id="_15" data-name="15" transform="translate(98 436)" fill="#fff" font-size="14" font-family="BarlowSemiCondensed-SemiBold, Barlow" font-weight="600"><tspan x="0" y="0">15</tspan></text>
          <text id="_22" data-name="22" transform="translate(96 477)" fill="#fff" font-size="14" font-family="BarlowSemiCondensed-SemiBold, Barlow" font-weight="600"><tspan x="0" y="0">22</tspan></text>
          <text id="_29" data-name="29" transform="translate(97 515)" fill="#fff" font-size="14" font-family="BarlowSemiCondensed-SemiBold, Barlow" font-weight="600"><tspan x="0" y="0">29</tspan></text>
          <text id="_9" data-name="9" transform="translate(141 399)" fill="#fff" font-size="14" font-family="BarlowSemiCondensed-SemiBold, Barlow" font-weight="600"><tspan x="0" y="0">9</tspan></text>
          <text id="_16" data-name="16" transform="translate(139 436)" fill="#fff" font-size="14" font-family="BarlowSemiCondensed-SemiBold, Barlow" font-weight="600"><tspan x="0" y="0">16</tspan></text>
          <text id="_23" data-name="23" transform="translate(137 477)" fill="#fff" font-size="14" font-family="BarlowSemiCondensed-SemiBold, Barlow" font-weight="600"><tspan x="0" y="0">23</tspan></text>
          <text id="_30-2" data-name="30" transform="translate(137 515)" fill="#fff" font-size="14" font-family="BarlowSemiCondensed-SemiBold, Barlow" font-weight="600"><tspan x="0" y="0">30</tspan></text>
          <text id="_2-2" data-name="2" transform="translate(141 358)" fill="#fff" font-size="14" font-family="BarlowSemiCondensed-SemiBold, Barlow" font-weight="600"><tspan x="0" y="0">2</tspan></text>
          <text id="_7" data-name="7" transform="translate(59 399)" fill="#fff" font-size="14" font-family="BarlowSemiCondensed-SemiBold, Barlow" font-weight="600"><tspan x="0" y="0">7</tspan></text>
          <text id="_14" data-name="14" transform="translate(57 436)" fill="#fff" font-size="14" font-family="BarlowSemiCondensed-SemiBold, Barlow" font-weight="600"><tspan x="0" y="0">14</tspan></text>
          <text id="_21" data-name="21" transform="translate(57 477)" fill="#fff" font-size="14" font-family="BarlowSemiCondensed-SemiBold, Barlow" font-weight="600"><tspan x="0" y="0">21</tspan></text>
          <text id="_28" data-name="28" transform="translate(55 515)" fill="#fff" font-size="14" font-family="BarlowSemiCondensed-SemiBold, Barlow" font-weight="600"><tspan x="0" y="0">28</tspan></text>
          <text id="_17" data-name="17" transform="translate(182 436)" fill="#fff" font-size="14" font-family="BarlowSemiCondensed-SemiBold, Barlow" font-weight="600"><tspan x="0" y="0">17</tspan></text>
          <text id="_24" data-name="24" transform="translate(180 477)" fill="#fff" font-size="14" font-family="BarlowSemiCondensed-SemiBold, Barlow" font-weight="600"><tspan x="0" y="0">24</tspan></text>
          <text id="_31" data-name="31" transform="translate(182 515)" fill="#fff" font-size="14" font-family="BarlowSemiCondensed-SemiBold, Barlow" font-weight="600"><tspan x="0" y="0">31</tspan></text>
          <text id="_3-2" data-name="3" transform="translate(184 358)" fill="#fff" font-size="14" font-family="BarlowSemiCondensed-SemiBold, Barlow" font-weight="600"><tspan x="0" y="0">3</tspan></text>
          <text id="_11" data-name="11" transform="translate(226 399)" fill="#fff" font-size="14" font-family="BarlowSemiCondensed-SemiBold, Barlow" font-weight="600"><tspan x="0" y="0">11</tspan></text>
          <text id="_18" data-name="18" transform="translate(225 436)" fill="#fff" font-size="14" font-family="BarlowSemiCondensed-SemiBold, Barlow" font-weight="600"><tspan x="0" y="0">18</tspan></text>
          <text id="_25" data-name="25" transform="translate(223 477)" fill="#fff" font-size="14" font-family="BarlowSemiCondensed-SemiBold, Barlow" font-weight="600"><tspan x="0" y="0">25</tspan></text>
          <text id="_4" data-name="4" transform="translate(227 358)" fill="#fff" font-size="14" font-family="BarlowSemiCondensed-SemiBold, Barlow" font-weight="600"><tspan x="0" y="0">4</tspan></text>
          <text id="_12" data-name="12" transform="translate(262 399)" fill="#fff" font-size="14" font-family="BarlowSemiCondensed-SemiBold, Barlow" font-weight="600"><tspan x="0" y="0">12</tspan></text>
          <text id="_19" data-name="19" transform="translate(262 436)" fill="#fff" font-size="14" font-family="BarlowSemiCondensed-SemiBold, Barlow" font-weight="600"><tspan x="0" y="0">19</tspan></text>
          <text id="_26" data-name="26" transform="translate(261 477)" fill="#fff" font-size="14" font-family="BarlowSemiCondensed-SemiBold, Barlow" font-weight="600"><tspan x="0" y="0">26</tspan></text>
          <text id="_5" data-name="5" transform="translate(264 358)" fill="#fff" font-size="14" font-family="BarlowSemiCondensed-SemiBold, Barlow" font-weight="600"><tspan x="0" y="0">5</tspan></text>
          <text id="_13" data-name="13" transform="translate(302 399)" fill="#fff" font-size="14" font-family="BarlowSemiCondensed-SemiBold, Barlow" font-weight="600"><tspan x="0" y="0">13</tspan></text>
          <text id="_20" data-name="20" transform="translate(300 436)" fill="#fff" font-size="14" font-family="BarlowSemiCondensed-SemiBold, Barlow" font-weight="600"><tspan x="0" y="0">20</tspan></text>
          <text id="_27" data-name="27" transform="translate(301 477)" fill="#fff" font-size="14" font-family="BarlowSemiCondensed-SemiBold, Barlow" font-weight="600"><tspan x="0" y="0">27</tspan></text>
          <text id="_6" data-name="6" transform="translate(304 358)" fill="#fff" font-size="14" font-family="BarlowSemiCondensed-SemiBold, Barlow" font-weight="600"><tspan x="0" y="0">6</tspan></text>
        </g>
        <text id="_10" data-name="10" transform="translate(191 351)" fill="#fff" font-size="14" font-family="BarlowSemiCondensed-SemiBold, Barlow" font-weight="600"><tspan x="0" y="0">10</tspan></text>
      </g>
      <g id="Group_3328" data-name="Group 3328" transform="translate(101.149 95.749)">
        <g id="Group_3327" data-name="Group 3327" transform="translate(0 0)">
          <g id="Group_2074" data-name="Group 2074">
            <text id="April_2019" data-name="April 2019" transform="translate(64.008 16)" fill="#fff" font-size="15" font-family="BarlowSemiCondensed-SemiBold, Barlow" font-weight="600"><tspan x="0" y="0">April 2019</tspan></text>
            <path id="Path_401" data-name="Path 401" d="M.722,13.144A2.335,2.335,0,0,1,.3,12.927a.838.838,0,0,1-.119-1.193c.356-.387.728-.749,1.1-1.121L5.23,6.663c.021-.021.041-.046.083-.093-.067-.057-.134-.114-.2-.17Q2.7,3.99.288,1.575A.887.887,0,0,1,.112.46.86.86,0,0,1,1.383.217c.284.253.547.527.816.8.408.4.811.806,1.214,1.214L4.729,3.543,6.062,4.876c.387.387.78.77,1.152,1.167a.846.846,0,0,1,0,1.105c-.3.32-.615.63-.924.94-.439.444-.883.883-1.322,1.322-.4.4-.811.806-1.214,1.214L2.436,11.941l-.945.945A1.194,1.194,0,0,1,1,13.15C.9,13.144.815,13.144.722,13.144Z" transform="translate(181.839 4.25)" fill="#fff"/>
            <path id="Path_402" data-name="Path 402" d="M.739,13.112a2.335,2.335,0,0,1-.424-.217A.838.838,0,0,1,.2,11.7c.356-.387.728-.749,1.1-1.121L5.248,6.63c.021-.021.041-.046.083-.093-.067-.057-.134-.114-.2-.17Q2.718,3.957.306,1.543A.887.887,0,0,1,.13.427.86.86,0,0,1,1.4.184c.284.253.547.527.816.8.408.4.811.806,1.214,1.214L4.747,3.51,6.08,4.843c.387.387.78.77,1.152,1.167a.846.846,0,0,1,0,1.105c-.3.32-.615.63-.924.94-.439.444-.883.883-1.322,1.322-.4.4-.811.806-1.214,1.214L2.454,11.908l-.945.945a1.194,1.194,0,0,1-.491.263C.92,13.112.832,13.112.739,13.112Z" transform="translate(7.437 17.4) rotate(180)" fill="#fff"/>
          </g>
        </g>
      </g>
    </g>
    <text id="My_Attendance" data-name="My Attendance" transform="translate(129 45)" fill="#fff" font-size="20" font-family="BarlowSemiCondensed-SemiBold, Barlow" font-weight="600"><tspan x="0" y="0">My Attendance</tspan></text>
  </g>
</svg>
