<svg xmlns="http://www.w3.org/2000/svg" xmlns:xlink="http://www.w3.org/1999/xlink" width="18.627" height="17.626" viewBox="0 0 18.627 17.626">
  <defs>
    <linearGradient id="linear-gradient" x1="-0.143" y1="1" x2="1.118" gradientUnits="objectBoundingBox">
      <stop offset="0" stop-color="#fa5435"/>
      <stop offset="0.489" stop-color="#b617a4"/>
      <stop offset="1" stop-color="#7717b0"/>
    </linearGradient>
  </defs>
  <g id="Circular" transform="translate(0)">
    <path id="Path_11621" data-name="Path 11621" d="M-1.762,295.01a.364.364,0,0,0,.133-.5.364.364,0,0,0-.5-.133.364.364,0,0,0-.133.5A.364.364,0,0,0-1.762,295.01Z" transform="translate(6.744 -283.796)" fill="url(#linear-gradient)"/>
    <path id="Path_11622" data-name="Path 11622" d="M-120.779,40.023l1.832,3.174a1.457,1.457,0,0,0,1.988.533,1.455,1.455,0,0,0,.533-1.988l-1.091-1.891.945-.546a.364.364,0,0,0,.133-.5l-.473-.819,6.968-1.367a1.091,1.091,0,0,0,.885-1.635l-1.209-2.094.773-1.17a.364.364,0,0,0,.012-.382l-.728-1.26a.365.365,0,0,0-.337-.181l-1.4.084-1.342-2.325a1.082,1.082,0,0,0-.932-.546h-.014a1.082,1.082,0,0,0-.919.5l-4.753,6.054L-123,35.452a2.548,2.548,0,0,0-.932,3.479A2.55,2.55,0,0,0-120.779,40.023Zm3.723,2.082a.727.727,0,0,1-.267.994.729.729,0,0,1-.994-.266l-1.819-3.151,1.26-.728Zm-.825-2.885-.364-.63.63-.364.364.63Zm7.152-8.583.5.871-.448.679-.867-1.5Zm-3.817-2.624a.356.356,0,0,1,.315-.175.358.358,0,0,1,.31.182l4.232,7.329A.364.364,0,0,1-110,35.9a1.333,1.333,0,0,0-.2.034l-4.476-7.753C-114.577,28.055-114.565,28.044-114.547,28.013Zm-.609.78,4.206,7.284-6.347,1.245-1.93-3.343Zm-8.144,9.774a1.817,1.817,0,0,1-.244-.908,1.826,1.826,0,0,1,.91-1.577l2.836-1.637,1.819,3.151-2.836,1.637A1.821,1.821,0,0,1-123.3,38.567Z" transform="translate(124.271 -26.298)" fill="url(#linear-gradient)"/>
    <path id="Path_11623" data-name="Path 11623" d="M-79.286,314.51a.364.364,0,0,0-.5-.133l-.63.364a.364.364,0,0,1-.5-.133.364.364,0,0,0-.5-.133.364.364,0,0,0-.133.5,1.093,1.093,0,0,0,1.491.4l.63-.364A.364.364,0,0,0-79.286,314.51Z" transform="translate(83.141 -303.066)" fill="url(#linear-gradient)"/>
    <path id="Path_11624" data-name="Path 11624" d="M314.218,47.282l-2.027,1.128a.364.364,0,0,0,.354.636l2.027-1.128a.364.364,0,0,0-.354-.636Z" transform="translate(-296.132 -45.691)" fill="url(#linear-gradient)"/>
    <path id="Path_11625" data-name="Path 11625" d="M317.656,141.766l-1.406-.377a.364.364,0,1,0-.188.7l1.406.377a.364.364,0,1,0,.188-.7Z" transform="translate(-299.782 -136.406)" fill="url(#linear-gradient)"/>
    <path id="Path_11626" data-name="Path 11626" d="M259.611,5.025l-.377,1.406a.364.364,0,0,0,.7.188l.377-1.406a.364.364,0,1,0-.7-.188Z" transform="translate(-245.27 -4.755)" fill="url(#linear-gradient)"/>
  </g>
</svg>
