<svg xmlns="http://www.w3.org/2000/svg" xmlns:xlink="http://www.w3.org/1999/xlink" width="19.672" height="18.501" viewBox="0 0 19.672 18.501">
  <defs>
    <linearGradient id="linear-gradient" x1="1" y1="0.275" x2="-0.054" y2="1.091" gradientUnits="objectBoundingBox">
      <stop offset="0" stop-color="#9c2dd2"/>
      <stop offset="1" stop-color="#e91919"/>
    </linearGradient>
  </defs>
  <path id="Home" d="M-36.8-22.967l-1.4-1.321-7.729-7.269a.734.734,0,0,0-.993,0h0l-7.729,7.269-1.405,1.322a.634.634,0,0,0,0,.934.735.735,0,0,0,.993,0l.205-.194v8.316a.682.682,0,0,0,.7.661H-38.7a.682.682,0,0,0,.7-.66v-8.317l.206.194a.735.735,0,0,0,.993,0A.634.634,0,0,0-36.8-22.967Zm-2.6,8.4h-3.52v-.552a.679.679,0,0,0-.7-.657.679.679,0,0,0-.7.657v.552h-4.216v-5.286h4.216v2.295a.683.683,0,0,0,.7.661h0a.683.683,0,0,0,.7-.661v-2.955a.682.682,0,0,0-.7-.66h-5.622a.682.682,0,0,0-.7.66v5.947h-3.513v-8.977l7.026-6.608,7.026,6.608Z" transform="translate(56.262 31.751)" fill="url(#linear-gradient)"/>
</svg>
