<svg xmlns="http://www.w3.org/2000/svg" xmlns:xlink="http://www.w3.org/1999/xlink" width="16.366" height="18.932" viewBox="0 0 16.366 18.932">
  <defs>
    <linearGradient id="linear-gradient" x1="-0.143" y1="1" x2="1.132" gradientUnits="objectBoundingBox">
      <stop offset="0" stop-color="#fa5435"/>
      <stop offset="0.489" stop-color="#b617a4"/>
      <stop offset="1" stop-color="#7717b0"/>
    </linearGradient>
  </defs>
  <g id="Issues" transform="translate(-176.112 -451.73)">
    <path id="Path_11732" data-name="Path 11732" d="M705.429,943.16h-.013a.863.863,0,0,0-.844.869.834.834,0,0,0,.853.844h0a.872.872,0,0,0,.874-.844.847.847,0,0,0-.258-.6A.881.881,0,0,0,705.429,943.16Z" transform="translate(-515.974 -476.563)" fill="url(#linear-gradient)"/>
    <g id="Group_17323" data-name="Group 17323" transform="translate(176.112 451.73)">
      <path id="Path_11974" data-name="Path 11974" d="M-621.333,334.343a4.276,4.276,0,0,0-3.392-3.443,4.218,4.218,0,0,0-4.5,1.66,4,4,0,0,0-.8,3.428,5.129,5.129,0,0,0,1.209,2.227,2.456,2.456,0,0,1,.571,1.151c.142.754.26,1.512.375,2.271a1.936,1.936,0,0,0,.5,1.152.285.285,0,0,1,.05.182c0,.323,0,.647,0,.97v.824c0,.309,0,.306.3.393.06.017.148.066.156.113a.728.728,0,0,0,.478.559,1.6,1.6,0,0,0,1.4-.017.8.8,0,0,0,.4-.4.387.387,0,0,1,.367-.3c.129-.02.174-.084.172-.221q-.012-.952,0-1.9a.435.435,0,0,1,.1-.256,1.605,1.605,0,0,0,.392-.773c.129-.75.259-1.5.37-2.253a2.872,2.872,0,0,1,.645-1.507,6.249,6.249,0,0,0,.911-1.386A3.651,3.651,0,0,0-621.333,334.343ZM-624.66,344.6a4.357,4.357,0,0,1-1.538.095,2.72,2.72,0,0,1-.27-.041c-.282-.055-.289-.067-.222-.378a4.925,4.925,0,0,0,2.03,0Zm-2.058-1.376a7.846,7.846,0,0,0,2.055,0v.464c-.34.028-.683.076-1.026.079-.277,0-.555-.052-.834-.07-.156-.01-.217-.076-.2-.231A1.934,1.934,0,0,0-626.718,343.229Zm3.954-6.835a6.788,6.788,0,0,1-.66.984,4.157,4.157,0,0,0-.935,2.069c-.113.752-.244,1.5-.369,2.253a.448.448,0,0,1-.446.382c-.171,0-.342,0-.512,0h-.439a.458.458,0,0,1-.525-.439c-.117-.69-.243-1.38-.338-2.073a4.265,4.265,0,0,0-1.018-2.264,3.427,3.427,0,0,1-.887-1.775,2.943,2.943,0,0,1,.771-2.43,3.08,3.08,0,0,1,3.277-1,3.129,3.129,0,0,1,2.343,2.5A2.451,2.451,0,0,1-622.764,336.394Z" transform="translate(633.969 -327.047)" fill="url(#linear-gradient)"/>
      <path id="Path_11975" data-name="Path 11975" d="M-363.87,438.271c-.541,0-1.038,0-1.519,0a.611.611,0,0,0-.666.612.61.61,0,0,0,.66.619l.3,0h.684c.176,0,.359,0,.539,0a.7.7,0,0,0,.514-.2.593.593,0,0,0,.163-.431A.624.624,0,0,0-363.87,438.271Z" transform="translate(379.562 -430.606)" fill="url(#linear-gradient)"/>
      <path id="Path_11976" data-name="Path 11976" d="M-628.145,257.462a.623.623,0,0,0,.536.327.615.615,0,0,0,.307-.084.6.6,0,0,0,.215-.85c-.253-.446-.524-.921-.811-1.4a.74.74,0,0,0-.254-.237l-.022-.014-.082-.066h-.109a.661.661,0,0,0-.585.311.627.627,0,0,0,.009.631C-628.715,256.486-628.462,256.924-628.145,257.462Z" transform="translate(632.911 -254.184)" fill="url(#linear-gradient)"/>
      <path id="Path_11977" data-name="Path 11977" d="M-705.913,514.225a.562.562,0,0,0-.433.048c-.482.269-.995.557-1.5.87a.678.678,0,0,0-.247.606.561.561,0,0,0,.58.5l.055,0,.05-.014.009,0a.569.569,0,0,0,.171-.06l.2-.117c.417-.239.849-.485,1.271-.735a.6.6,0,0,0,.2-.805A.617.617,0,0,0-705.913,514.225Z" transform="translate(709.075 -503.759)" fill="url(#linear-gradient)"/>
      <path id="Path_11978" data-name="Path 11978" d="M-444,260.534h.114l.081-.064.02-.013a.736.736,0,0,0,.255-.237c.285-.472.556-.949.81-1.4a.639.639,0,0,0,.069-.489.6.6,0,0,0-.293-.362.608.608,0,0,0-.836.241c-.06.1-.116.2-.169.291l-.073.128-.171.294c-.131.226-.267.459-.4.694a.607.607,0,0,0,0,.608A.667.667,0,0,0-444,260.534Z" transform="translate(455.299 -256.832)" fill="url(#linear-gradient)"/>
      <path id="Path_11979" data-name="Path 11979" d="M-703.373,331.062a.656.656,0,0,0-.232-.271c-.417-.252-.877-.518-1.445-.837a.6.6,0,0,0-.818.221.608.608,0,0,0,.207.832c.094.06.189.114.28.165l.11.063.3.172c.235.137.477.278.72.413a.7.7,0,0,0,.339.092.583.583,0,0,0,.292-.077.657.657,0,0,0,.311-.58l0-.1-.054-.077Z" transform="translate(707.017 -326.181)" fill="url(#linear-gradient)"/>
      <path id="Path_11980" data-name="Path 11980" d="M-386.319,336.8c.023.018.044.035.059.049l.147.137.185-.078.1-.04a1.317,1.317,0,0,0,.18-.081c.4-.228.823-.472,1.3-.747a.616.616,0,0,0,.3-.865.572.572,0,0,0-.35-.286.726.726,0,0,0-.569.1l-.743.428-.127.073-.137.078c-.12.068-.243.137-.364.215a.567.567,0,0,0-.216.755A.84.84,0,0,0-386.319,336.8Z" transform="translate(399.38 -330.993)" fill="url(#linear-gradient)"/>
      <path id="Path_11981" data-name="Path 11981" d="M-386.692,520.263l-.019-.026a.832.832,0,0,0-.241-.243c-.433-.262-.879-.515-1.31-.761l-.055-.031a.606.606,0,0,0-.85.187.6.6,0,0,0-.08.459.661.661,0,0,0,.31.407c.129.078.259.153.386.225l.173.1.253.147c.193.113.392.23.594.339a.637.637,0,0,0,.3.078.587.587,0,0,0,.306-.086.669.669,0,0,0,.3-.6v-.112Z" transform="translate(401.919 -508.482)" fill="url(#linear-gradient)"/>
      <path id="Path_11982" data-name="Path 11982" d="M-525.22,231.676a.587.587,0,0,0,.412.161h.022a.618.618,0,0,0,.593-.657c0-.181,0-.365,0-.542q0-.114,0-.228t0-.237c0-.18,0-.367,0-.551a.607.607,0,0,0-.61-.644h0a.6.6,0,0,0-.608.645c0,.492,0,1,0,1.555A.67.67,0,0,0-525.22,231.676Z" transform="translate(533.089 -228.977)" fill="url(#linear-gradient)"/>
      <path id="Path_11983" data-name="Path 11983" d="M-732.743,434.191a.632.632,0,0,0,.458-.18.6.6,0,0,0,.168-.431.6.6,0,0,0-.628-.6c-.188,0-.377,0-.561,0h-.479c-.188,0-.383,0-.576,0a.6.6,0,0,0-.615.593.6.6,0,0,0,.165.437.634.634,0,0,0,.457.184l.81,0Z" transform="translate(734.976 -425.505)" fill="url(#linear-gradient)"/>
    </g>
  </g>
</svg>
