<svg id="Leave" xmlns="http://www.w3.org/2000/svg" xmlns:xlink="http://www.w3.org/1999/xlink" width="16.139" height="18.614" viewBox="0 0 16.139 18.614">
  <defs>
    <linearGradient id="linear-gradient" x1="-0.143" y1="1" x2="1.118" gradientUnits="objectBoundingBox">
      <stop offset="0" stop-color="#fa5435"/>
      <stop offset="0.489" stop-color="#b617a4"/>
      <stop offset="1" stop-color="#7717b0"/>
    </linearGradient>
  </defs>
  <path id="Path_11556" data-name="Path 11556" d="M659.661,327.656v-.014c0-.171,0-.342,0-.513q0-.362,0-.724c0-.558,0-.94,0-1.506a.5.5,0,0,0-.138-.367.512.512,0,0,0-.385-.11c-.234.016-.391.229-.391.528,0,.9,0,1.628,0,2.517v.036q0,.662,0,1.324c0,.533-.2.731-.721.732h-4.361v-.741q0-1.14,0-2.279c0-2.312,0-2.819.006-5.175a.654.654,0,0,0-.359-.639c-1.029-.635-4.324-3.516-4.354-3.536h0s6.652.03,9.147.027a.6.6,0,0,1,.644.649c-.006.612-.006,2.888,0,3.323a.477.477,0,0,0,.459.514h.005a.466.466,0,0,0,.451-.5c.006-.5.011-2.843,0-3.366a1.464,1.464,0,0,0-1.552-1.529h-.886c-3.736,0-6.225,0-9.825.006a.468.468,0,0,0-.533.532q0,3.155,0,6.31v.274c0,2.783,0,3.682,0,6.465a.558.558,0,0,0,.273.546c2.255,1.408,3.42,2.907,5.77,4.381a.494.494,0,0,0,.525.042.507.507,0,0,0,.243-.464c-.028-.755-.022-1.519-.016-2.258v-.005c0-.309.005-.629.005-.943v-.718h.734c.475,0,.959,0,1.427,0h.018c1.082,0,1.07-.009,2.172.011a1.659,1.659,0,0,0,1.224-.453,1.6,1.6,0,0,0,.428-1.191c-.012-.394-.009-.791-.006-1.175m-6.908,3.051v2.843s-3.966-3.16-4.588-3.544a.739.739,0,0,1-.386-.675c0-3.4,0-4.984,0-8.332l0-3.363s3.366,2.823,4.585,3.577a.778.778,0,0,1,.393.721C652.753,325.491,652.753,327.217,652.753,330.709Z" transform="translate(-646.863 -316.302)" fill="url(#linear-gradient)"/>
  <path id="Path_11557" data-name="Path 11557" d="M834.781,454.23h0c-.629,0-1.264,0-1.879,0H830.29c-.3,0-.262,0-.483.006a.44.44,0,0,0-.4.225.465.465,0,0,0,.025.47c.069.113.178.218.5.22.5,0,1.553,0,2.01,0H834.6a1.413,1.413,0,0,0,.237-.016.445.445,0,0,0,.406-.492A.44.44,0,0,0,834.781,454.23Z" transform="translate(-821.104 -447.989)" fill="url(#linear-gradient)"/>
  <path id="Path_11558" data-name="Path 11558" d="M954.43,416.344l.267.353.188.249-.248.338-.12.162q-.118.157-.238.314c-.166.217-.338.441-.494.665a.478.478,0,0,0,.071.679.466.466,0,0,0,.649-.11c.44-.571.892-1.177,1.342-1.8a.354.354,0,0,0,.017-.451c-.472-.669-.964-1.313-1.382-1.854a.415.415,0,0,0-.466-.154.435.435,0,0,0-.329.348c-.027.1-.031.227.142.461C954.025,415.809,954.222,416.069,954.43,416.344Z" transform="translate(-939.798 -410.265)" fill="url(#linear-gradient)"/>
  <path id="Path_11559" data-name="Path 11559" d="M838.375,662.9c-.25,0-.511,0-.74,0h-1.012c-.165,0-.3,0-.425,0a.462.462,0,0,0-.36.775.459.459,0,0,0,.327.139c.758.015,1.512.015,2.242,0a.447.447,0,0,0,.449-.47A.456.456,0,0,0,838.375,662.9Z" transform="translate(-827.175 -647.222)" fill="url(#linear-gradient)"/>
  <path id="Path_11560" data-name="Path 11560" d="M718.979,467.061c0-.119,0-.231,0-.336a.462.462,0,0,0-.44-.414h-.006a.45.45,0,0,0-.44.387c-.025.34-.025,3.249,0,3.593a.417.417,0,0,0,.452.393.439.439,0,0,0,.439-.43l0-.034h0V469.8C718.977,469.742,718.978,467.12,718.979,467.061Z" transform="translate(-714.85 -459.527)" fill="url(#linear-gradient)"/>
</svg>
