<svg xmlns="http://www.w3.org/2000/svg" xmlns:xlink="http://www.w3.org/1999/xlink" width="17.323" height="17.311" viewBox="0 0 17.323 17.311">
  <defs>
    <linearGradient id="linear-gradient" x1="-0.143" y1="1" x2="1.127" gradientUnits="objectBoundingBox">
      <stop offset="0" stop-color="#fa5435"/>
      <stop offset="0.489" stop-color="#b617a4"/>
      <stop offset="1" stop-color="#7717b0"/>
    </linearGradient>
  </defs>
  <g id="Logout" transform="translate(0 0)">
    <path id="Path_11888" data-name="Path 11888" d="M717.058,2258.575h0a.812.812,0,0,0,.147,1.069,6.874,6.874,0,0,1,2.355,4.465A6.987,6.987,0,0,1,707.774,2270a6.712,6.712,0,0,1-2.141-4.932,6.834,6.834,0,0,1,2.42-5.392.816.816,0,0,0,.143-1.066l-.024-.035a.813.813,0,0,0-1.2-.168,8.659,8.659,0,0,0,5.6,15.224h.1a8.655,8.655,0,0,0,5.584-15.222A.812.812,0,0,0,717.058,2258.575Z" transform="translate(-703.956 -2256.318)" fill="url(#linear-gradient)"/>
    <rect id="Rectangle_6316" data-name="Rectangle 6316" width="1.64" height="7.503" rx="0.82" transform="translate(7.836 0)" fill="url(#linear-gradient)"/>
  </g>
</svg>
