<svg xmlns="http://www.w3.org/2000/svg" width="339.067" height="644.96" viewBox="0 0 339.067 644.96">
  <g id="Phygitalz_P_Symbol" transform="translate(0.567 0.5)">
    <path id="Union_60" data-name="Union 60" d="M310.618,5291.718H455.225l-72.251,113.793Zm-.419-26.4V5016.909c-.421-8.307-2.948-82.028,32.812-121.149l23.137,23.136c-21.349,25.028-23.872,77.3-23.034,97.175V5236.3h24.82V5016.909c-.1-1.046-3.575-44.8,16.513-79.608l24.5,24.5c-10.3,24.292-8.1,53.423-8.1,53.742V5236.3h21.981V4975.686L455.75,5008.6v256.72Zm178.471-136.617c70.463-4.207,126.411-63,126.411-134.3a133.173,133.173,0,0,0-29.027-83.185l23.454-23.454A166.538,166.538,0,0,1,648,4994.4c0,89.609-70.781,163.016-159.331,167.432Zm0-62.364c36.178-4.207,64.36-34.812,64.36-71.939a72.307,72.307,0,0,0-11.253-38.91l23.454-23.452a103.457,103.457,0,0,1,20.615,62.362c0,55.214-42.912,100.858-97.176,104.854Zm0-57.739,35.443-35.442a47.836,47.836,0,0,1,4.941,21.246,48.413,48.413,0,0,1-40.383,47.852Zm-36.178-49.747-2.314-2.312a48.106,48.106,0,0,1,30.289-10.728,49.625,49.625,0,0,1,20.192,4.314l-28.4,28.392ZM410,4916.373a104.288,104.288,0,0,1,70.463-27.243,106.507,106.507,0,0,1,61.42,19.669l-23.768,23.875a72,72,0,0,0-84.77,6.94ZM366.043,4872.2a166.645,166.645,0,0,1,220.011-7.468l-23.346,23.349a134.068,134.068,0,0,0-173.529,7.469Zm-45.331-47.853a232.229,232.229,0,0,1,310.146-5.89L611.3,4841.07a202.336,202.336,0,0,0-270.282,5.153Z" transform="translate(-310 -4761.983)" fill="#acacac" stroke="rgba(0,0,0,0)" stroke-miterlimit="10" stroke-width="1" opacity="0.15"/>
  </g>
</svg>
