<svg xmlns="http://www.w3.org/2000/svg" xmlns:xlink="http://www.w3.org/1999/xlink" width="22.212" height="16.834" viewBox="0 0 22.212 16.834">
  <defs>
    <linearGradient id="linear-gradient" x1="0.5" x2="0.5" y2="1" gradientUnits="objectBoundingBox">
      <stop offset="0" stop-color="#7717b0"/>
      <stop offset="0.505" stop-color="#b617a4"/>
      <stop offset="1" stop-color="#fa5435"/>
    </linearGradient>
  </defs>
  <path id="Preview_icon" d="M4.525,14.5A14.887,14.887,0,0,1,0,8.417,14.888,14.888,0,0,1,4.525,2.332,10.714,10.714,0,0,1,11.105,0a10.722,10.722,0,0,1,6.582,2.332,14.925,14.925,0,0,1,4.524,6.084A14.923,14.923,0,0,1,17.688,14.5a10.723,10.723,0,0,1-6.582,2.333A10.714,10.714,0,0,1,4.525,14.5ZM1.982,8.417c1.78,4.037,5.276,6.546,9.123,6.546s7.343-2.509,9.123-6.546c-1.78-4.038-5.277-6.547-9.123-6.547S3.763,4.379,1.982,8.417ZM8.26,10.8a3.428,3.428,0,0,1,0-5.07,4.007,4.007,0,0,1,5.408,0,3.43,3.43,0,0,1,0,5.07,4,4,0,0,1-5.408,0Zm.555-2.518a2.15,2.15,0,1,0,2.149-2.094A2.126,2.126,0,0,0,8.814,8.277Z" fill="url(#linear-gradient)"/>
</svg>
