<svg xmlns="http://www.w3.org/2000/svg" xmlns:xlink="http://www.w3.org/1999/xlink" width="18.775" height="18.772" viewBox="0 0 18.775 18.772">
  <defs>
    <linearGradient id="linear-gradient" x1="-0.143" y1="1" x2="1.109" gradientUnits="objectBoundingBox">
      <stop offset="0" stop-color="#fa5435"/>
      <stop offset="0.489" stop-color="#b617a4"/>
      <stop offset="1" stop-color="#7717b0"/>
    </linearGradient>
  </defs>
  <g id="Settings" transform="translate(0)">
    <path id="Path_11881" data-name="Path 11881" d="M21.765,1285.181c-.153.358-.3.7-.439,1.039a.193.193,0,0,0,.038.167c.313.321.634.635.952.952a.6.6,0,0,1,0,.942q-1.188,1.191-2.379,2.38a.6.6,0,0,1-.942-.006c-.315-.313-.63-.625-.939-.942a.156.156,0,0,0-.212-.041c-.289.131-.583.252-.879.368a.161.161,0,0,0-.126.178c.006.443,0,.887,0,1.33a.6.6,0,0,1-.676.677h-3.35a.6.6,0,0,1-.668-.666c0-.449,0-.9,0-1.346a.152.152,0,0,0-.117-.169q-.451-.176-.893-.374a.148.148,0,0,0-.2.033c-.314.321-.632.637-.951.953a.594.594,0,0,1-.942,0q-1.186-1.183-2.369-2.369a.6.6,0,0,1,.009-.965c.307-.306.611-.614.924-.913a.174.174,0,0,0,.038-.239c-.128-.285-.247-.574-.355-.866a.166.166,0,0,0-.191-.128c-.438.006-.877,0-1.315,0a.6.6,0,0,1-.681-.671q0-1.675,0-3.35a.6.6,0,0,1,.669-.669c.449,0,.9,0,1.346,0a.194.194,0,0,0,.148-.085c.145-.34.278-.684.421-1.044l-.981-.981a.618.618,0,0,1,0-1.022q1.167-1.169,2.336-2.335a.591.591,0,0,1,.95,0c.314.313.626.629.943.939.037.036.114.074.151.059.352-.141.7-.293,1.06-.447,0-.473,0-.958,0-1.443a.6.6,0,0,1,.66-.673q1.683,0,3.366,0a.6.6,0,0,1,.668.67c0,.443,0,.887,0,1.33,0,.11.037.149.135.186.292.111.58.231.866.357a.16.16,0,0,0,.215-.035c.313-.322.632-.637.95-.954a.586.586,0,0,1,.928,0q1.2,1.194,2.391,2.391a.6.6,0,0,1,0,.933c-.312.315-.624.63-.943.939a.175.175,0,0,0-.039.239c.129.284.245.575.357.866a.151.151,0,0,0,.167.117c.438,0,.877,0,1.315,0a.618.618,0,0,1,.7.7q0,1.644,0,3.287a.614.614,0,0,1-.7.7Zm-8.444,5.86h2.345v-.179c0-.376,0-.751,0-1.127a.6.6,0,0,1,.5-.672,7.019,7.019,0,0,0,1.527-.631.6.6,0,0,1,.844.115c.3.307.6.618.892.912l1.67-1.669c-.023-.024-.058-.062-.094-.1-.281-.28-.564-.557-.842-.84a.58.58,0,0,1-.112-.743,7.088,7.088,0,0,0,.683-1.657.563.563,0,0,1,.565-.431c.407-.005.814,0,1.221,0h.17v-2.348c-.455,0-.9,0-1.342,0a.579.579,0,0,1-.617-.449,7.135,7.135,0,0,0-.686-1.656.57.57,0,0,1,.074-.683c.051-.059.107-.114.163-.169l.827-.816-1.681-1.681a1.1,1.1,0,0,1-.095.123c-.279.282-.558.564-.84.842a.566.566,0,0,1-.7.116,7.72,7.72,0,0,0-1.67-.693.581.581,0,0,1-.457-.612c0-.083,0-.167,0-.25,0-.364,0-.728,0-1.1H13.321v.17c0,.381,0,.762,0,1.143a.587.587,0,0,1-.5.658,6.435,6.435,0,0,0-1.554.646.591.591,0,0,1-.783-.089c-.292-.283-.578-.573-.867-.86-.032-.032-.068-.06-.079-.07l-1.652,1.644c.3.307.617.621.927.937a.584.584,0,0,1,.109.768,6.919,6.919,0,0,0-.668,1.629.578.578,0,0,1-.6.454c-.36,0-.72,0-1.08,0H6.3v2.348H7.61a.6.6,0,0,1,.664.509,6.684,6.684,0,0,0,.625,1.513.614.614,0,0,1-.117.856c-.266.265-.533.529-.8.795-.039.039-.075.081-.1.105l1.678,1.669c.289-.3.587-.613.891-.92a.6.6,0,0,1,.844-.112,6.847,6.847,0,0,0,1.527.631.6.6,0,0,1,.5.645c0,.386,0,.772,0,1.158Z" transform="translate(-5.108 -1273.453)" fill="url(#linear-gradient)"/>
    <path id="Path_11882" data-name="Path 11882" d="M182.074,1446.123a4.1,4.1,0,1,1-4.1-4.1A4.1,4.1,0,0,1,182.074,1446.123Zm-4.119,2.934a2.931,2.931,0,1,0-2.914-2.944A2.927,2.927,0,0,0,177.954,1449.058Z" transform="translate(-168.583 -1436.742)" fill="url(#linear-gradient)"/>
  </g>
</svg>
