<svg xmlns="http://www.w3.org/2000/svg" width="49.912" height="49.912" viewBox="0 0 49.912 49.912">
  <g id="Computer_Science" data-name="Computer Science" transform="translate(-630.044 -322)">
    <path id="Path_12132" data-name="Path 12132" d="M24.956,0A24.956,24.956,0,1,1,0,24.956,24.956,24.956,0,0,1,24.956,0Z" transform="translate(630.044 322)" fill="#9dac0d"/>
    <g id="Group_18097" data-name="Group 18097" transform="translate(165 -82.783)">
      <path id="Desktop" d="M21,2H3A2.006,2.006,0,0,0,1,4V16a2.006,2.006,0,0,0,2,2h7L8,21v1h8V21l-2-3h7a2.006,2.006,0,0,0,2-2V4A2.006,2.006,0,0,0,21,2Zm0,12.537H3V4H21Z" transform="translate(477.194 418)" fill="#fff"/>
      <path id="mouse" d="M5.823,1.07V2.953H7.24A1.818,1.818,0,0,0,5.823,1.07ZM4,4.377a1.776,1.776,0,0,0,1.62,1.9,1.776,1.776,0,0,0,1.62-1.9v-.95H4ZM5.418,1.07A1.818,1.818,0,0,0,4,2.953H5.418Z" transform="matrix(0.259, 0.966, -0.966, 0.259, 500.417, 434.959)" fill="#fff"/>
      <path id="Path_12139" data-name="Path 12139" d="M-1351.027-4583.979c23.159.393,9.823,1.891,13.1,2.52s-4.25,1.222-4.25,1.222" transform="translate(1842.638 5020.918)" fill="none" stroke="#fff" stroke-width="1"/>
    </g>
  </g>
</svg>
