<svg xmlns="http://www.w3.org/2000/svg" width="49.912" height="70" viewBox="0 0 49.912 70">
  <g id="Group_18474" data-name="Group 18474" transform="translate(-379.909 -294.574)">
    <text id="Tamil" transform="translate(390.365 361.574)" fill="#2e2e2e" font-size="14" font-family="BarlowSemiCondensed-SemiBold, Barlow" font-weight="600"><tspan x="0" y="0">Tamil</tspan></text>
    <g id="Tamil-2" data-name="Tamil" transform="translate(-6.635 -28.426)">
      <path id="Path_12132" data-name="Path 12132" d="M24.956,0A24.956,24.956,0,1,1,0,24.956,24.956,24.956,0,0,1,24.956,0Z" transform="translate(386.544 323)" fill="#f64361"/>
      <path id="Union_18" data-name="Union 18" d="M25.526,21.08l-.024,0-.024,0-.024,0-.024,0-.024-.006-.023,0-.023-.006-.023-.007-.022-.007-.022-.008-.022-.008-.022-.009L25.23,21l-.021-.01-.021-.01-.021-.01-.02-.012-.02-.012-.02-.013-.019-.013-.019-.012-.018-.014-.018-.014-.018-.015L25,20.851l-.018-.015-.017-.016-.016-.016-.016-.017-.016-.017-.016-.018-.015-.018-.014-.018-.014-.019-.014-.019-.013-.019-.012-.02-.012-.02-.012-.02-.012-.02-.011-.021-.01-.021-.01-.021-.009-.022-.009-.022-.008-.022-.008-.022-.007-.023-.007-.023-.006-.023-.006-.023,0-.024,0-.024c0-.008,0-.016,0-.024l0-.024c0-.008,0-.017,0-.024s0-.016,0-.024v-.024c0-.008,0-.017,0-.025s0-.016,0-.024V11.467H21.677v.007s0,0,0,.007v.061c0,.005,0,.01,0,.016V11.6s0,.01,0,.016l0,.015,0,.016c0,.005,0,.01,0,.015s0,.01,0,.015,0,.011,0,.016,0,.01,0,.016l0,.016,0,.015c0,.005,0,.01,0,.015l0,.016,0,.016,0,.015c0,.005,0,.011,0,.016s0,.011,0,.016l0,.016s0,.01,0,.015l0,.016,0,.016,0,.015s0,.01,0,.015l0,.016,0,.016,0,.016,0,.015c0,.005,0,.01,0,.015l0,.016,0,.016,0,.016,0,.015,0,.016,0,.016s0,.01,0,.016l0,.016c0,.005,0,.011,0,.016l0,.016,0,.015,0,.016c0,.005,0,.01,0,.016s0,.01,0,.016l0,.016,0,.015,0,.016,0,.016,0,.016c0,.005,0,.011,0,.016l0,.016,0,.016s0,.01,0,.015l0,.016,0,.015,0,.015,0,.016,0,.015,0,.016,0,.016,0,.016,0,.015,0,.016,0,.016s0,.01,0,.016l0,.016,0,.016,0,.016,0,.016,0,.016,0,.016,0,.015,0,.015,0,.015,0,.016,0,.016,0,.016,0,.016,0,.016,0,.016,0,.016,0,.015,0,.016,0,.016,0,.015,0,.015,0,.015,0,.016,0,.016,0,.015,0,.016,0,.016,0,.015,0,.015,0,.015,0,.016,0,.015,0,.016,0,.016,0,.015,0,.015,0,.015,0,.016,0,.016,0,.015,0,.015,0,.016,0,.016,0,.015,0,.015,0,.015,0,.016,0,.015,0,.015,0,.015,0,.016,0,.015-.005.015,0,.016,0,.016-.005.015,0,.014,0,.015,0,.015,0,.015,0,.015,0,.015,0,.016,0,.015-.005.014-.005.015,0,.016,0,.015-.006.015-.005.015,0,.015,0,.015-.006.015-.005.015-.005.016-.005.015-.005.015-.005.016-.005.015-.006.014-.005.015-.006.016-.005.015-.006.015,0,.015-.005.015-.006.015-.005.015-.006.014-.006.015-.006.015-.006.015-.006.015-.006.015-.005.015-.006.014-.006.015-.006.016-.006.015-.006.014-.006.015-.006.015-.006.016-.006.015-.007.015-.006.015L21,14.169,21,14.184l-.006.015-.006.016-.007.015-.006.014-.006.015-.006.016-.007.015-.006.015-.007.015-.006.016-.006.015-.006.015-.007.015-.006.014-.006.014-.007.015-.007.015-.007.015-.007.015-.007.014-.006.014-.006.014-.006.014-.007.015-.007.014-.006.014-.007.014-.007.014-.007.014-.007.015-.007.014-.007.014-.007.014-.007.014-.006.014-.007.014-.007.014-.007.014-.007.014-.007.014-.007.013-.007.014-.007.014-.007.014-.007.015-.007.014-.007.014-.007.013-.007.014-.007.014-.007.014-.007.013-.007.014-.008.014-.007.015-.007.014-.008.013-.007.014-.007.014-.007.014-.008.013-.007.014-.007.014-.008.013-.008.014-.007.014-.008.014-.007.014-.007.013-.008.014-.007.014-.007.013-.007.014-.008.014-.007.014-.008.014-.008.013-.008.014-.008.014-.007.013-.008.014-.008.014-.008.014-.008.014-.007.013-.008.013-.007.013-.008.013-.008.013-.008.013-.008.013-.008.013-.008.013-.008.013-.008.013-.008.013-.008.013-.008.013-.008.013-.008.013-.008.013-.008.014-.008.014-.008.013-.008.013-.009.013-.009.013-.008.014-.008.013-.008.013-.008.013-.009.012-.009.014-.008.013-.008.013-.009.013-.009.013-.008.013-.008.013-.009.013-.009.013-.009.013-.009.013-.009.012-.008.013-.009.013-.009.013-.01.013-.008.013-.009.013-.009.013-.009.013L20.008,16,20,16.014l-.009.013-.009.013-.009.013-.009.013-.009.013-.009.013-.009.013-.009.013-.009.013-.009.013-.009.012-.009.013-.009.013-.009.012-.009.012-.009.013-.009.013-.009.013-.01.012-.009.013-.009.012-.009.012-.009.012-.009.013-.01.012-.009.012-.009.013-.01.012-.009.012-.009.012-.009.012-.009.013-.01.013-.009.012-.009.012-.01.012-.01.013-.01.012-.009.012-.01.012-.01.013-.01.012-.01.012-.009.013-.01.013-.01.012-.01.012-.01.013-.01.012-.01.012-.01.012-.01.012-.01.012-.01.012-.01.012-.01.012-.01.013-.01.012-.01.013-.01.012-.01.013-.01.012-.01.012-.01.012-.01.012-.01.012-.01.012-.01.012-.01.012-.011.012-.01.012-.01.013-.01.012-.01.012-.011.012-.011.012-.011.012-.011.012-.01.012-.01.012-.01.012-.01.011-.011.012-.01.012-.011.012-.011.012-.011.012-.01.011-.011.012-.011.012-.011.012-.01.012-.011.012-.011.011-.011.011-.011.011-.011.012-.011.012-.011.011-.011.011L19,17.238l-.01.011-.011.011-.011.012-.011.012-.011.012-.011.011-.011.012-.011.012-.011.012-.011.012-.011.011-.011.011-.011.012-.012.011-.011.011-.011.012-.011.01-.012.011-.011.011-.011.011-.011.011-.012.011-.011.011-.011.011-.012.011-.011.011-.011.011-.011.011-.011.011-.011.01-.012.011-.012.011-.012.011-.011.011-.011.011-.012.011-.012.011-.012.011-.012.011-.012.011-.011.011-.012.01-.012.011-.012.011-.012.011-.012.01-.012.011-.012.011-.012.011-.012.01-.012.011-.012.01-.011.011-.012.01-.012.01-.012.01-.011.01-.012.011-.012.01-.012.011-.012.01-.012.011-.012.011-.012.011-.012.01-.012.01-.012.01-.012.01-.012.01L18.2,18l-.012.01-.012.01-.012.01-.012.01-.012.01-.012.01-.012.01-.012.01-.012.01-.012.01-.012.01-.012.01-.013.01-.012.011-.012.01-.012.01-.012.01-.012.01-.012.01-.012.01-.012.01-.012.01-.013.01-.012.01-.012.01-.012.01-.013.01-.012.01-.013.01-.012.01-.012.009-.012.01-.013.01-.012.01-.012.01-.013.009-.012.009-.013.009-.013.009-.012.01-.013.01-.013.01-.012.009-.013.01-.013.009-.012.01-.013.009-.012.009-.013.009-.013.009-.013.009-.013.01-.012.01-.013.009-.013.009-.013.01-.013.01-.013.009-.013.009-.013.009-.013.009-.013.009-.013.009-.013.008-.013.009-.013.009-.013.009-.013.009-.013.009-.013.009-.012.009-.014.008-.014.009-.013.009-.013.009-.013.008-.013.009-.013.009-.013.008-.013.009-.013.009-.013.009-.013.009-.013.008-.013.009-.014.009-.014.009-.013.009-.013.008-.013.009-.013.008-.014.009-.013.009-.013.009-.013.008-.014.008-.014.009-.014.009-.014.009-.013.009-.013.008-.014.008-.014.008-.013.009-.013.008L16.831,19l-.014.008-.013.008-.014.009-.014.008-.013.009-.014.009-.014.008-.014.008-.014.008-.013.007-.014.008-.014.008-.014.008-.014.007-.013.008-.013.008-.014.008-.014.008-.014.008-.014.008-.014.007-.014.008-.014.008-.014.007-.013.008-.014.008-.014.008-.014.008-.014.008-.014.008-.014.007-.014.008-.014.008-.014.007-.014.008-.015.007-.014.007L16.3,19.3l-.014.008-.014.008-.014.008-.014.007-.014.007-.014.008-.014.007-.014.008-.014.007-.014.007-.014.008-.014.007-.015.008-.014.007-.014.007-.014.007-.014.007-.014.007-.015.008-.014.007L16,19.457l-.014.007-.014.007-.014.007-.014.007-.014.007-.015.006-.014.008-.014.007-.014.007-.015.007-.014.007-.014.006-.014.007-.014.007-.015.007-.015.006-.014.006-.014.007-.015.007-.014.007L15.7,19.6l-.015.007-.015.007-.014.006-.015.007-.015.007-.015.007-.014.006-.015.006-.015.007-.015.007-.015.006-.015.006-.014.006L15.5,19.7l-.015.007-.015.007-.015.006-.015.006-.015.007-.015.007-.015.006-.015.005-.015.006-.015.006-.015.007-.015.007-.015.006-.015.006-.015.006-.015.006-.015.006-.015.006-.015.007-.015.006-.015.006-.015.007-.015.006-.016.005-.015.006-.015.006-.015.005-.016.006-.015.006-.015.006-.016.006-.016.007L15,19.9l-.016.006-.016.006-.016.005-.016.006-.016.006-.015.005-.016.006-.016.006-.016.006-.016.005-.016.006-.016.006-.016.006-.016.006-.016.006-.016,0L14.726,20l-.016.006-.016.006-.016,0-.016.006-.016.006-.016.006-.016,0-.016,0-.017.005-.016.005-.016.006-.016.006-.016.005-.016.005-.016,0-.016,0-.016.006-.016,0-.016.005-.016.005-.016,0-.016.005-.016.005-.016.005-.017.005-.016,0-.016,0-.016,0-.016.006-.016,0-.016,0-.016,0-.016,0-.016.006-.016,0-.016,0-.017,0-.016,0-.016,0-.016,0-.016,0-.017,0-.016,0-.017,0-.017,0-.016,0-.016,0-.016,0-.016,0-.017,0-.016,0-.016,0-.017,0-.016,0-.016,0-.016,0-.016,0-.017,0-.016,0-.016,0-.016,0-.017,0-.016,0-.017,0-.017,0-.016,0-.016,0-.017,0-.016,0-.017,0-.016,0-.017,0-.017,0-.016,0-.016,0-.017,0-.016,0-.017,0-.016,0-.017,0-.017,0-.016,0-.016,0-.017,0-.016,0-.017,0-.016,0-.017,0-.017,0-.016,0-.016,0-.017,0-.016,0-.016,0-.016,0-.016,0-.017,0-.016,0-.016,0-.016,0-.016,0-.016,0-.016,0-.016,0-.017,0-.017,0-.017,0-.016,0-.016,0-.017,0-.017,0-.017,0-.017,0-.017,0-.017,0-.017,0-.017,0-.017,0-.017,0-.017,0-.017,0-.017,0-.017,0-.017,0-.017,0-.016,0-.017,0-.017,0-.017,0-.017,0-.017,0-.017,0-.017,0-.017,0-.017,0-.017,0-.016,0-.017,0-.017,0-.017,0-.017,0-.017,0-.017,0-.017,0-.017,0-.017,0-.016,0-.016,0-.017,0-.017,0h-.017l-.017,0-.017,0-.017,0-.016,0-.017,0-.017,0-.017,0-.016,0H12.1l-.017,0-.017,0h-.05l-.017,0-.017,0h-.017l-.016,0h-.1l-.017,0-.017,0H9.906l-.017,0-.017,0h-.1l-.017,0H9.736l-.017,0-.016,0h-.05l-.016,0-.017,0H9.6l-.017,0-.017,0-.016,0-.017,0-.017,0-.017,0-.016,0-.017,0H9.454l-.016,0-.017,0-.017,0-.017,0-.017,0-.017,0-.017,0-.017,0-.016,0-.018,0-.017,0-.016,0-.017,0-.017,0-.017,0-.017,0-.017,0-.017,0-.017,0-.016,0-.017,0-.017,0-.017,0-.017,0-.017,0-.017,0-.017,0-.017,0-.017,0-.017,0-.017,0-.017,0-.017,0-.017,0-.017,0-.017,0-.017,0-.016,0-.017,0-.017,0-.017,0-.017,0-.017,0-.017,0-.017,0-.016,0-.016,0-.016,0-.017,0-.016,0-.017,0-.016,0-.016,0-.016,0-.016,0-.016,0-.017,0-.016,0-.016,0-.017,0-.016,0-.016,0-.017,0-.017,0-.016,0-.016,0-.017,0-.016,0-.017,0-.016,0-.017,0-.017,0-.016,0-.016,0-.017,0-.016,0-.017,0-.016,0-.017,0-.017,0-.016,0-.017,0-.017,0-.017,0-.016,0-.016,0-.017,0-.017,0-.016,0-.016,0-.016,0-.016,0-.016,0-.017,0-.017,0-.016,0-.017,0-.016,0-.016,0-.016,0-.016,0-.017,0-.017,0-.016,0-.017,0-.017,0-.016,0-.016,0-.017,0-.016,0-.016,0-.016,0-.016,0-.017,0-.016,0-.016,0-.016-.006-.016,0-.016,0-.016,0-.017-.005-.016,0-.016,0-.016,0-.016-.006-.016,0-.017,0-.016,0-.016-.005-.016-.005-.016,0-.016,0-.016-.006-.016,0-.016,0-.016-.006L7.2,20.072l-.017-.005-.016,0-.016-.006-.016-.005-.016-.005-.016,0-.016,0-.016-.006-.016-.006-.016-.006-.016,0-.016-.006L6.994,20l-.016-.006-.016,0-.016-.006-.016-.006-.016-.006L6.9,19.966l-.016-.006-.016-.005-.015-.006-.015-.006-.016-.006L6.8,19.931l-.015-.006-.015-.006-.016-.005-.016-.006L6.727,19.9,6.712,19.9,6.7,19.889l-.016-.006-.015-.006-.015-.006-.016-.006-.015-.005L6.6,19.853l-.015-.006-.015-.005-.016-.006-.015-.007-.015-.006-.015-.006L6.5,19.81,6.481,19.8,6.466,19.8l-.015-.006-.015-.006-.015-.006-.015-.006-.015-.007-.015-.007-.015-.006-.015-.006-.015-.005-.015-.006L6.3,19.728l-.015-.007-.015-.006-.015-.006L6.241,19.7,6.226,19.7l-.014-.006L6.2,19.682l-.015-.006-.015-.006-.015-.007-.015-.007-.014-.006-.014-.006-.015-.007-.015-.007-.015-.006-.014-.007-.014-.006L6.02,19.6,6.005,19.6l-.014-.006-.015-.006-.014-.008-.015-.007-.015-.006-.014-.007L5.9,19.548l-.015-.007-.015-.006-.015-.007-.014-.007-.014-.007-.014-.007L5.8,19.5l-.014-.006-.014-.007-.014-.007-.014-.007-.014-.007-.015-.007L5.7,19.45l-.014-.007-.014-.008-.014-.007-.015-.007-.014-.007-.014-.007L5.6,19.4l-.014-.008-.015-.007-.014-.008-.014-.007-.014-.007-.014-.008L5.5,19.346l-.014-.008-.014-.007-.015-.007-.014-.008-.014-.008L5.418,19.3,5.4,19.293l-.014-.007-.014-.007-.014-.008-.014-.007-.014-.008-.014-.008L5.3,19.239l-.015-.008-.013-.008-.014-.008-.014-.008L5.235,19.2l-.014-.008-.014-.007-.014-.008-.014-.008-.014-.007-.014-.008-.014-.008-.014-.008-.013-.008L5.1,19.119l-.014-.008L5.067,19.1,5.054,19.1l-.014-.008-.014-.008-.014-.007L5,19.063l-.014-.008-.014-.008-.014-.009-.013-.009-.013-.008-.013-.009L4.9,19.005,4.891,19l-.014-.009-.014-.008-.013-.009-.013-.008-.014-.008-.014-.008L4.8,18.939l-.014-.009-.014-.009-.013-.009L4.743,18.9,4.729,18.9l-.014-.009L4.7,18.878l-.014-.009-.013-.008-.013-.009-.013-.009-.014-.009-.013-.009-.013-.009-.014-.009L4.58,18.8l-.013-.009-.013-.009-.013-.009-.013-.008-.013-.009L4.5,18.746l-.013-.009-.013-.009-.013-.009-.013-.009L4.434,18.7l-.013-.009-.013-.009L4.4,18.674l-.013-.009-.013-.009-.013-.009-.013-.009-.013-.009-.013-.009L4.3,18.61,4.29,18.6l-.013-.009-.013-.01-.012-.009-.013-.009-.013-.009-.013-.01-.013-.01-.012-.009-.013-.009-.013-.01L4.149,18.5l-.013-.009-.013-.009-.013-.009L4.1,18.461l-.012-.01-.013-.009-.012-.01-.013-.01-.012-.01-.012-.01-.012-.009L4,18.385l-.012-.009-.012-.009-.012-.009-.013-.01-.013-.01-.012-.01-.013-.01L3.9,18.307l-.012-.01-.013-.01-.013-.01-.012-.01-.012-.01-.013-.01-.013-.01L3.8,18.229l-.013-.01-.013-.01L3.759,18.2l-.012-.01-.012-.01-.012-.01-.012-.01-.013-.01-.012-.01-.012-.01-.012-.01-.012-.01-.012-.01-.012-.01-.012-.01-.012-.01-.012-.01-.012-.01-.012-.01-.012-.01-.012-.011L3.526,18l-.012-.01-.012-.01-.012-.01-.012-.01-.012-.01-.012-.01-.012-.01-.012-.011-.012-.011-.012-.01-.012-.011-.012-.01-.012-.011-.011-.011-.012-.011-.012-.011-.012-.01-.011-.011L3.3,17.8l-.012-.011-.011-.01-.012-.011-.012-.011-.012-.01-.011-.01-.012-.011L3.2,17.718l-.012-.011-.012-.01-.012-.011-.012-.011-.012-.011-.012-.011-.012-.011-.012-.011L3.1,17.621l-.011-.011L3.077,17.6l-.011-.011-.012-.011-.012-.01-.011-.011-.011-.011-.011-.011L3,17.521l-.011-.011L2.974,17.5l-.011-.011-.012-.011-.011-.011-.011-.011-.011-.011-.011-.011L2.9,17.42l-.011-.012L2.873,17.4l-.011-.011-.011-.012-.011-.011-.011-.011-.011-.012-.011-.012-.011-.012-.011-.012L2.773,17.3l-.011-.012-.011-.012-.011-.012-.011-.011-.011-.011-.011-.011L2.7,17.216,2.686,17.2l-.011-.012-.011-.012-.011-.011-.011-.011-.011-.011-.011-.012-.011-.012-.01-.012-.01-.012-.011-.012-.011-.011-.011-.012-.01-.012-.01-.012-.011-.012-.011-.012L2.5,17.007,2.494,17l-.01-.012-.01-.012-.01-.012-.01-.012-.01-.012-.01-.012-.01-.012-.01-.012-.01-.013-.011-.012-.01-.012-.01-.012-.01-.012-.01-.012-.011-.012-.01-.012-.01-.012-.01-.012-.01-.012-.01-.013-.01-.012-.01-.013-.01-.012-.01-.013-.01-.012-.01-.012-.01-.012-.01-.012-.01-.012-.01-.012-.01-.012-.01-.012-.01-.013-.01-.012-.01-.012-.01-.013-.01-.013-.01-.012-.01-.012-.01-.013L2.08,16.5l-.01-.012-.009-.012-.009-.013-.01-.012-.009-.012-.01-.012-.01-.013L2,16.4l-.009-.012-.009-.012-.01-.012-.009-.012-.009-.013-.009-.012-.009-.012L1.93,16.3l-.009-.012-.009-.012L1.9,16.267l-.009-.013-.009-.012-.009-.013-.009-.013L1.857,16.2l-.009-.012-.009-.012-.009-.013-.009-.013-.009-.012L1.8,16.13l-.009-.013L1.785,16.1l-.009-.013-.009-.013-.009-.013-.009-.013L1.74,16.04l-.009-.013-.009-.013L1.713,16,1.7,15.989,1.7,15.976l-.009-.013-.009-.013-.008-.013-.009-.013-.009-.013L1.643,15.9l-.009-.013-.009-.012-.008-.013-.008-.013L1.6,15.833l-.009-.013-.009-.013-.009-.013-.009-.013-.008-.013-.008-.013-.008-.013-.008-.013-.009-.013L1.516,15.7l-.008-.013L1.5,15.676l-.008-.013-.008-.013-.009-.013-.008-.012-.008-.013L1.45,15.6l-.008-.014-.009-.013-.008-.013-.008-.013-.008-.013L1.4,15.519l-.008-.013-.008-.013-.008-.013-.008-.013-.008-.013-.008-.013-.008-.013-.008-.013L1.331,15.4l-.008-.013-.008-.013-.008-.013L1.3,15.347l-.008-.014-.008-.014-.008-.014-.007-.013-.008-.014-.007-.014-.008-.013-.008-.014-.008-.014-.008-.014L1.215,15.2l-.007-.013L1.2,15.171l-.007-.014-.008-.013-.008-.014-.007-.014L1.162,15.1l-.008-.014-.008-.013-.007-.014-.007-.014-.008-.013-.008-.014-.007-.014L1.1,14.993,1.1,14.98l-.007-.014-.008-.015-.007-.014-.007-.014-.007-.013L1.054,14.9l-.007-.014-.008-.014-.007-.013-.007-.014-.007-.014-.007-.015L1.006,14.8,1,14.786l-.007-.014-.007-.013-.007-.014-.007-.014-.006-.014L.958,14.7l-.007-.014-.007-.014-.007-.014-.007-.014-.007-.014L.918,14.62l-.007-.015L.9,14.591.9,14.578l-.007-.014L.885,14.55l-.007-.014-.006-.015-.006-.014L.86,14.494.853,14.48l-.007-.014L.84,14.451l-.006-.015-.007-.015-.007-.015-.006-.014-.007-.014L.8,14.363l-.007-.015-.007-.015-.007-.016L.775,14.3l-.007-.015-.006-.015-.006-.016L.75,14.243l-.007-.014-.006-.015L.731,14.2l-.006-.015-.006-.015-.006-.015L.707,14.14.7,14.125l-.006-.015-.006-.016L.683,14.08l-.007-.015L.67,14.051l-.005-.015L.659,14.02l-.006-.015-.006-.014-.006-.015-.006-.015L.63,13.947l-.005-.015-.006-.015L.613,13.9l-.006-.014L.6,13.873.6,13.858.59,13.843l-.006-.015-.006-.015L.573,13.8l-.005-.016-.006-.015,0-.014-.005-.015-.005-.016-.006-.015,0-.015-.005-.016-.005-.015,0-.015-.005-.015L.51,13.62l-.005-.015L.5,13.591l0-.015,0-.016,0-.015,0-.014,0-.015L.471,13.5l-.005-.015,0-.015,0-.015,0-.015,0-.015,0-.014,0-.015,0-.016,0-.016,0-.015,0-.015,0-.016,0-.015,0-.015,0-.015,0-.016,0-.015,0-.015,0-.015,0-.016,0-.016,0-.015,0-.015,0-.016,0-.016,0-.015,0-.015,0-.015,0-.016,0-.016,0-.015,0-.016,0-.015,0-.015,0-.015,0-.016,0-.016,0-.015,0-.016,0-.016,0-.015,0-.015,0-.015,0-.016,0-.016,0-.015,0-.016,0-.016,0-.016,0-.016,0-.016,0-.016,0-.016,0-.015,0-.015,0-.015,0-.016,0-.016,0-.016,0-.016,0-.016,0-.016,0-.016,0-.016,0-.016,0-.015,0-.016,0-.016,0-.016,0-.015,0-.016s0-.01,0-.015l0-.015,0-.016,0-.015,0-.016,0-.016,0-.016,0-.016c0-.005,0-.011,0-.016l0-.016,0-.015,0-.016,0-.016,0-.016,0-.016,0-.015c0-.005,0-.011,0-.016l0-.016,0-.016,0-.016,0-.016,0-.016,0-.015,0-.016,0-.016,0-.016,0-.015c0-.005,0-.01,0-.015l0-.016,0-.016c0-.005,0-.011,0-.016l0-.015,0-.015,0-.016,0-.016,0-.015,0-.016c0-.005,0-.011,0-.016s0-.011,0-.016l0-.015,0-.016,0-.016s0-.01,0-.015,0-.01,0-.015,0-.011,0-.016,0-.011,0-.016,0-.011,0-.016,0-.01,0-.015,0-.01,0-.015v-.016c0-.005,0-.01,0-.015s0-.011,0-.016,0-.011,0-.016,0-.01,0-.015,0-.01,0-.015,0-.01,0-.016v-.048c0-.005,0-.01,0-.015v-.095c0-.005,0-.011,0-.016s0-.01,0-.015,0-.011,0-.016v-.031c0-.005,0-.011,0-.016s0-.011,0-.016v-.031c0-.005,0-.011,0-.016s0-.011,0-.016,0-.011,0-.016,0-.011,0-.016,0-.01,0-.015,0-.011,0-.016v-.016s0-.01,0-.016,0-.011,0-.017v-.047c0-.005,0-.011,0-.016s0-.011,0-.016,0-.011,0-.016,0-.011,0-.016v-.016c0-.005,0-.011,0-.016s0-.011,0-.016v-.032c0-.005,0-.011,0-.016s0-.011,0-.016v-.031c0-.005,0-.011,0-.016s0-.011,0-.017S0,10.8,0,10.8V10.78c0-.005,0-.011,0-.016s0-.01,0-.016v-.015c0-.005,0-.011,0-.016V10.7c0-.005,0-.011,0-.016v-.167c0-.008,0-.016,0-.024v-.024c0-.008,0-.016,0-.023s0-.016,0-.023,0-.016,0-.024l0-.024,0-.023,0-.023.005-.023.006-.022.006-.022.007-.022.007-.022L.063,10.2l.009-.021.009-.02.009-.021.01-.021.011-.02.011-.019.012-.019.012-.019.012-.018.012-.019.013-.019L.2,9.971l.014-.018.014-.017L.24,9.92.255,9.9l.016-.016.015-.015L.3,9.858l.017-.015.017-.014.017-.014L.371,9.8l.018-.013.019-.013.018-.012.019-.011L.464,9.74l.02-.01L.5,9.719l.02-.01L.543,9.7l.021-.009.021-.009.021-.008.021-.007L.648,9.66l.022-.007.022-.006.022-.006.023,0,.023-.005.023,0,.023,0,.023,0,.023,0h18.9c0-.014,0-.027-.005-.042l-.006-.041-.006-.041c0-.014,0-.027-.006-.041l-.007-.042-.007-.042-.007-.042-.007-.042L19.7,9.242,19.691,9.2l-.008-.042-.008-.042-.009-.041-.008-.041-.009-.042L19.64,8.95l-.009-.041-.009-.042-.01-.041-.01-.042-.011-.042-.01-.041-.011-.041-.011-.041-.011-.042-.011-.042-.011-.042-.012-.041L19.5,8.411l-.012-.041-.013-.041-.013-.04-.012-.041-.013-.041-.013-.041-.014-.04L19.4,8.084l-.014-.041L19.371,8l-.014-.04-.014-.04-.015-.04-.015-.039L19.3,7.8l-.015-.04-.015-.039-.015-.039-.016-.039-.016-.04L19.2,7.569l-.016-.039-.017-.038-.017-.038-.017-.039-.017-.038L19.1,7.338,19.086,7.3l-.018-.039-.018-.038-.018-.038-.019-.037L19,7.109l-.019-.038-.019-.038L18.939,7l-.019-.037-.02-.037-.02-.038-.02-.038-.02-.037-.02-.037L18.8,6.735,18.779,6.7l-.021-.037-.021-.037-.022-.037L18.7,6.551l-.022-.036-.022-.036-.022-.036-.022-.036-.022-.036-.023-.036L18.541,6.3l-.023-.035-.023-.036-.023-.035-.024-.036-.024-.036L18.4,6.084l-.024-.035-.024-.035-.024-.034L18.3,5.944l-.025-.034-.025-.035-.025-.035L18.2,5.805l-.025-.034-.025-.034L18.125,5.7,18.1,5.669l-.026-.034L18.047,5.6l-.026-.034-.027-.034L17.966,5.5l-.027-.034-.027-.032L17.885,5.4l-.027-.033-.028-.032L17.8,5.3l-.028-.032-.028-.032-.028-.033-.028-.032-.029-.032-.029-.031L17.6,5.077l-.029-.031-.029-.031-.029-.031-.03-.031-.03-.031-.03-.03-.03-.031-.03-.03-.03-.031-.03-.03-.031-.03-.031-.03-.031-.029L17.18,4.65l-.031-.03-.032-.03-.031-.029-.032-.028L17.022,4.5l-.033-.029-.032-.029-.032-.028-.032-.028-.033-.028-.033-.028L16.8,4.306l-.033-.027-.034-.027L16.7,4.223,16.662,4.2l-.034-.027-.034-.027-.034-.027-.034-.026-.034-.026-.035-.026-.035-.026-.035-.026-.035-.026-.035-.025-.035-.026-.035-.025-.036-.025-.035-.025-.035-.025-.036-.025-.036-.024-.036-.024L16,3.708l-.037-.024-.037-.024-.037-.024-.037-.024-.037-.024-.037-.024-.038-.023L15.7,3.517l-.038-.024-.038-.024-.038-.023-.038-.022L15.508,3.4l-.039-.022-.039-.023-.036-.02-.036-.021-.036-.02-.036-.02-.036-.02-.037-.02-.036-.02L15.139,3.2,15.1,3.183l-.037-.019-.037-.019-.037-.019-.036-.019-.037-.019-.038-.018-.037-.018,0,.007,0,.007,0,.007,0,.008,0,.007,0,.007,0,.007,0,.007,0,.007,0,.007,0,.007,0,.007,0,.007,0,.007,0,.007,0,.007.008.024.008.023.008.024.007.023.007.023.007.024.007.023.007.024.006.024.006.024.006.023.006.023.007.024.006.024.005.023,0,.024.005.024L15,3.586l0,.024c0,.008,0,.017,0,.024l0,.024,0,.024,0,.024,0,.024,0,.024,0,.024,0,.024,0,.024,0,.024c0,.008,0,.016,0,.024l0,.024c0,.008,0,.016,0,.024l0,.024c0,.008,0,.016,0,.024s0,.016,0,.024l0,.024c0,.008,0,.016,0,.024v.071c0,.008,0,.017,0,.024s0,.017,0,.024v.024c0,.008,0,.016,0,.024s0,.016,0,.024,0,.016,0,.024v.024c0,.008,0,.016,0,.024s0,.016,0,.024v.024c0,.008,0,.016,0,.024s0,.016,0,.024,0,.016,0,.024v.024c0,.008,0,.016,0,.024s0,.016,0,.024v.073c0,.008,0,.016,0,.024l0,.024c0,.008,0,.016,0,.024s0,.016,0,.024l0,.024c0,.007,0,.015,0,.023l0,.024,0,.024,0,.024,0,.024,0,.024,0,.024,0,.024c0,.008,0,.016,0,.023l0,.024,0,.024,0,.024L15,5l0,.024-.005.024-.005.024,0,.024-.005.024-.006.024-.007.023-.006.023-.006.024-.006.024-.006.023-.007.024-.007.024-.007.023-.007.023-.007.023-.008.024-.008.023-.008.024-.008.023-.008.023-.008.023-.008.023-.008.023-.009.023-.009.023-.009.023-.009.023-.01.023-.01.023-.01.023-.01.023-.01.023-.01.023-.01.023-.01.022-.01.021-.011.021-.011.021-.011.021-.011.022-.011.021-.011.021-.011.022-.011.021-.012.021-.012.021-.012.02-.012.021-.012.021-.012.02-.012.02-.013.021-.013.021-.012.02-.013.02-.013.02-.013.02-.013.02-.013.021-.013.02-.013.019-.013.02-.014.02-.014.02-.014.02-.015.019-.014.019-.014.02-.014.02-.015.019-.015.019-.015.019-.015.018-.015.018-.016.018-.016.019-.016.019-.016.019-.016.018-.017.018-.016.018-.016.018-.017.018-.017.019-.016.018-.017.017-.017.018L14,6.852l-.017.018-.017.017-.018.017-.018.018-.018.017-.018.017-.018.017-.018.017L13.838,7l-.019.017-.019.016-.019.017-.019.016-.019.016-.019.016-.019.016-.019.016-.019.016-.019.016-.019.016-.019.015-.02.015-.02.016-.02.015-.02.015-.02.014-.02.015-.02.015-.02.015-.02.015-.021.014-.021.014-.021.014-.021.013L13.33,7.4l-.021.014-.021.014-.021.013-.021.013-.021.013-.021.014-.022.014-.021.012-.021.013-.022.013-.022.012-.022.012-.022.013-.022.013-.022.012-.022.012-.022.011-.022.011-.023.012L12.9,7.65l-.023.011-.023.012-.022.011-.023.011-.023.011-.023.011-.023.011-.024.011-.023.01-.023.01-.023.01-.024.01-.024.01-.024.01-.023.009-.024.01-.024.009-.024.009-.024.009-.025.009-.025.01-.025.009-.025.01-.025.009-.025.008-.025.009-.024.008-.025.008-.025.008-.025.007-.025.008-.025.007-.025.008-.025.007-.025.007-.026.007-.026.007L11.98,8,11.955,8l-.026.006-.026.006-.026.006-.026.006-.025.005-.026.006-.026.006-.026.005-.025.005-.026,0-.026,0-.026,0-.026,0-.026,0-.026,0-.026,0-.026,0-.026,0-.026,0-.026,0-.026,0-.026,0-.027,0-.027,0-.026,0-.026,0-.026,0-.026,0-.027,0h-.026l-.027,0-.027,0-.026,0-.026,0h-.538l-.027,0-.026,0-.027,0-.026,0h-.026l-.026,0-.027,0-.027,0-.026,0-.026,0-.027,0-.027,0-.026,0-.026,0-.026,0-.026,0-.026,0-.026,0-.026,0-.026,0-.026,0-.026,0-.025,0-.026,0-.026,0-.026-.005-.025-.005-.026-.006-.026-.006-.026-.005L9.71,8.022l-.025-.006L9.659,8.01,9.633,8,9.607,8,9.582,7.99l-.026-.007L9.53,7.977,9.5,7.969,9.48,7.962l-.025-.008-.025-.007L9.4,7.939l-.025-.007-.025-.008-.025-.008L9.3,7.907,9.278,7.9l-.025-.008-.025-.009L9.2,7.872l-.025-.009-.025-.01-.025-.009L9.1,7.835,9.08,7.826l-.024-.009-.024-.01L9.009,7.8l-.024-.01-.024-.01-.023-.01-.023-.01-.024-.01-.023-.01-.023-.011-.023-.011L8.8,7.7l-.023-.011-.023-.011-.023-.011L8.71,7.66,8.688,7.65l-.022-.012-.023-.012-.022-.011L8.6,7.6l-.022-.012L8.554,7.58l-.022-.013-.022-.013-.022-.012-.022-.012-.022-.013-.022-.013L8.4,7.493l-.021-.014-.021-.014L8.34,7.452l-.021-.013L8.3,7.426l-.021-.014L8.256,7.4l-.021-.014-.021-.013-.021-.014-.02-.014-.02-.014-.02-.015L8.114,7.3l-.02-.015-.02-.015-.02-.014-.02-.015-.02-.015L8,7.21,7.976,7.2l-.019-.015-.019-.016-.019-.016L7.9,7.133l-.019-.016L7.861,7.1l-.019-.016-.019-.016L7.8,7.053l-.018-.017-.018-.016L7.749,7l-.018-.017L7.713,6.97,7.7,6.953l-.018-.017L7.66,6.92,7.642,6.9l-.018-.017-.018-.017-.017-.018-.017-.018-.017-.018L7.539,6.8l-.017-.018-.017-.019-.016-.018-.017-.018-.016-.018-.016-.018-.016-.018-.016-.019-.016-.019-.016-.019L7.362,6.6l-.016-.018-.015-.018-.015-.019L7.3,6.526l-.015-.019-.015-.02-.015-.02L7.243,6.45l-.015-.019-.014-.02L7.2,6.392l-.014-.02-.014-.02L7.16,6.334l-.013-.02-.013-.021-.014-.02-.013-.02-.013-.02-.012-.02-.013-.02-.013-.021-.013-.021-.012-.02-.012-.02-.012-.021-.012-.021-.012-.02-.012-.021L6.959,6.01,6.947,5.99l-.011-.022-.011-.021-.011-.021L6.9,5.906l-.01-.021-.011-.021-.011-.021-.01-.021L6.851,5.8,6.84,5.777l-.01-.023-.01-.022-.01-.022L6.8,5.688l-.01-.023-.01-.022-.009-.023L6.763,5.6l-.009-.023-.009-.022-.009-.023-.008-.023-.008-.023-.008-.023L6.7,5.44,6.7,5.417,6.69,5.394l-.007-.023-.008-.023-.008-.024L6.66,5.3l-.007-.024-.007-.023L6.64,5.232l-.006-.023-.006-.024-.006-.024-.006-.024L6.61,5.115,6.6,5.093l0-.023-.005-.024-.005-.024,0-.024c0-.008,0-.016,0-.024s0-.016,0-.024l0-.024,0-.024,0-.024,0-.024,0-.024c0-.008,0-.016,0-.024l0-.024,0-.024,0-.024,0-.024,0-.024c0-.008,0-.016,0-.024l0-.024c0-.008,0-.016,0-.024s0-.016,0-.024,0-.016,0-.024V4.521c0-.008,0-.016,0-.024s0-.016,0-.024,0-.016,0-.024,0-.016,0-.024V4.4c0-.008,0-.016,0-.024s0-.017,0-.024,0-.017,0-.024V4.278c0-.008,0-.017,0-.024s0-.016,0-.024,0-.016,0-.024V4.182c0-.008,0-.017,0-.024s0-.016,0-.024,0-.016,0-.024,0-.016,0-.024V4.036c0-.008,0-.016,0-.024s0-.017,0-.024,0-.017,0-.024l0-.024c0-.008,0-.016,0-.024l0-.024,0-.024,0-.024,0-.024,0-.024c0-.008,0-.016,0-.024l0-.024,0-.024,0-.024,0-.024,0-.024c0-.008,0-.016,0-.024l0-.023,0-.024.005-.024L6.6,3.538l0-.024.005-.024.006-.024.006-.024.006-.024L6.634,3.4l.006-.024.007-.023.007-.023L6.66,3.3l.007-.023.008-.023.008-.023.007-.023L6.7,3.19,6.7,3.168l.008-.024.008-.023L6.729,3.1l.008-.023.009-.023.009-.023.009-.023.009-.022.009-.024.01-.023.01-.022.01-.022.01-.023.01-.023.01-.022.011-.022.011-.022.01-.022.011-.022.011-.022L6.9,2.7l.011-.021.011-.021.011-.022.011-.021L6.959,2.6l.012-.021.012-.021.012-.021.012-.021.012-.021.012-.021.012-.02.012-.021.013-.02.012-.02.013-.021.013-.02.013-.02.013-.02.013-.02.013-.02.013-.019.013-.019.014-.02.014-.02.014-.019.015-.019.014-.02.015-.02L7.287,2.1,7.3,2.082l.014-.019.015-.019.015-.019.016-.019.015-.018.016-.019.016-.018.016-.018.016-.018L7.456,1.9l.016-.018.017-.018.016-.018.017-.018.017-.018.017-.018.017-.017.017-.018.017-.018.018-.018L7.642,1.7l.018-.018.018-.018L7.7,1.652l.018-.017.018-.017L7.749,1.6l.019-.016.019-.017L7.8,1.553l.018-.016.019-.016L7.861,1.5l.019-.017L7.9,1.472l.019-.015.02-.016.019-.016.019-.015L8,1.4l.02-.015.02-.015.02-.016.02-.015.02-.015.02-.015.02-.015.02-.015.021-.014L8.2,1.249l.021-.014.021-.014.021-.013.021-.014L8.3,1.18l.021-.013.021-.013.021-.013.021-.013L8.4,1.115,8.425,1.1l.021-.013.021-.013.021-.013.022-.012.022-.013.022-.012.022-.011L8.6,1,8.621.992,8.643.98,8.665.968,8.688.957,8.71.946,8.733.935,8.755.923,8.778.913,8.8.9,8.823.891l.023-.01L8.87.871,8.893.86l.023-.01L8.939.84l.023-.01L8.986.82l.024-.01L9.033.8,9.056.79,9.08.781,9.1.772,9.128.762,9.153.753l.025-.01L9.2.734,9.228.726,9.252.717,9.277.708,9.3.7,9.326.692,9.352.683,9.377.676,9.4.668,9.428.66,9.453.652,9.478.644,9.5.637,9.529.63,9.554.623,9.58.616,9.605.61,9.631.6,9.657.6,9.682.59,9.708.585,9.734.579,9.76.573,9.786.567l.026,0L9.837.556l.025,0,.026,0,.026,0L9.941.536l.026,0,.026,0,.026,0,.026,0,.026,0,.026,0,.026,0,.027,0,.026,0L10.2.5l.026,0,.026,0,.026,0,.027,0,.027,0,.026,0,.027,0,.026,0,.027,0,.027,0,.026,0,.027,0h.562l0,0,0,0,0,0,0,0,0,0,0,0h0l0,0,0,0h.642l.017,0h.066l.017,0h.049l.017,0h.116l.017,0,.016,0h.017l.017,0h.032l.017,0,.016,0,.017,0,.016,0h.033l.016,0h.016l.017,0,.016,0,.017,0,.016,0,.017,0,.017,0,.016,0,.016,0h.017l.016,0,.017,0,.016,0,.017,0,.017,0,.016,0,.016,0,.017,0,.016,0,.017,0,.016,0,.017,0,.017,0,.017,0,.016,0,.017,0,.017,0,.016,0,.016,0,.016,0,.016,0,.017,0,.017,0,.016,0,.016,0,.017,0,.016,0,.016,0,.016,0,.017,0,.016,0,.017,0,.017,0,.016,0,.016,0,.016,0,.016,0,.017,0,.016,0,.016,0,.017,0,.016,0,.016,0,.016,0,.017,0,.016,0,.016,0,.017,0,.016,0,.016,0,.016,0,.016,0,.016,0,.016,0,.016,0,.016,0,.016,0,.016,0,.016,0,.017,0,.016,0,.016,0,.016,0,.016,0,.016,0,.016,0,.016,0,.016,0,.017,0,.016,0,.016,0,.016,0,.016,0,.016,0,.016,0,.016,0,.016,0,.017,0,.016,0,.016,0,.016,0,.016,0,.016,0,.016,0,.016,0,.017,0,.016,0,.016,0,.016,0,.016,0,.016,0,.016,0,.016,0,.016,0,.017,0,.017,0,.016,0,.016,0,.016,0,.016,0,.016,0,.016,0,.016,0,.016,0,.016,0,.017,0,.016,0,.016,0,.016,0,.016,0,.016,0,.016,0L14.2.9,14.215.9l.016,0,.016,0,.016,0,.016,0,.016,0,.016,0,.016,0,.015,0,.015,0,.016,0,.016.005L14.4.963l.015,0,.015,0,.016,0,.016,0,.016,0L14.5.993,14.514,1,14.53,1l.015,0,.015,0,.016,0,.016.006.016.005.016.005.015.006.016.006.016,0,.016,0,.016.005.015.005.015.006.016.006.016.005.015.005L14.8,1.1l.016.006.015.005.016.005.016.006.015.006.015.005.016.006.015.006.016.006.016.006.016.006.015.006L15,1.171l.015.006.016.007.015.006.015.006.016.006.015.005.015.006.016.006.015.007.016.007.015.006.015.006.015.006.015.006.015.006.015.006.014.005.015.006.015.006.015.006.014.006.015.007.015.006.015.006.014.006.015.006.015.007.015.006.014.006.015.007.015.006.015.006.015.006.015.006.015.006.015.007.015.007.014.005.014.006.014.006.014.007.015.007.014.006.015.007.015.007.015.007.015.006.015.006.015.007.014.007.014.007.014.006.015.007.014.007.014.006.015.007.014.007.014.007.015.007.014.007.014.008.015.007.014.007.014.007.014.007.015.007.014.007L16,1.612l.014.007.014.007.015.007.015.007.014.007.014.007.014.007.014.007.014.007.014.008.014.007.014.007.014.007.014.007.014.007.014.008.014.007.014.008.014.007.013.007.014.007.014.007.014.008.014.008.014.008.014.007.013.008.013.008.014.007.014.008.014.007.014.007.014.008.014.008.014.008.014.007.013.007.014.008.014.008.014.008.014.008.013.009.014.008.014.008.013.008.014.007.014.008.014.008.014.008.013.007L16.706,2l.014.008.013.008.014.008.014.008.014.008.014.009.013.009.013.008.014.009.014.008.013.007.014.008.014.008.013.008.013.008.013.009.013.008.014.009.013.009.013.008.013.009L17,2.183l.014.008.014.009.014.009.014.009.013.009.013.009.014.009.014.009.013.009.013.009.013.009.013.008.013.009.014.009.014.009.013.009.013.008.013.009.013.009.013.008.013.009.013.009.013.009.013.008.012.009.013.009.013.009.013.008.013.009.013.009.013.009.012.008.013.009.013.009.013.009.013.009.012.009.013.009.012.009.012.009.013.009.013.01.013.009.012.01.013.01L17.6,2.6l.012.01.012.009.012.009.013.009.013.009.012.009.012.009.012.01.012.009.013.01.012.009.012.01.012.01.012.009.012.01.012.009.012.01.012.009.012.009.012.009.012.009.012.009.012.009.012.01.012.01.012.01.012.009.012.01.012.01.012.01.012.009.012.01L18,2.91l.012.01.012.01.012.01.012.01.012.01.012.01.012.01.012.01.012.01.012.01.012.01.012.01.012.01.012.01.012.01.012.01.012.01.012.01.012.01.012.01.012.01.012.011.012.01.012.011.012.01.012.01.012.011.012.011.012.011.012.011.012.011.012.011.012.011.012.01.012.011.012.01.012.011.012.011.012.011.012.011.012.01.012.011.012.011.012.012.012.011.011.01.012.011.012.011.012.012.011.011.011.011.011.011.011.011.012.01.012.011.011.011.012.011.011.01.011.011.011.011.011.012.011.011.011.011.011.011.011.011.011.011.011.012.011.011.011.011.011.011.011.011.011.011.012.011.011.011.011.011.011.011.011.011.011.011.011.011.011.011.011.011.011.011.011.011.011.011.011.011L19,3.837l.011.011.011.012.011.012.011.011.01.011.011.011.011.011.011.011.01.012.011.012.011.012.01.012.01.012.01.011.011.012.011.012.011.012.011.012.01.012.01.011.01.011.01.011.011.012.01.011.01.012.01.012.01.012.01.012.01.011.01.011.011.012.01.012.01.012.01.012.01.011.01.012.01.012.01.012.01.012.01.012.01.011.01.011.01.012.01.012.01.013.01.012.01.011.01.012.01.012.01.012.009.012.01.012.01.012.01.013.009.012.011.012.01.012.01.012.009.012.01.012.01.012.01.012.009.012.009.012.01.012.01.013.01.012.009.013.009.013.01.013.009.012.009.013.01.012.009.012.01.013.009.012.01.012.009.012.009.013.009.012.009.012.01.012.009.013.009.012.009.013.009.013.009.012.009.013.009.013.009.013.009.012.009.012.009.013.009.013.009.013.009.012L19.955,5l.009.013.009.013.009.012.009.013L20,5.064l.009.013.009.012.008.013.009.013.009.013.008.012.009.013.009.013.008.013.008.012.009.013.009.013.009.013.008.013.009.013.009.013.008.013.008.013.009.013.009.013.008.014.008.012.008.013.008.013.008.013.009.013.008.013.008.013.009.013.008.013.008.013.008.013.008.014.008.013.008.013.008.013.008.013.008.014.008.013.008.013.008.013.007.013.008.013.008.013.008.013.008.013.008.014.008.014L20.4,5.7l.008.013.007.013.008.013.007.013.007.013.007.014.008.014.007.013.007.013.008.013.007.013.008.013.008.013.007.014.007.014.008.013.008.014.007.014.007.013.007.013.008.014.007.014.007.014.008.014.008.013.007.014.007.014.007.013.007.013.007.014.007.014.007.014.007.013.007.014.007.014.007.013.007.014.007.014.007.014.007.014.007.014.007.014.007.014.007.014.007.014.007.013.006.014.007.014.007.014.007.014.007.014.007.013.007.014.007.014.007.015.007.014.006.014.007.014.007.014.007.014.007.014.006.015.006.014.006.014.007.014.007.014.006.015.007.014.006.014.006.014.006.014.007.014.007.014.006.015.006.015.006.014.007.015.006.015.006.014.006.015.007.015.006.015.006.015.006.015.006.014.006.015L21,6.9,21,6.916l.006.015.006.014.006.014.006.015.006.015L21.04,7l.006.014.006.015.006.015.006.015.006.015.006.014.006.015.006.016.005.015.006.014.006.015.006.015.005.016.006.015.006.015.006.015.005.015.006.015,0,.016.005.015.005.015.006.015.006.015.005.016.005.015.005.015,0,.015.005.016.005.016.006.015,0,.015,0,.016.005.015.005.015,0,.015.005.016.005.016,0,.015.005.015.005.015,0,.016,0,.015,0,.015,0,.015,0,.015,0,.015,0,.015,0,.016,0,.016,0,.015,0,.015,0,.015,0,.015,0,.014,0,.015,0,.016,0,.016,0,.015,0,.015,0,.016,0,.016,0,.015,0,.015,0,.015,0,.016,0,.015,0,.015,0,.015,0,.015,0,.015,0,.015,0,.016,0,.016,0,.015,0,.015,0,.016,0,.016,0,.015,0,.015,0,.016,0,.015,0,.015,0,.015,0,.016,0,.016,0,.015,0,.015,0,.016,0,.016,0,.015,0,.015,0,.016,0,.016,0,.015,0,.015,0,.016,0,.016,0,.015,0,.015,0,.015,0,.016,0,.016,0,.015,0,.016,0,.015,0,.015c0,.005,0,.01,0,.015l0,.015,0,.015,0,.015,0,.016s0,.01,0,.015,0,.01,0,.015l0,.015,0,.016,0,.016,0,.015,0,.015,0,.016,0,.015,0,.015,0,.015c0,.005,0,.011,0,.016s0,.011,0,.016l0,.016,0,.016,0,.015c0,.005,0,.011,0,.016l0,.016,0,.015,0,.016L21.6,9l0,.015,0,.016,0,.015,0,.016,0,.016,0,.015,0,.016,0,.016,0,.015,0,.015,0,.016s0,.01,0,.016l0,.016s0,.01,0,.015l0,.015,0,.016,0,.016,0,.016c0,.005,0,.01,0,.015l0,.016,0,.016,0,.016V9.36c0,.005,0,.011,0,.016l0,.016,0,.015c0,.005,0,.011,0,.016s0,.01,0,.016v.016c0,.005,0,.011,0,.016s0,.01,0,.015l0,.016c0,.005,0,.011,0,.016s0,.011,0,.016,0,.011,0,.016V9.58s0,.01,0,.015v.011a.048.048,0,0,0,0,.006.034.034,0,0,0,0,.005h2.988V.96c0-.008,0-.016,0-.024s0-.016,0-.024V.886c0-.008,0-.016,0-.024s0-.016,0-.024,0-.017,0-.024l0-.024,0-.024,0-.024L24.7.719,24.7.7l.007-.022.007-.023L24.724.63l.008-.022.009-.022L24.75.565l.01-.022.01-.021L24.781.5l.012-.02L24.8.462l.012-.02.012-.019L24.842.4l.014-.019L24.87.367,24.884.35,24.9.332l.016-.017L24.93.3l.016-.017.016-.016L24.98.249,25,.234,25.015.22,25.033.2,25.051.19l.018-.014.019-.013.019-.012.02-.013.02-.012.02-.011.021-.01L25.209.1l.021-.01.022-.01.022-.009.022-.008.022-.007.022-.008.023-.006L25.385.03l.023-.006.024,0,.024,0,.024,0,.024,0,.024,0,.024,0H25.7l.025,0,.023,0,.024,0,.024,0,.024,0,.024,0,.023.006.023.007.022.006.023.008.022.007.022.008L26,.076l.021.01.021.01.021.01.021.01L26.1.127l.02.012.02.013.019.012.019.013L26.2.19,26.218.2l.017.015.018.014.018.015.017.016L26.3.281,26.319.3l.016.017.015.017.014.018.015.018.014.019L26.408.4l.013.019.012.019.012.02.012.021.012.02.011.021.011.021.01.022.01.021.009.022.008.022.008.023.007.023L26.548.7l.006.023.006.023,0,.024,0,.024,0,.024c0,.008,0,.016,0,.024s0,.016,0,.024,0,.016,0,.024,0,.016,0,.024V.935c0,.008,0,.017,0,.024V20.126c0,.008,0,.016,0,.024v.025c0,.008,0,.016,0,.024s0,.016,0,.024,0,.016,0,.024l0,.024c0,.008,0,.016,0,.024l0,.024,0,.024-.006.023-.006.023-.007.023-.007.023-.008.022-.008.022-.009.022-.01.022-.01.021-.011.021-.011.021-.012.02-.012.02-.012.02-.012.02-.013.019-.014.019-.014.019-.015.018-.014.018-.015.018-.016.017L26.3,20.8l-.016.016-.017.016-.018.015-.018.015-.017.015L26.2,20.9l-.019.014-.019.012-.019.013-.02.013-.02.012-.021.012-.021.01-.021.01L26.02,21,26,21.01l-.022.009-.022.008-.022.008-.023.007-.022.007-.023.006-.023,0-.024.006-.024,0-.024,0-.024,0-.023,0-.025,0-.025,0h-.1l-.024,0ZM1.942,11.487c0,.018,0,.035.006.053l.006.052c0,.018,0,.035.006.053s0,.035.007.052l.007.052.007.052c0,.018,0,.035.008.052L2,11.906l.009.052.009.052.009.051.009.052.01.052.01.052.01.051.011.051.011.051.012.051.012.051.012.051.012.051.013.052.013.051.014.05.013.052.014.051.015.05.015.051.015.05.016.051.016.051.017.05.017.049.017.05.017.05.018.049.018.05.018.05.019.05.019.05.02.05.02.049.02.049.021.049.021.049.021.049.021.049.022.049.022.048.022.047.022.047.022.047.023.047.023.046.023.046.023.047.024.046.024.046.024.046.024.046.024.046.025.045.025.045.025.045L3,14.711l.026.045.027.045.027.044.026.044.027.044.027.044.028.043.028.043.028.044.028.043.029.043.029.043.03.043.03.043.03.042.03.042.03.042.031.042.031.042.031.042.032.041.032.041.033.041.032.04.033.04.033.04.034.041.033.04.034.04.034.04.034.039.035.039.035.04.035.039.035.038.036.038.036.039.036.038.037.037.037.038L4.3,16.4l.037.038.037.038.037.036.038.037.038.037.039.037.038.035.039.036.039.036.04.036.039.036.04.035.04.034.04.035.04.035.04.034.041.034L5,17.042l.041.033.041.033.041.033.041.032.042.033.042.032.042.032.042.031.042.031.043.031.043.031.043.031.043.031.044.03.044.03.043.029.044.029.045.028.045.029.044.029.045.028.045.028.045.028.045.027.046.028.046.026.046.026.047.026.046.026.046.026.046.025.047.025.047.025.047.025.047.024.047.024.047.024.047.024.048.024.048.024.048.024.048.023.048.023.049.023.049.022.049.022.049.022.049.021.05.022.05.021.05.021.05.02.052.021.052.021.052.02.052.019.052.019.053.019.053.019.052.018.052.018.053.018.053.018L8,18.663l.053.017.053.017.053.016.053.016.053.015.053.016.054.015.053.014.054.014.054.014.054.014.054.013.054.013.054.012.054.012.054.011.055.012.054.011.054.011.054.01.054.01.055.01.055.01.055.009.055.01.055.008L9.464,19l.055.007.055.008.055.007.055.007.055.007.056.007.056.006.055,0,.055.006.056.006.056,0,.056,0,.056,0,.055,0,.056,0,.056,0,.056,0,.056,0,.056,0,.056,0,.056,0h.452l.056,0,.056,0,.056,0,.056,0,.056,0,.056,0,.056,0,.056,0,.056,0,.056,0,.056,0,.056-.006.056-.006.056,0,.056-.006.056-.007.055-.007.055-.007.055-.007.055-.008L12.258,19l.055-.008.055-.008.055-.01.055-.009.055-.01.055-.01.055-.01.054-.01.054-.011L12.8,18.9l.054-.012.054-.011.054-.012.054-.012.054-.013.054-.013.054-.014.054-.014.053-.014.054-.014.054-.015.054-.016.053-.015.053-.016.053-.016.053-.017.053-.017.052-.017.053-.018.053-.018.052-.018.053-.018.052-.019.052-.019.052-.019.052-.019.052-.02.052-.021.052-.021.05-.02.05-.021.05-.021.049-.022.05-.021.049-.022.049-.022.049-.022.048-.023.049-.023.048-.023.048-.024.048-.024.048-.024.048-.024.048-.024.047-.024.047-.024.047-.025.047-.025.047-.025.047-.025.047-.026.046-.026.046-.026.046-.026.046-.026.046-.028.045-.027.045-.028.045-.028.045-.028.045-.029.045-.029.044-.028.044-.029.044-.029.043-.03.043-.03.043-.031.043-.031.043-.031.043-.031.042-.031.043-.031.042-.032.042-.032.041-.033.042-.032.041-.033.041-.033.041-.033.041-.033.041-.034.04-.034.04-.035.04-.035.04-.034L17,16.8l.039-.036.039-.036.039-.036.039-.036.039-.035.038-.037.038-.037.038-.037.038-.036.037-.038.037-.038.036-.038.037-.038.037-.037.036-.038.036-.039.036-.038.035-.039.035-.039.035-.039.034-.04.035-.039.034-.04.034-.04.034-.039.033-.041.033-.041.033-.04.033-.041.032-.041.032-.041.032-.041.031-.042.032-.041.031-.041.03-.042.03-.042.03-.042.03-.043.03-.043.029-.043.029-.043.028-.043.028-.043.028-.043.028-.044.027-.044.027-.044.027-.044.026-.044.026-.045.026-.045.026-.045.025-.045.025-.045.025-.045.025-.046.025-.046.024-.046.024-.046.024-.046.024-.047.023-.046.023-.046.023-.047.022-.047.022-.047.022-.047.021-.048.022-.049.022-.049.021-.049.021-.049.021-.049.02-.049.02-.049.02-.05.019-.05.019-.05.018-.05.018-.05.018-.049.017-.05.017-.05.016-.049.017-.05.016-.051.016-.051.015-.05.015-.051.015-.05.015-.051.014-.052.013-.05.013-.051.013-.052.012-.051.013-.051.012-.051.012-.051.011-.051.011-.051.011-.051.01-.052.01-.052.01-.052.009-.051.009-.052c0-.018.005-.035.008-.052s.006-.035.008-.052l.008-.052.008-.052.007-.052.007-.052.007-.053c0-.018,0-.035.006-.052l.005-.053v-.01a.027.027,0,0,1,0,0,.034.034,0,0,1,0-.005H1.94a.034.034,0,0,1,0,.005.028.028,0,0,1,0,0v.01Zm8.764-9.424h-.239l-.016,0-.016,0h-.016l-.016,0-.016,0-.016,0-.015,0-.015,0-.016,0-.016,0-.016,0-.015,0-.015,0-.016,0-.015,0-.016,0-.016,0-.015,0-.016,0-.015,0-.015,0-.016,0-.015,0-.015,0-.015,0-.016,0-.015,0-.015,0-.015,0-.015,0-.015,0-.015,0-.015,0-.015,0-.015,0-.015,0L9.9,2.2l-.015,0-.015,0-.015,0-.015.005-.015,0-.015,0-.015,0-.015.006-.014.006-.014,0-.014,0-.014.005-.014.005-.014.006-.014.006-.014.005-.013.006-.014.006L9.623,2.3,9.609,2.3,9.6,2.31l-.014.006-.014.006-.013.006-.014.006-.014.007-.013.007L9.5,2.355l-.013.006-.013.006-.013.006-.013.007-.013.007L9.423,2.4,9.409,2.4,9.4,2.409l-.013.007-.013.007-.012.007-.013.007-.012.007-.013.007-.013.007L9.3,2.468l-.012.008-.012.008-.012.007L9.245,2.5l-.012.008-.012.008-.012.008L9.2,2.532l-.012.008-.012.009-.012.008-.012.009-.011.009-.012.008-.012.009L9.1,2.6l-.011.008-.011.009-.011.01-.011.009-.012.008-.012.009-.011.01-.011.009L9,2.68l-.011.01-.011.01-.011.009-.011.009-.011.01-.011.009-.011.01-.01.01-.01.01-.01.01-.01.01L8.871,2.8l-.01.01-.01.01-.01.01-.01.01-.01.01-.01.01-.01.01-.01.01-.01.01-.01.01-.01.01-.009.01-.009.011-.01.01-.009.011-.009.01-.009.01L8.7,2.982l-.009.011L8.679,3l-.008.011-.009.011-.009.011-.008.011-.008.011-.008.011-.008.011-.009.011L8.6,3.1,8.6,3.115l-.008.012-.008.012-.008.011-.008.011-.008.012-.008.011-.008.012-.008.012-.007.012-.007.012-.007.012L8.5,3.253,8.5,3.265l-.008.011-.007.012L8.477,3.3l-.006.012-.007.012-.007.013-.007.013-.007.012-.006.012-.006.013L8.426,3.4l-.007.012-.006.013-.006.013L8.4,3.449,8.4,3.462l-.005.013-.006.013L8.379,3.5l-.006.014-.005.012-.006.013-.005.013,0,.013,0,.013-.005.013L8.336,3.6l0,.013,0,.013,0,.013,0,.013,0,.013,0,.013,0,.013,0,.013,0,.013,0,.013,0,.014,0,.014,0,.013,0,.013,0,.014,0,.014,0,.013,0,.014,0,.013,0,.014,0,.013,0,.014,0,.014,0,.014,0,.014,0,.013,0,.014s0,.009,0,.014,0,.009,0,.013l0,.014s0,.009,0,.014l0,.014,0,.014s0,.009,0,.014,0,.009,0,.014,0,.009,0,.014,0,.009,0,.014,0,.009,0,.014,0,.01,0,.014,0,.009,0,.014,0,.009,0,.014,0,.009,0,.013v.042s0,.009,0,.014,0,.009,0,.014,0,.009,0,.014v.028s0,.009,0,.014,0,.009,0,.013,0,.009,0,.014v.042s0,.009,0,.013,0,.009,0,.014,0,.01,0,.015,0,.009,0,.014,0,.01,0,.014,0,.009,0,.014,0,.009,0,.014,0,.009,0,.014,0,.009,0,.014l0,.013,0,.014,0,.014s0,.01,0,.015,0,.009,0,.013,0,.009,0,.013l0,.014,0,.013,0,.014s0,.009,0,.014l0,.013,0,.014,0,.013,0,.013,0,.013,0,.014,0,.013,0,.014,0,.013,0,.014,0,.013,0,.013,0,.013,0,.013,0,.013,0,.013,0,.014,0,.014,0,.013,0,.013,0,.013,0,.013,0,.013.005.013.005.013,0,.013,0,.013L8.362,5l.006.013.005.012.006.013.005.013.006.013.005.012.006.013.006.013.006.013.006.013.007.012.006.012.006.013.006.012.007.012.007.012.007.013.007.012.006.012.007.012.007.012.008.012.007.012.007.012.007.012.007.012.007.012.008.011.008.012.008.012.008.012.008.011.008.012.008.011.008.012.008.012.008.011.009.011.008.012.008.011.008.012.008.011.009.011.009.011.008.011.009.011.009.011.009.011.009.011.009.01.009.011.01.011.009.011.009.01.01.01.01.01.01.01.01.01.01.01.01.01.01.01.01.01.01.01.01.01.01.01.011.01.01.01.01.009.01.009.01.01.011.01.011.01.011.01.011.009.011.009.011.009L9,5.858l.011.009.011.009.011.009.012.009.012.009.011.009.011.009.011.009.011.008.012.009.012.009.012.008.011.009.012.009.012.008L9.186,6l.012.008.012.008.012.008.012.008.012.007.013.008.012.008.012.008L9.3,6.07l.012.008.013.008.013.008.012.008.013.007.012.007.013.007.013.007.013.008.013.007.013.007.013.007.013.007.013.006.013.006.013.007.013.007.013.006.014.006.014.006.013.006.014.006.014.006.013.006.014.007.014.006.014,0,.013.006.014.006.014.006.014,0,.014.006.014.006.014.006.014,0,.014.006.015,0,.015,0,.015,0,.015.005.015.005.015,0,.015,0,.015,0,.014,0,.015,0,.015,0,.015,0,.015,0,.015,0,.015,0,.015,0,.015,0,.015,0,.015,0,.016,0,.015,0,.015,0,.015,0,.016,0,.015,0,.015,0,.016,0,.015,0,.016,0,.016,0,.015,0,.016,0,.015,0,.015,0,.016,0,.016,0,.016,0,.015,0,.015,0,.016,0,.016,0,.016,0h.032l.016,0h.607l.016,0h.032l.016,0,.016,0,.016,0,.015,0,.015,0,.016,0,.016,0,.016,0,.015,0,.015,0,.016,0,.015,0,.016,0,.016,0,.015,0,.015,0,.015,0,.016,0,.015,0,.015,0,.015,0,.016,0,.015,0,.015,0,.015,0,.015,0,.016,0,.015,0,.015,0,.015,0,.015,0,.015,0,.015,0,.015,0,.015,0,.015,0,.015,0,.015-.005.014-.005.015,0,.015,0,.015,0,.014-.006.014,0,.014-.006.014-.006.014-.006.014,0,.014-.006.014-.006.014-.006.014,0,.014-.006.013-.007.014-.007.014-.006.014-.006.014-.006L12,6.2l.013-.007.013-.007.013-.006.014-.006.013-.007.013-.007.013-.006.013-.007.013-.007.013-.008.013-.007.013-.007.013-.007.012-.007L12.2,6.1l.012-.007.012-.007.013-.008.012-.007.012-.007.012-.008.012-.008.012-.008.012-.007.012-.008.012-.008.012-.008L12.355,6l.012-.008.012-.008.012-.009.012-.009.012-.009.012-.009.012-.008.012-.008.012-.009.012-.009.012-.008.012-.009.011-.009.011-.009.011-.009.011-.009.011-.009.011-.009.011-.009.011-.009.011-.01.011-.01.011-.01.011-.01.011-.009.011-.009.01-.01.01-.01.01-.01.01-.01.01-.01.011-.01.01-.01.01-.01.01-.01.01-.01.01-.01.01-.01.009-.01.009-.01.01-.011.009-.011.009-.011.009-.01.009-.011.009-.011.009-.011.009-.011.009-.011.009-.011.009-.011.009-.011L12.9,5.48l.008-.011.009-.012.008-.011.008-.011.008-.012.008-.012L12.96,5.4l.008-.012.008-.011.007-.012.007-.012L13,5.344l.007-.011.008-.012.008-.012.007-.012.007-.012.007-.012.007-.012.007-.012.007-.012.007-.012.007-.012.007-.013.007-.012.007-.012.006-.012.006-.013.006-.012.006-.012.006-.013.006-.013.006-.013.006-.013.007-.012.006-.013.005-.013,0-.013.006-.012L13.178,5l.005-.013,0-.013.005-.013.005-.013,0-.013,0-.013,0-.013,0-.013,0-.013,0-.013,0-.014,0-.014,0-.013,0-.013,0-.013,0-.013,0-.013,0-.013,0-.014,0-.013,0-.014,0-.013,0-.014,0-.013,0-.013,0-.013,0-.014,0-.013,0-.014,0-.014s0-.009,0-.013l0-.014,0-.013,0-.013s0-.01,0-.015V4.464s0-.009,0-.014,0-.009,0-.014V4.408s0-.01,0-.015,0-.009,0-.014V4.367s0-.009,0-.014V4.339s0-.009,0-.014,0-.01,0-.014,0-.009,0-.013V4.284s0-.01,0-.014,0-.009,0-.014V4.242s0-.009,0-.014,0-.01,0-.014,0-.009,0-.014V4.186s0-.009,0-.014V4.159s0-.009,0-.014,0-.01,0-.014V4.1s0-.009,0-.014,0-.009,0-.014V4.006l0-.014,0-.013,0-.014s0-.009,0-.014,0-.009,0-.013l0-.014s0-.009,0-.014l0-.014,0-.014,0-.013,0-.014,0-.013,0-.014,0-.013,0-.014,0-.014,0-.013,0-.013,0-.014,0-.014,0-.013,0-.013,0-.013,0-.013,0-.013,0-.013,0-.013,0-.013,0-.013,0-.013,0-.013-.005-.013-.005-.013,0-.013-.005-.013-.005-.013-.006-.012,0-.014-.005-.013-.006-.013-.007-.013-.006-.013-.006-.013-.006-.013-.006-.013L13.114,3.4l-.006-.012L13.1,3.373,13.1,3.362l-.007-.012-.007-.013-.007-.013-.007-.012L13.063,3.3l-.007-.013-.007-.012-.007-.011-.007-.012-.007-.012-.007-.012-.008-.012-.008-.012L13,3.194l-.008-.012-.007-.011-.007-.012-.008-.011-.008-.011-.008-.012-.008-.012L12.936,3.1l-.008-.012-.008-.011-.009-.011L12.9,3.059,12.9,3.048l-.009-.011-.009-.011-.009-.011L12.861,3l-.009-.01-.009-.011-.009-.011-.009-.01-.009-.01-.009-.011-.009-.01-.01-.011-.009-.01-.009-.01-.01-.01-.01-.01-.01-.01-.01-.01-.01-.01-.01-.01-.011-.01-.01-.01-.01-.01-.01-.01-.01-.009-.01-.01-.011-.01-.011-.01-.011-.01-.011-.01L12.6,2.728l-.011-.01-.011-.009L12.562,2.7l-.011-.009-.011-.009-.011-.009-.011-.009-.011-.01L12.5,2.644l-.012-.008-.012-.009-.012-.009-.012-.009L12.438,2.6l-.012-.008-.012-.009L12.4,2.574l-.012-.009-.012-.009-.012-.008-.012-.009-.012-.008-.012-.007-.012-.008-.012-.008L12.294,2.5l-.012-.008-.012-.008-.012-.007-.012-.008-.012-.007-.013-.008-.012-.007L12.2,2.439l-.013-.007-.012-.007-.013-.008-.013-.007L12.132,2.4,12.118,2.4l-.013-.007-.013-.007-.013-.008-.013-.007-.013-.006-.014-.006-.013-.006-.013-.007L12,2.335l-.013-.006-.014-.006-.014-.006-.014-.006L11.931,2.3,11.918,2.3,11.9,2.292l-.014-.006-.014-.006-.014-.007-.014-.006-.014-.006-.014-.005-.014-.005-.014,0-.014,0-.014-.006-.015-.006-.015,0-.015,0-.014,0-.015-.005-.015,0-.015,0-.015,0-.015,0-.015,0-.015,0-.015,0-.015,0-.015,0-.015,0-.016,0-.015,0-.015,0-.015,0-.015,0-.016,0-.015,0-.015,0-.015,0-.016,0-.015,0-.015,0-.015,0-.016,0-.016,0-.015,0-.016,0-.015,0-.015,0-.016,0-.016,0-.016,0-.015,0-.015,0-.016,0-.016,0-.016,0h-.016l-.016,0-.016,0h-.368Z" transform="translate(397.955 337.413)" fill="#fff"/>
    </g>
  </g>
</svg>
