<svg xmlns="http://www.w3.org/2000/svg" width="49.912" height="49.912" viewBox="0 0 49.912 49.912">
  <g id="Maths" transform="translate(-1545 -464)">
    <ellipse id="Ellipse_261" data-name="Ellipse 261" cx="24.956" cy="24.956" rx="24.956" ry="24.956" transform="translate(1545 464)" fill="#ff6d6d"/>
    <g id="Group_17137" data-name="Group 17137" transform="translate(1523 150)">
      <path id="Path_11839" data-name="Path 11839" d="M948.009,434.523q0,3.9,0,7.8a2.605,2.605,0,0,1-2.677,2.682q-7.8,0-15.606,0a2.607,2.607,0,0,1-2.711-2.72q0-7.78,0-15.56a2.609,2.609,0,0,1,2.714-2.718q7.78,0,15.559,0a2.611,2.611,0,0,1,2.724,2.73q0,3.89,0,7.78Zm-9.745-.765h.261c2.569,0,5.138,0,7.707.005.226,0,.286-.063.285-.287-.008-2.241,0-4.482-.005-6.723a1.13,1.13,0,0,0-1.232-1.243c-2.256,0-4.513,0-6.77,0-.193,0-.252.052-.251.249q.01,3.56,0,7.121C938.264,433.156,938.264,433.436,938.264,433.758Zm-1.505,1.522c-.085-.008-.138-.016-.191-.016q-3.924,0-7.847,0c-.192,0-.213.081-.212.239q.005,3.4,0,6.793a1.127,1.127,0,0,0,1.231,1.22c2.249,0,4.5,0,6.746,0,.213,0,.276-.054.276-.273-.008-2.42-.005-4.841-.005-7.261Zm-.017-1.522c.007-.09.016-.15.016-.211q0-3.9.006-7.8c0-.207-.075-.241-.259-.24q-3.35.008-6.7,0a1.148,1.148,0,0,0-1.3,1.3c0,2.225,0,4.45,0,6.676,0,.235.076.28.292.279,2.061-.008,4.122,0,6.184,0Zm1.522,1.5v.326c0,2.547,0,5.093-.005,7.64,0,.227.065.287.288.286,2.242-.008,4.484,0,6.726-.006a1.12,1.12,0,0,0,1.238-1.235c0-2.242,0-4.484.006-6.726,0-.219-.052-.292-.283-.291-2.554.008-5.109.005-7.663.005Z" transform="translate(-891.011 -96.01)" fill="#fff"/>
      <path id="Path_11840" data-name="Path 11840" d="M1201.671,527.993c.6,0,1.2,0,1.8,0a.751.751,0,1,1,0,1.5q-1.816,0-3.633,0a.753.753,0,1,1,.019-1.5Q1200.769,527.992,1201.671,527.993Z" transform="translate(-1150.28 -195.118)" fill="#fff"/>
      <path id="Path_11841" data-name="Path 11841" d="M1004.783,702.866c-.261.267-.5.516-.742.757a.751.751,0,1,1-1.049-1.068c.242-.242.491-.476.776-.752-.272-.258-.517-.484-.754-.717a.756.756,0,1,1,1.058-1.064c.23.233.457.469.712.73.12-.116.223-.216.326-.317.161-.159.317-.324.481-.478a.748.748,0,1,1,1.056,1.06c-.122.131-.251.256-.38.381s-.261.246-.419.394c.257.259.5.5.736.74a.807.807,0,0,1,.285.569.711.711,0,0,1-.436.712.7.7,0,0,1-.805-.121c-.218-.2-.422-.416-.633-.624C1004.933,703.007,1004.871,702.949,1004.783,702.866Z" transform="translate(-963.173 -358.808)" fill="#fff"/>
      <path id="Path_11842" data-name="Path 11842" d="M992.735,491.337c-.369,0-.734.006-1.1,0a.722.722,0,0,1-.684-.448.7.7,0,0,1,.1-.768.723.723,0,0,1,.591-.282h1.115c0-.319,0-.628,0-.936a1.622,1.622,0,0,1,.024-.371.747.747,0,0,1,1.472.168c.013.28,0,.562.005.843,0,.085,0,.17,0,.3h.54c.187,0,.375,0,.562,0a.748.748,0,1,1,.029,1.5,7.881,7.881,0,0,1-.866,0c-.226-.015-.283.071-.27.28.016.264.007.531,0,.8a.751.751,0,1,1-1.5,0c0-.328,0-.656,0-.983A.57.57,0,0,0,992.735,491.337Z" transform="translate(-951.888 -156.962)" fill="#fff"/>
      <path id="Path_11843" data-name="Path 11843" d="M1201.684,753.418c-.624,0-1.248,0-1.872,0a.737.737,0,0,1-.723-.524.706.706,0,0,1,.275-.826.967.967,0,0,1,.48-.145c1.224-.012,2.449-.01,3.673,0a.752.752,0,1,1-.008,1.5C1202.9,753.421,1202.292,753.418,1201.684,753.418Z" transform="translate(-1150.301 -408.541)" fill="#fff"/>
      <path id="Path_11844" data-name="Path 11844" d="M1201.635,705.529c-.625,0-1.25.008-1.874,0a.726.726,0,0,1-.73-.66.739.739,0,0,1,.517-.8,1.02,1.02,0,0,1,.3-.035q1.8,0,3.609,0a.751.751,0,1,1,.007,1.5c-.609,0-1.218,0-1.828,0Z" transform="translate(-1150.273 -362.906)" fill="#fff"/>
    </g>
  </g>
</svg>
