<svg xmlns="http://www.w3.org/2000/svg" width="49.912" height="49.912" viewBox="0 0 49.912 49.912">
  <g id="Chemistry" transform="translate(-1545 -729)">
    <ellipse id="Ellipse_265" data-name="Ellipse 265" cx="24.956" cy="24.956" rx="24.956" ry="24.956" transform="translate(1545 729)" fill="#f28437"/>
    <g id="Group_18091" data-name="Group 18091">
      <g id="Group_17135" data-name="Group 17135" transform="translate(285.483 -310.059)">
        <path id="Path_11831" data-name="Path 11831" d="M1284.312,1075.3c-1.777,0-3.555-.03-5.331.007a3.382,3.382,0,0,1-3.441-3.242,4.778,4.778,0,0,1,.556-2.753c1.348-2.548,2.666-5.112,4.041-7.646a4.039,4.039,0,0,0,.156-3.343c-.225-.695-.542-1.359-.771-2.053a3.58,3.58,0,0,1-.174-1.1,1.928,1.928,0,0,1,1.854-2.03c1.648-.087,3.3-.059,4.953-.075a8.3,8.3,0,0,1,1.027.026,2.11,2.11,0,0,1,2.007,2.817c-.138.6-.406,1.175-.591,1.768a17.723,17.723,0,0,0-.525,1.878,2.817,2.817,0,0,0,.31,1.9c1.27,2.378,2.525,4.764,3.788,7.145a5.9,5.9,0,0,1,.918,3.419,3.413,3.413,0,0,1-3.494,3.292C1287.836,1075.262,1286.073,1075.3,1284.312,1075.3Zm4.829-9.373c-.112-.223-.18-.363-.252-.5-.617-1.173-1.247-2.339-1.846-3.521a3.263,3.263,0,0,1-.346-1.058,6.59,6.59,0,0,1,.527-3.6,10.817,10.817,0,0,0,.6-1.763.7.7,0,0,0-.725-.981q-2.783-.039-5.567,0c-.632.01-.909.4-.733,1.014.205.716.5,1.405.747,2.109a5.494,5.494,0,0,1-.2,4.783c-.571,1-1.092,2.032-1.632,3.052-.074.14-.13.29-.208.468Zm-4.849,7.965c1.809,0,3.618-.006,5.427,0a1.739,1.739,0,0,0,1.681-1.048,2.878,2.878,0,0,0-.031-2.657c-.4-.826-.838-1.638-1.242-2.463a.562.562,0,0,0-.581-.355q-5.24.013-10.48,0a.53.53,0,0,0-.551.325c-.426.867-.884,1.719-1.3,2.591a3.3,3.3,0,0,0-.27.937,2.154,2.154,0,0,0,2.295,2.668Z" transform="translate(0)" fill="#fff"/>
        <path id="Path_11832" data-name="Path 11832" d="M1370.927,1219.089a2.2,2.2,0,1,1,2.138,2.214A2.21,2.21,0,0,1,1370.927,1219.089Zm2.971,0a.793.793,0,0,0-.8-.747.771.771,0,0,0,.04,1.542A.808.808,0,0,0,1373.9,1219.09Z" transform="translate(-86.482 -148.523)" fill="#fff"/>
        <path id="Path_11833" data-name="Path 11833" d="M1334.751,1216.088a.845.845,0,0,1-.855.866.869.869,0,0,1,.006-1.739A.85.85,0,0,1,1334.751,1216.088Z" transform="translate(-52.132 -146.982)" fill="#fff"/>
      </g>
    </g>
  </g>
</svg>
