<svg xmlns="http://www.w3.org/2000/svg" width="49.912" height="69" viewBox="0 0 49.912 69">
  <g id="Group_18471" data-name="Group 18471" transform="translate(-125.365 -294.574)">
    <g id="Physics" transform="translate(92.365 -137.426)">
      <ellipse id="Ellipse_263" data-name="Ellipse 263" cx="24.956" cy="24.956" rx="24.956" ry="24.956" transform="translate(33 432)" fill="#00a672"/>
      <g id="Group_17136" data-name="Group 17136" transform="translate(-462.881 148.001)">
        <path id="Path_11834" data-name="Path 11834" d="M513.386,310.409l1.042.991c-.421.7-.839,1.338-1.2,2.01a4.43,4.43,0,0,0-.391,1.126c-.168.753.116,1.28.87,1.331a9.214,9.214,0,0,0,2.663-.152,24.513,24.513,0,0,0,8.448-4.089,23.786,23.786,0,0,0,6.039-5.7,9.006,9.006,0,0,0,1.084-2.066c.407-1.113,0-1.708-1.173-1.813a8.8,8.8,0,0,0-3.661.649.394.394,0,0,0-.173.329c.124,1.008.237,2.019.43,3.014.059.3.35.563.6.937l-1.968,1.848c-.025-.339-.047-.522-.052-.7a23.406,23.406,0,0,0-1.339-7.838,9.022,9.022,0,0,0-1.14-2.093c-.664-.9-1.345-.9-2.033-.015a10.4,10.4,0,0,0-1,1.716c-.144.283-.272.376-.571.242s-.619-.231-1.025-.379c.64-1.475,1.216-2.934,2.821-3.591a2.248,2.248,0,0,1,2.224.334,5.109,5.109,0,0,1,1.689,2.191c.367.816.667,1.662,1.012,2.536a17.293,17.293,0,0,1,1.945-.479,12.659,12.659,0,0,1,2.578-.148,2.548,2.548,0,0,1,2.405,3.372,8.707,8.707,0,0,1-1.762,3.331,29.229,29.229,0,0,1-7.926,6.793,22.553,22.553,0,0,1-7.843,3.256,8.133,8.133,0,0,1-2.28.066,2.505,2.505,0,0,1-2.336-3.248A8.877,8.877,0,0,1,513.386,310.409Z" transform="translate(-1.258 0)" fill="#fff"/>
        <path id="Path_11835" data-name="Path 11835" d="M523.473,348.526c-.183-.113-.348-.212-.51-.315a25.567,25.567,0,0,0-7.752-3.493,6.137,6.137,0,0,0-2.864-.176,1.045,1.045,0,0,0-.877,1.484,8.568,8.568,0,0,0,2.137,3.45,27.672,27.672,0,0,0,5.5,4.6c.125.082.25.166.372.252.024.017.036.053.11.168-.457.227-.9.459-1.361.664a.407.407,0,0,1-.316-.077,23.466,23.466,0,0,1-7.051-6.762,7.5,7.5,0,0,1-.9-2.2,2.426,2.426,0,0,1,1.9-3.026,8.111,8.111,0,0,1,4.19.261,25.846,25.846,0,0,1,6.994,3.136.993.993,0,0,1,.35.6,10.546,10.546,0,0,1,.141,1.239C523.541,348.381,523.509,348.426,523.473,348.526Z" transform="translate(0 -42.232)" fill="#fff"/>
        <path id="Path_11836" data-name="Path 11836" d="M595.769,439.651l-.153,1.3a8.89,8.89,0,0,0,4.212.616c.93-.142,1.319-.7.961-1.569a17.385,17.385,0,0,0-1.481-2.636c-.2-.313-.254-.483.044-.742a6.558,6.558,0,0,0,.664-.8c.346.427.606.719.834,1.034a7.094,7.094,0,0,1,1.541,3.419,2.407,2.407,0,0,1-1.548,2.582A5.94,5.94,0,0,1,597.5,443c-.734-.135-1.457-.335-2.237-.518-.135.413-.265.838-.414,1.257a8.989,8.989,0,0,1-1.588,2.981,2.6,2.6,0,0,1-4.257.024,6.593,6.593,0,0,1-1.407-2.713,8.345,8.345,0,0,1,1.051-.388c.115-.028.337.126.417.254.357.579.624,1.221,1.028,1.761.665.887,1.336.882,2.05.029a8.955,8.955,0,0,0,1.6-3.518c.027-.1-.1-.284-.205-.365a3.48,3.48,0,0,0-.6-.294Z" transform="translate(-69.94 -125.835)" fill="#fff"/>
        <path id="Path_11837" data-name="Path 11837" d="M609.577,409.8a1.412,1.412,0,0,1,1.471,1.426,1.458,1.458,0,0,1-1.407,1.5,1.487,1.487,0,0,1-1.518-1.466A1.466,1.466,0,0,1,609.577,409.8Z" transform="translate(-88.416 -102.423)" fill="#fff"/>
        <path id="Path_11838" data-name="Path 11838" d="M573.346,382.3c.495.194.868.329,1.229.491a.351.351,0,0,1,.185.255c-.051,1.043-.12,2.084-.2,3.293-.518-.461-.943-.837-1.362-1.219a.253.253,0,0,1-.066-.183C573.2,384.091,573.268,383.25,573.346,382.3Z" transform="translate(-56.928 -77.666)" fill="#fff"/>
      </g>
    </g>
    <text id="Physics-2" data-name="Physics" transform="translate(129.365 360.574)" fill="#2e2e2e" font-size="14" font-family="BarlowSemiCondensed-SemiBold, Barlow" font-weight="600"><tspan x="0" y="0">Physics</tspan></text>
  </g>
</svg>
