<svg xmlns="http://www.w3.org/2000/svg" width="53.594" height="90.144" viewBox="0 0 53.594 90.144">
  <g id="Group_18477" data-name="Group 18477" transform="translate(-621.568 -293.574)">
    <path id="Computer_Science" data-name="Computer
  Science" d="M3.617,14.285q-.875,0-1.547-.366T1.028,12.885q-.37-.666-.37-1.542V7.258q0-.875.37-1.537T2.07,4.7q.673-.364,1.547-.368t1.549.348q.674.352,1.044,1t.371,1.509v.084q0,.07-.047.125t-.115.056l-1.253.06Q5,7.508,5,7.341V7.174Q5,6.52,4.62,6.118t-1-.4q-.633,0-1.016.407T2.218,7.183v4.268q0,.653.383,1.049t1.016.395q.619,0,1-.4T5,11.445v-.181q0-.153.162-.153l1.253.053q.067,0,.115.048t.047.118v.056q0,.863-.371,1.525T5.166,13.928Q4.492,14.284,3.617,14.285Zm6.811-.009q-1.094,0-1.8-.6t-.85-1.635q-.108-.668-.108-1.434,0-.794.108-1.462.148-1.017.864-1.611t1.8-.6q1.068,0,1.771.587t.852,1.594q.108.7.108,1.464,0,.837-.095,1.437-.149,1.046-.852,1.654T10.428,14.277Zm0-1.393q.446,0,.75-.308t.372-.809q.054-.725.054-1.171T11.55,9.41q-.068-.5-.372-.793t-.75-.29q-.459,0-.757.295t-.365.8Q9.253,9.9,9.253,10.6t.054,1.17q.068.5.365.807T10.428,12.883ZM21.206,6.9q.966,0,1.49.638t.524,1.789v4.657q0,.07-.048.119a.173.173,0,0,1-.025.021.151.151,0,0,1-.058.025.171.171,0,0,1-.033,0l-1.238,0a.171.171,0,0,1-.033,0,.15.15,0,0,1-.058-.024A.172.172,0,0,1,21.7,14.1q-.048-.049-.048-.119V9.551q0-.587-.272-.922T20.662,8.3q-.476,0-.754.338t-.279.909v4.443q0,.07-.048.119a.173.173,0,0,1-.025.021.15.15,0,0,1-.058.025.171.171,0,0,1-.033,0l-1.249,0a.171.171,0,0,1-.033,0,.15.15,0,0,1-.058-.024.172.172,0,0,1-.025-.021q-.048-.049-.048-.119V9.561q0-.587-.271-.921t-.719-.333q-.475,0-.753.337t-.278.908V13.99q0,.07-.047.119a.173.173,0,0,1-.025.021.15.15,0,0,1-.058.024.17.17,0,0,1-.033,0l-1.233,0a.17.17,0,0,1-.033,0,.149.149,0,0,1-.058-.024.172.172,0,0,1-.025-.021q-.047-.049-.047-.119V7.2q0-.07.047-.119t.115-.049l1.233,0q.068,0,.115.048t.047.118v.349q0,.042.027.049t.054-.021q.556-.658,1.506-.661.6,0,1.032.255t.679.731q.027.028.054.028t.041-.056q.312-.5.781-.736T21.206,6.9ZM29.972,9q.15.714.15,1.583,0,.813-.123,1.528-.424,2.145-2.213,2.147-.955,0-1.433-.628-.027-.042-.055-.035t-.027.049v2.982q0,.07-.048.119t-.116.049H24.854q-.068,0-.116-.049t-.048-.119V7.164q0-.07.048-.119T24.854,7l1.254,0q.068,0,.116.049t.048.119v.364q0,.042.027.056t.055-.028q.518-.674,1.487-.677.847,0,1.372.528T29.972,9Zm-1.612,3.03q.164-.547.164-1.457t-.137-1.4q-.246-.91-1.01-.907-.737,0-.955.9-.136.49-.136,1.414T26.436,12q.218.854.928.852T28.36,12.027Zm6.759-4.9q0-.07.048-.119t.117-.05l1.262,0q.069,0,.117.049t.048.119v6.838q0,.07-.048.119a.174.174,0,0,1-.025.022.152.152,0,0,1-.058.025.174.174,0,0,1-.033,0l-1.262,0a.173.173,0,0,1-.033,0,.152.152,0,0,1-.058-.024.173.173,0,0,1-.025-.021q-.048-.049-.048-.119v-.379q0-.042-.027-.049t-.055.035q-.466.66-1.466.661-.931,0-1.547-.566t-.616-1.66V7.142q0-.07.048-.119t.116-.049l1.259,0q.068,0,.116.049T33,7.137V11.6q0,.589.267.918t.774.328q.507,0,.795-.345t.288-.934Zm6.386.879q0,.07-.048.12t-.117.05l-1.114,0q-.069,0-.069.07v3.528q0,.52.2.738t.626.2h.248q.069,0,.117.049t.048.119v1.069q0,.155-.165.183h-.578a4.682,4.682,0,0,1-.477-.022,3.162,3.162,0,0,1-.413-.068,2.141,2.141,0,0,1-.35-.114,1.515,1.515,0,0,1-.286-.159q-.508-.365-.508-1.376V8.256q0-.07-.069-.07l-.632,0q-.069,0-.117-.049t-.048-.119v-.9q0-.07.048-.12t.117-.05l.632,0q.069,0,.069-.07v-1.6q0-.07.048-.12t.117-.05l1.209,0q.069,0,.117.049t.048.119v1.6q0,.07.069.07l1.114,0q.069,0,.117.049t.048.119Zm6.479,1.3q.041.465.041,1.07l-.014.606q0,.169-.166.169l-3.7.008q-.069,0-.069.071.028.394.055.577.069.464.386.745t.8.28q.414-.015.7-.212t.435-.55q.069-.155.207-.113l1.132.237q.166.056.11.211-.276.874-.946,1.347t-1.635.474q-1.144,0-1.833-.56t-.9-1.56q-.069-.38-.089-.8t-.021-1.125q0-.731.069-1.111.138-1.027.854-1.641t1.819-.618q1.2,0,1.938.683T47.984,9.313ZM45.237,8.222q-.455,0-.751.277t-.365.74q-.041.31-.041.7,0,.07.069.07l2.192-.005q.069,0,.069-.071-.028-.479-.055-.69Q46.3,8.782,46,8.5T45.237,8.222Zm7.116-1.4q.388,0,.679.167.111.056.083.211l-.235,1.284q-.014.169-.194.1t-.415-.069q-.1,0-.291.029-.471.044-.782.439t-.311.988v3.976q0,.07-.048.12a.176.176,0,0,1-.026.022.154.154,0,0,1-.059.025.176.176,0,0,1-.033,0l-1.272,0a.175.175,0,0,1-.033,0,.153.153,0,0,1-.059-.025.175.175,0,0,1-.025-.022q-.048-.049-.048-.12V7.083q0-.07.048-.12t.117-.05l1.272,0q.069,0,.118.049t.048.12v.606q0,.056.021.063t.048-.035Q51.453,6.822,52.353,6.819ZM8.875,34.176q-.891,0-1.566-.334t-1.045-.937q-.371-.607-.371-1.4v-.362q0-.07.047-.118t.115-.048l1.214,0q.067,0,.115.049t.047.119v.278q0,.6.4.976t1.093.38q.635,0,.972-.33t.338-.876q0-.376-.189-.649t-.534-.5q-.344-.231-1.06-.623-.823-.448-1.322-.8t-.843-.893q-.344-.544-.344-1.323,0-1.2.775-1.891T8.767,24.2q.878,0,1.553.344t1.041.971q.365.628.365,1.437v.293q0,.07-.047.118t-.115.048l-1.217,0q-.068,0-.115-.049t-.047-.119v-.265q0-.6-.392-.99T8.74,25.6q-.58,0-.918.311t-.337.869q0,.376.175.641t.533.5q.358.238,1.087.616.973.574,1.432.9t.777.832q.318.51.318,1.249,0,1.227-.8,1.948T8.875,34.176Zm6.764.03q-1.1,0-1.8-.587T13,32.033q-.108-.572-.108-1.534,0-.879.108-1.52.149-.976.853-1.553t1.788-.575q1.044,0,1.763.556t.869,1.448q.014.056.027.14t.014.21v.028q0,.126-.149.153l-1.235.122H16.9q-.122,0-.149-.154,0-.1-.027-.209-.068-.377-.359-.636t-.739-.26q-.447,0-.739.277t-.359.738q-.068.53-.068,1.255,0,.8.081,1.284.068.461.352.734t.732.275q.461,0,.752-.269t.346-.662l.014-.14q.014-.07.068-.118t.122-.034l1.221.116q.163.029.163.182l-.027.237q-.122.949-.841,1.519T15.639,34.207ZM20.363,26q-.421,0-.686-.281T19.412,25q0-.433.265-.712t.686-.278q.435,0,.7.274t.265.72q0,.433-.272.712T20.363,26Zm-.625,8.117a.171.171,0,0,1-.033,0,.151.151,0,0,1-.058-.025.174.174,0,0,1-.025-.022q-.048-.049-.048-.119V27.127q0-.07.048-.119t.115-.049l1.25,0q.068,0,.116.049t.048.119v6.821q0,.07-.048.119a.171.171,0,0,1-.025.021.149.149,0,0,1-.058.024.171.171,0,0,1-.033,0ZM28,29.375q.041.462.041,1.065l-.014.6q0,.168-.164.167L24.214,31.2q-.068,0-.068.07.027.392.054.574.068.462.381.743t.79.283q.409-.012.689-.207t.43-.544q.068-.154.2-.111l1.119.242q.164.057.109.211-.273.867-.935,1.333t-1.616.462q-1.131-.005-1.812-.568t-.885-1.556q-.068-.378-.088-.8t-.02-1.119q0-.727.068-1.1.136-1.02.844-1.627t1.8-.6q1.186,0,1.916.691T28,29.375Zm-2.715-1.1q-.45,0-.743.271t-.361.733q-.041.308-.041.7,0,.07.068.07l2.167.007q.068,0,.068-.07-.027-.476-.055-.686-.055-.462-.355-.743T25.29,28.275Zm7.185-1.382q1,0,1.561.649t.562,1.784v4.687q0,.07-.048.119a.173.173,0,0,1-.025.021.151.151,0,0,1-.058.024.173.173,0,0,1-.033,0l-1.26-.006a.173.173,0,0,1-.033,0,.152.152,0,0,1-.058-.025.175.175,0,0,1-.025-.022q-.048-.049-.048-.119v-4.46q0-.575-.281-.912t-.76-.339q-.493,0-.787.341t-.294.917V34q0,.07-.048.119a.172.172,0,0,1-.025.021.151.151,0,0,1-.058.024.173.173,0,0,1-.033,0l-1.258-.006a.172.172,0,0,1-.033,0,.152.152,0,0,1-.058-.025.175.175,0,0,1-.025-.022q-.048-.049-.048-.119V27.165q0-.07.048-.119T29.466,27l1.258,0q.068,0,.116.049t.048.119v.364q0,.042.027.056t.055-.028Q31.517,26.89,32.475,26.892Zm6.157,7.418q-1.112-.005-1.819-.591t-.857-1.6q-.11-.576-.11-1.545,0-.884.11-1.53.151-.982.864-1.563t1.812-.578q1.058,0,1.787.559t.88,1.457q.014.056.028.141t.014.211V29.3q0,.127-.151.154l-1.251.123H39.91q-.124,0-.151-.155,0-.1-.027-.211-.069-.38-.364-.64t-.749-.262q-.453,0-.748.279t-.364.743q-.069.533-.069,1.264,0,.8.082,1.292.069.464.357.739t.742.277q.467,0,.763-.271t.35-.666l.014-.14q.014-.07.069-.119t.124-.035l1.238.117q.165.029.165.183l-.028.239q-.124.956-.853,1.529T38.632,34.31Zm9.241-4.874q.041.465.041,1.071l-.014.606q0,.169-.166.168l-3.7-.013q-.069,0-.069.07.028.394.055.577.069.465.386.747t.8.285q.414-.012.7-.208t.435-.547q.069-.155.207-.112l1.132.244q.166.057.11.212-.276.872-.946,1.341t-1.635.464q-1.144-.005-1.833-.571t-.9-1.565q-.069-.38-.089-.8t-.021-1.125q0-.731.069-1.111.138-1.026.854-1.636t1.819-.608q1.2,0,1.938.695T47.873,29.436ZM45.127,28.33q-.455,0-.751.272t-.365.738q-.041.309-.041.7,0,.07.069.071l2.192.007q.069,0,.069-.07-.028-.479-.055-.69-.055-.465-.359-.747T45.127,28.33Z" transform="translate(621.568 346.43)" fill="#2e2e2e"/>
    <g id="Computer_Science-2" data-name="Computer Science" transform="translate(-6.635 -28.426)">
      <path id="Path_12132" data-name="Path 12132" d="M24.956,0A24.956,24.956,0,1,1,0,24.956,24.956,24.956,0,0,1,24.956,0Z" transform="translate(630.044 322)" fill="#9dac0d"/>
      <g id="Group_18097" data-name="Group 18097" transform="translate(165 -82.783)">
        <path id="Desktop" d="M21,2H3A2.006,2.006,0,0,0,1,4V16a2.006,2.006,0,0,0,2,2h7L8,21v1h8V21l-2-3h7a2.006,2.006,0,0,0,2-2V4A2.006,2.006,0,0,0,21,2Zm0,12.537H3V4H21Z" transform="translate(477.194 418)" fill="#fff"/>
        <path id="mouse" d="M5.823,1.07V2.953H7.24A1.818,1.818,0,0,0,5.823,1.07ZM4,4.377a1.776,1.776,0,0,0,1.62,1.9,1.776,1.776,0,0,0,1.62-1.9v-.95H4ZM5.418,1.07A1.818,1.818,0,0,0,4,2.953H5.418Z" transform="matrix(0.259, 0.966, -0.966, 0.259, 500.417, 434.959)" fill="#fff"/>
        <path id="Path_12139" data-name="Path 12139" d="M-1351.027-4583.979c23.159.393,9.823,1.891,13.1,2.52s-4.25,1.222-4.25,1.222" transform="translate(1842.638 5020.918)" fill="none" stroke="#fff" stroke-width="1"/>
      </g>
    </g>
  </g>
</svg>
