<svg xmlns="http://www.w3.org/2000/svg" width="49.912" height="49.912" viewBox="0 0 49.912 49.912">
  <g id="Bilology" transform="translate(-32.5 -433)">
    <ellipse id="Ellipse_263" data-name="Ellipse 263" cx="24.956" cy="24.956" rx="24.956" ry="24.956" transform="translate(32.5 433)" fill="#f23814"/>
    <g id="Subtraction_42" data-name="Subtraction 42" transform="translate(-2347.966 -4500.42)" fill="none">
      <path d="M2404.632,4971.768h-.126a12.5,12.5,0,0,1-5.07-1.1,12.1,12.1,0,0,1-3.99-2.9,12.343,12.343,0,0,1-2.531-4.261,13.094,13.094,0,0,1-.693-5.185,14.024,14.024,0,0,1,1.353-5.173,14.5,14.5,0,0,1,3.062-4.226,14.242,14.242,0,0,1,4.337-2.863,13.42,13.42,0,0,1,5.179-1.072h.075a12.5,12.5,0,0,1,5,1.023,12.1,12.1,0,0,1,4.049,2.854,12.348,12.348,0,0,1,2.605,4.264,13.1,13.1,0,0,1,.74,5.243,13.982,13.982,0,0,1-1.363,5.249,14.54,14.54,0,0,1-3.121,4.277,14.251,14.251,0,0,1-4.41,2.859A13.383,13.383,0,0,1,2404.632,4971.768Zm.9-6.875-.059,0a.8.8,0,0,0-.306.083.81.81,0,0,0-.261.2.859.859,0,0,0-.118.926.834.834,0,0,0,.2.266l2.763,2.458a.84.84,0,0,0,.287.167.789.789,0,0,0,.256.042l.056,0a.812.812,0,0,0,.309-.082.839.839,0,0,0,.423-.5.845.845,0,0,0,.039-.321.854.854,0,0,0-.082-.314.826.826,0,0,0-.2-.266l-2.765-2.459a.868.868,0,0,0-.286-.166A.811.811,0,0,0,2405.53,4964.893Zm-7.644-4.241a.578.578,0,0,0-.331.1.6.6,0,0,0-.16.163.642.642,0,0,0-.087.212.6.6,0,0,0,0,.238l.825,4.342a.592.592,0,0,0,.09.222.591.591,0,0,0,.367.253.548.548,0,0,0,.122.014.567.567,0,0,0,.112-.011.556.556,0,0,0,.216-.091.573.573,0,0,0,.16-.164.6.6,0,0,0,.089-.211.649.649,0,0,0,0-.241l-.825-4.342a.625.625,0,0,0-.09-.221.586.586,0,0,0-.16-.164.58.58,0,0,0-.327-.1Zm17.138-2.758a1.29,1.29,0,0,0-.433.075,1.321,1.321,0,0,0-.455.274l-2.819,2.587a1.383,1.383,0,0,0-.367,1.455,1.353,1.353,0,0,0,.27.465,1.318,1.318,0,0,0,.92.449h.069a1.307,1.307,0,0,0,.892-.348l2.821-2.587a1.356,1.356,0,0,0,.316-.433,1.395,1.395,0,0,0,.052-1.023,1.346,1.346,0,0,0-.27-.465,1.319,1.319,0,0,0-.922-.448Zm-7.877-2.079a.891.891,0,0,0-.124.009l-4.594.663a.874.874,0,0,0-.331.119.906.906,0,0,0,.227,1.647.84.84,0,0,0,.226.03.949.949,0,0,0,.124-.008l4.594-.66a.875.875,0,0,0,.332-.119.913.913,0,0,0,.4-.544.924.924,0,0,0,.02-.358.885.885,0,0,0-.117-.338.893.893,0,0,0-.531-.409A.885.885,0,0,0,2407.147,4955.814Zm-2.651-5.859-.056,0a.674.674,0,0,0-.252.078l-5.848,3.189a.646.646,0,0,0-.2.171.674.674,0,0,0-.12.229.727.727,0,0,0-.026.258.705.705,0,0,0,.075.258.686.686,0,0,0,.167.207.649.649,0,0,0,.42.152h.056a.652.652,0,0,0,.251-.079l5.851-3.186a.69.69,0,0,0,.351-.66.7.7,0,0,0-.076-.258.656.656,0,0,0-.167-.207.647.647,0,0,0-.224-.122A.676.676,0,0,0,2404.5,4949.955Zm5.587.271-.046,0a.681.681,0,0,0-.246.068.668.668,0,0,0-.209.165.7.7,0,0,0-.131.234.682.682,0,0,0,.2.724l3.016,2.671a.653.653,0,0,0,.23.134.69.69,0,0,0,.207.032h.046a.659.659,0,0,0,.247-.067.689.689,0,0,0,.21-.165.653.653,0,0,0,.131-.236.667.667,0,0,0,.031-.258.682.682,0,0,0-.227-.465l-3.018-2.671a.663.663,0,0,0-.229-.133A.688.688,0,0,0,2410.084,4950.227Z" stroke="none"/>
      <path d="M 2404.622802734375 4970.767578125 C 2404.6259765625 4970.767578125 2404.629150390625 4970.767578125 2404.63232421875 4970.767578125 C 2406.24462890625 4970.767578125 2407.833251953125 4970.451171875 2409.35400390625 4969.82763671875 C 2410.866943359375 4969.20751953125 2412.24658203125 4968.31298828125 2413.45458984375 4967.16845703125 C 2414.6689453125 4966.01611328125 2415.647216796875 4964.67578125 2416.36181640625 4963.18408203125 C 2417.10205078125 4961.64111328125 2417.528076171875 4960.00048828125 2417.627685546875 4958.30908203125 C 2417.726806640625 4956.625 2417.497314453125 4954.99462890625 2416.945556640625 4953.46435546875 C 2416.413330078125 4951.99267578125 2415.607666015625 4950.673828125 2414.550537109375 4949.5439453125 C 2413.498046875 4948.4189453125 2412.24755859375 4947.53759765625 2410.833740234375 4946.9248046875 C 2409.394775390625 4946.30078125 2407.84521484375 4945.984375 2406.22802734375 4945.984375 L 2406.155517578125 4945.984375 C 2404.510498046875 4945.99365234375 2402.898193359375 4946.32763671875 2401.3623046875 4946.9775390625 C 2399.874267578125 4947.60498046875 2398.51708984375 4948.5009765625 2397.32861328125 4949.6416015625 C 2396.140380859375 4950.7802734375 2395.180908203125 4952.1044921875 2394.47705078125 4953.57666015625 C 2393.74951171875 4955.09912109375 2393.32666015625 4956.71630859375 2393.22021484375 4958.3828125 C 2393.114013671875 4960.0458984375 2393.328857421875 4961.65771484375 2393.85888671875 4963.17333984375 C 2394.370849609375 4964.638671875 2395.15380859375 4965.95654296875 2396.185791015625 4967.0908203125 C 2397.221435546875 4968.22900390625 2398.453857421875 4969.12548828125 2399.848388671875 4969.75537109375 C 2401.302978515625 4970.412109375 2402.873046875 4970.7529296875 2404.51806640625 4970.76708984375 C 2404.552978515625 4970.767578125 2404.587890625 4970.767578125 2404.622802734375 4970.767578125 M 2404.722412109375 4964.0810546875 C 2404.93505859375 4963.9755859375 2405.1630859375 4963.91357421875 2405.400634765625 4963.89697265625 C 2405.44189453125 4963.89404296875 2405.484130859375 4963.892578125 2405.52978515625 4963.892578125 C 2405.725341796875 4963.892578125 2405.917236328125 4963.92333984375 2406.10009765625 4963.98388671875 L 2406.109130859375 4963.98681640625 C 2406.332763671875 4964.0634765625 2406.53955078125 4964.1826171875 2406.723876953125 4964.341796875 L 2406.735595703125 4964.35205078125 L 2409.49853515625 4966.8095703125 C 2409.682373046875 4966.9716796875 2409.830078125 4967.16796875 2409.936279296875 4967.3896484375 C 2410.038818359375 4967.6025390625 2410.099365234375 4967.83154296875 2410.115478515625 4968.06689453125 C 2410.13232421875 4968.30224609375 2410.1044921875 4968.53515625 2410.033203125 4968.759765625 C 2409.961181640625 4968.990234375 2409.84326171875 4969.2041015625 2409.682373046875 4969.3955078125 L 2409.67578125 4969.40283203125 C 2409.513916015625 4969.59130859375 2409.32080078125 4969.7421875 2409.099853515625 4969.8525390625 C 2408.887451171875 4969.95751953125 2408.658447265625 4970.01904296875 2408.41845703125 4970.03564453125 C 2408.390380859375 4970.03759765625 2408.3447265625 4970.041015625 2408.290771484375 4970.041015625 C 2408.093017578125 4970.041015625 2407.89794921875 4970.0087890625 2407.7109375 4969.9443359375 C 2407.478759765625 4969.865234375 2407.26806640625 4969.7421875 2407.083251953125 4969.578125 L 2404.32373046875 4967.123046875 C 2404.140380859375 4966.9609375 2403.99267578125 4966.76513671875 2403.884521484375 4966.5400390625 C 2403.7822265625 4966.3271484375 2403.721923828125 4966.09912109375 2403.705810546875 4965.86279296875 C 2403.689453125 4965.626953125 2403.717529296875 4965.39306640625 2403.791015625 4965.16357421875 C 2403.86572265625 4964.93310546875 2403.983642578125 4964.7216796875 2404.14111328125 4964.53564453125 L 2404.146240234375 4964.529296875 C 2404.31005859375 4964.3388671875 2404.50390625 4964.18798828125 2404.722412109375 4964.0810546875 M 2398.36962890625 4967.16064453125 C 2398.16796875 4967.1162109375 2397.98046875 4967.03466796875 2397.8125 4966.91796875 C 2397.64306640625 4966.80224609375 2397.5 4966.65625 2397.38671875 4966.484375 C 2397.26953125 4966.30810546875 2397.186767578125 4966.1044921875 2397.1474609375 4965.89404296875 L 2396.322998046875 4961.552734375 C 2396.283203125 4961.34228515625 2396.28564453125 4961.1298828125 2396.330078125 4960.9208984375 C 2396.37109375 4960.7275390625 2396.44580078125 4960.54541015625 2396.55224609375 4960.37890625 L 2396.558837890625 4960.36865234375 C 2396.6708984375 4960.197265625 2396.814208984375 4960.05029296875 2396.98486328125 4959.93212890625 C 2397.1630859375 4959.80810546875 2397.3623046875 4959.72412109375 2397.576904296875 4959.68115234375 C 2397.77880859375 4959.6416015625 2398.003662109375 4959.640625 2398.213134765625 4959.6865234375 C 2398.416015625 4959.728515625 2398.606689453125 4959.810546875 2398.780029296875 4959.93115234375 C 2398.947998046875 4960.0458984375 2399.09619140625 4960.19775390625 2399.20947265625 4960.37109375 C 2399.323486328125 4960.54541015625 2399.40185546875 4960.73779296875 2399.44287109375 4960.943359375 L 2399.444580078125 4960.9521484375 L 2400.27099609375 4965.30322265625 C 2400.3076171875 4965.50634765625 2400.306396484375 4965.71142578125 2400.267333984375 4965.91259765625 L 2400.26416015625 4965.92724609375 C 2400.222412109375 4966.12646484375 2400.141357421875 4966.31982421875 2400.029541015625 4966.48681640625 C 2399.9140625 4966.6611328125 2399.76953125 4966.80810546875 2399.599609375 4966.92333984375 C 2399.4189453125 4967.04638671875 2399.220947265625 4967.12939453125 2399.0107421875 4967.1689453125 C 2398.799072265625 4967.2099609375 2398.578125 4967.20703125 2398.36962890625 4967.16064453125 M 2412.076416015625 4964.19677734375 C 2411.774169921875 4964.1787109375 2411.48291015625 4964.10400390625 2411.212646484375 4963.97412109375 C 2410.927978515625 4963.83837890625 2410.677734375 4963.64892578125 2410.468994140625 4963.41064453125 C 2410.2607421875 4963.1748046875 2410.103759765625 4962.90380859375 2410.00244140625 4962.6044921875 C 2409.90576171875 4962.318359375 2409.864501953125 4962.02001953125 2409.8798828125 4961.71826171875 C 2409.8955078125 4961.412109375 2409.9677734375 4961.11767578125 2410.09375 4960.845703125 C 2410.224853515625 4960.560546875 2410.40771484375 4960.30859375 2410.640380859375 4960.0927734375 L 2413.457275390625 4957.50732421875 C 2413.685546875 4957.29638671875 2413.952880859375 4957.134765625 2414.255615234375 4957.02587890625 C 2414.5029296875 4956.93798828125 2414.76123046875 4956.8935546875 2415.023681640625 4956.8935546875 C 2415.06494140625 4956.8935546875 2415.107177734375 4956.89501953125 2415.153076171875 4956.8974609375 C 2415.452880859375 4956.91357421875 2415.75439453125 4956.990234375 2416.02294921875 4957.11865234375 C 2416.306884765625 4957.25341796875 2416.5576171875 4957.44287109375 2416.767822265625 4957.6806640625 C 2416.97802734375 4957.91796875 2417.135498046875 4958.18994140625 2417.236572265625 4958.490234375 C 2417.334228515625 4958.7802734375 2417.375244140625 4959.0791015625 2417.358642578125 4959.37890625 C 2417.343017578125 4959.681640625 2417.271240234375 4959.97412109375 2417.14404296875 4960.25244140625 C 2417.01171875 4960.53857421875 2416.827392578125 4960.791015625 2416.5966796875 4961.001953125 L 2413.778564453125 4963.58642578125 C 2413.544921875 4963.80224609375 2413.27490234375 4963.96484375 2412.975830078125 4964.06982421875 C 2412.72998046875 4964.15625 2412.471435546875 4964.2001953125 2412.20751953125 4964.2001953125 C 2412.1767578125 4964.2001953125 2412.13037109375 4964.2001953125 2412.076416015625 4964.19677734375 M 2400.93310546875 4958.34912109375 C 2400.80615234375 4958.134765625 2400.723388671875 4957.8984375 2400.687744140625 4957.64599609375 L 2400.6865234375 4957.63720703125 C 2400.65283203125 4957.38427734375 2400.668212890625 4957.13427734375 2400.73193359375 4956.89404296875 C 2400.794189453125 4956.65625 2400.898193359375 4956.4375 2401.042724609375 4956.2412109375 C 2401.18798828125 4956.044921875 2401.366455078125 4955.880859375 2401.5732421875 4955.75341796875 L 2401.5791015625 4955.75 C 2401.79638671875 4955.61767578125 2402.033935546875 4955.53271484375 2402.285888671875 4955.49609375 L 2406.883056640625 4954.8330078125 C 2407.132080078125 4954.798828125 2407.38232421875 4954.81201171875 2407.63427734375 4954.87939453125 C 2407.867919921875 4954.9423828125 2408.09326171875 4955.0537109375 2408.285888671875 4955.2021484375 C 2408.482421875 4955.35205078125 2408.64501953125 4955.53662109375 2408.76904296875 4955.75 C 2408.8974609375 4955.96826171875 2408.979736328125 4956.2060546875 2409.01318359375 4956.4560546875 C 2409.047607421875 4956.7021484375 2409.032958984375 4956.95947265625 2408.97021484375 4957.20166015625 C 2408.90869140625 4957.4384765625 2408.803466796875 4957.65869140625 2408.657470703125 4957.85595703125 C 2408.51513671875 4958.0498046875 2408.337158203125 4958.2138671875 2408.128662109375 4958.34375 L 2408.122314453125 4958.34716796875 C 2407.906494140625 4958.4794921875 2407.66796875 4958.56494140625 2407.4111328125 4958.6025390625 L 2402.80517578125 4959.26416015625 C 2402.550048828125 4959.2978515625 2402.29833984375 4959.28125 2402.05712890625 4959.21484375 C 2401.824951171875 4959.150390625 2401.609619140625 4959.04345703125 2401.4169921875 4958.89794921875 L 2401.4052734375 4958.888671875 C 2401.21337890625 4958.73876953125 2401.054443359375 4958.55712890625 2400.93310546875 4958.34912109375 M 2397.3525390625 4952.77392578125 C 2397.492431640625 4952.59716796875 2397.6640625 4952.45263671875 2397.863037109375 4952.34521484375 L 2403.71240234375 4949.15576171875 C 2403.90673828125 4949.05078125 2404.11669921875 4948.98583984375 2404.3369140625 4948.962890625 L 2404.36279296875 4948.96044921875 C 2404.409912109375 4948.95703125 2404.45361328125 4948.955078125 2404.496337890625 4948.955078125 C 2404.66015625 4948.955078125 2404.82470703125 4948.97998046875 2404.9892578125 4949.0302734375 C 2405.1962890625 4949.09423828125 2405.385986328125 4949.19677734375 2405.55322265625 4949.3349609375 C 2405.723388671875 4949.47412109375 2405.86767578125 4949.65234375 2405.97119140625 4949.8505859375 C 2406.071533203125 4950.0419921875 2406.1337890625 4950.25048828125 2406.15625 4950.4716796875 L 2406.15869140625 4950.49853515625 C 2406.17431640625 4950.7080078125 2406.152099609375 4950.916015625 2406.091552734375 4951.11962890625 C 2406.03125 4951.31982421875 2405.935791015625 4951.50537109375 2405.80810546875 4951.671875 L 2405.78857421875 4951.6962890625 C 2405.651611328125 4951.86328125 2405.486328125 4952.00146484375 2405.297607421875 4952.1064453125 L 2405.2890625 4952.111328125 L 2399.4404296875 4955.29541015625 C 2399.245849609375 4955.40283203125 2399.034912109375 4955.46875 2398.812744140625 4955.49169921875 L 2398.7236328125 4955.49755859375 C 2398.5341796875 4955.5087890625 2398.343994140625 4955.4814453125 2398.162109375 4955.42529296875 L 2398.15087890625 4955.421875 C 2397.94677734375 4955.3564453125 2397.75927734375 4955.25390625 2397.593994140625 4955.11669921875 L 2397.589111328125 4955.11279296875 C 2397.419677734375 4954.97021484375 2397.281982421875 4954.79931640625 2397.179931640625 4954.6044921875 L 2397.17529296875 4954.595703125 C 2397.075439453125 4954.40087890625 2397.0126953125 4954.18359375 2396.994140625 4953.96630859375 C 2396.976806640625 4953.76318359375 2396.998046875 4953.54931640625 2397.055419921875 4953.3486328125 L 2397.058837890625 4953.3369140625 C 2397.120361328125 4953.13134765625 2397.21923828125 4952.94189453125 2397.3525390625 4952.77392578125 M 2411.999755859375 4954.8388671875 L 2408.98681640625 4952.169921875 C 2408.822265625 4952.02490234375 2408.688720703125 4951.85009765625 2408.589599609375 4951.6494140625 L 2408.5810546875 4951.6318359375 C 2408.490478515625 4951.43896484375 2408.4375 4951.2353515625 2408.423583984375 4951.02587890625 C 2408.407958984375 4950.8193359375 2408.432861328125 4950.6025390625 2408.496337890625 4950.39892578125 L 2408.5009765625 4950.384765625 C 2408.5693359375 4950.17626953125 2408.6796875 4949.97900390625 2408.82080078125 4949.81396484375 C 2408.96484375 4949.64404296875 2409.13916015625 4949.5068359375 2409.33935546875 4949.4052734375 L 2409.347900390625 4949.40087890625 C 2409.53759765625 4949.306640625 2409.74169921875 4949.25 2409.953857421875 4949.23193359375 L 2409.973388671875 4949.23046875 C 2409.995361328125 4949.22900390625 2410.035888671875 4949.2265625 2410.083740234375 4949.2265625 C 2410.253662109375 4949.2265625 2410.4248046875 4949.25341796875 2410.592041015625 4949.30615234375 L 2410.608154296875 4949.3115234375 C 2410.820068359375 4949.38232421875 2411.020263671875 4949.49853515625 2411.183349609375 4949.64404296875 L 2414.2041015625 4952.31787109375 C 2414.369140625 4952.46484375 2414.505859375 4952.646484375 2414.600341796875 4952.84326171875 C 2414.693115234375 4953.03515625 2414.748046875 4953.2421875 2414.762939453125 4953.45458984375 C 2414.779296875 4953.6689453125 2414.7529296875 4953.8896484375 2414.687255859375 4954.09228515625 C 2414.619873046875 4954.30712890625 2414.51025390625 4954.50341796875 2414.361572265625 4954.67626953125 C 2414.217529296875 4954.84375 2414.044921875 4954.9794921875 2413.848876953125 4955.07958984375 L 2413.840087890625 4955.083984375 C 2413.646240234375 4955.1806640625 2413.437744140625 4955.23779296875 2413.22021484375 4955.25341796875 L 2413.212646484375 4955.25439453125 C 2413.1650390625 4955.25732421875 2413.124755859375 4955.25732421875 2413.100830078125 4955.25732421875 C 2412.9296875 4955.25732421875 2412.759033203125 4955.23095703125 2412.593994140625 4955.17919921875 L 2412.57666015625 4955.17333984375 C 2412.36279296875 4955.10205078125 2412.168701171875 4954.9892578125 2411.999755859375 4954.8388671875 M 2404.63232421875 4971.767578125 C 2404.59033203125 4971.767578125 2404.54833984375 4971.767578125 2404.50634765625 4971.76708984375 C 2402.724609375 4971.75146484375 2401.01904296875 4971.38134765625 2399.436767578125 4970.66650390625 C 2397.916748046875 4969.97998046875 2396.57421875 4969.00341796875 2395.4462890625 4967.76416015625 C 2394.32275390625 4966.529296875 2393.47119140625 4965.095703125 2392.914794921875 4963.50341796875 C 2392.34033203125 4961.8603515625 2392.107421875 4960.11572265625 2392.22216796875 4958.31884765625 C 2392.3369140625 4956.52392578125 2392.7919921875 4954.78369140625 2393.57470703125 4953.1455078125 C 2394.330810546875 4951.56396484375 2395.361083984375 4950.14208984375 2396.63671875 4948.91943359375 C 2397.914306640625 4947.69384765625 2399.37353515625 4946.73095703125 2400.973876953125 4946.05615234375 C 2402.63134765625 4945.35498046875 2404.3740234375 4944.994140625 2406.1533203125 4944.984375 L 2406.22802734375 4944.984375 C 2407.98291015625 4944.984375 2409.66650390625 4945.32861328125 2411.231689453125 4946.00732421875 C 2412.771728515625 4946.6748046875 2414.134033203125 4947.634765625 2415.28076171875 4948.86083984375 C 2416.4306640625 4950.08984375 2417.307373046875 4951.5244140625 2417.885986328125 4953.12451171875 C 2418.484130859375 4954.78369140625 2418.733154296875 4956.5478515625 2418.6259765625 4958.36767578125 C 2418.5185546875 4960.1904296875 2418.06005859375 4961.9560546875 2417.263427734375 4963.61669921875 C 2416.495849609375 4965.21875 2415.44580078125 4966.65771484375 2414.142822265625 4967.89404296875 C 2412.844482421875 4969.1240234375 2411.36083984375 4970.0859375 2409.733154296875 4970.7529296875 C 2408.091552734375 4971.42626953125 2406.375244140625 4971.767578125 2404.63232421875 4971.767578125 Z M 2405.52978515625 4964.892578125 C 2405.510009765625 4964.892578125 2405.490478515625 4964.89306640625 2405.470947265625 4964.89453125 C 2405.364013671875 4964.90185546875 2405.26123046875 4964.9296875 2405.1650390625 4964.97802734375 C 2405.067138671875 4965.025390625 2404.9794921875 4965.09423828125 2404.904296875 4965.181640625 C 2404.83154296875 4965.267578125 2404.77685546875 4965.365234375 2404.7421875 4965.47216796875 C 2404.708984375 4965.576171875 2404.69580078125 4965.6845703125 2404.703369140625 4965.7939453125 C 2404.7109375 4965.90380859375 2404.73876953125 4966.00927734375 2404.785888671875 4966.107421875 C 2404.835205078125 4966.2099609375 2404.90234375 4966.2998046875 2404.9853515625 4966.373046875 L 2407.748046875 4968.8310546875 C 2407.832763671875 4968.90625 2407.929443359375 4968.96240234375 2408.034912109375 4968.99853515625 C 2408.11767578125 4969.02685546875 2408.203857421875 4969.041015625 2408.290771484375 4969.041015625 C 2408.30908203125 4969.041015625 2408.327880859375 4969.03955078125 2408.34716796875 4969.0380859375 C 2408.457275390625 4969.03076171875 2408.560546875 4969.00341796875 2408.65625 4968.9560546875 C 2408.75537109375 4968.90673828125 2408.843017578125 4968.837890625 2408.917236328125 4968.75146484375 C 2408.992431640625 4968.662109375 2409.047119140625 4968.56396484375 2409.079345703125 4968.45947265625 C 2409.11279296875 4968.35546875 2409.125732421875 4968.24755859375 2409.117919921875 4968.138671875 C 2409.1103515625 4968.02783203125 2409.082763671875 4967.921875 2409.03564453125 4967.82421875 C 2408.986328125 4967.72119140625 2408.919189453125 4967.6318359375 2408.8359375 4967.55859375 L 2406.071044921875 4965.09912109375 C 2405.984375 4965.0244140625 2405.88818359375 4964.96826171875 2405.785400390625 4964.93310546875 C 2405.704345703125 4964.90625 2405.618408203125 4964.892578125 2405.52978515625 4964.892578125 Z M 2397.8857421875 4960.6513671875 C 2397.84619140625 4960.6513671875 2397.807861328125 4960.65478515625 2397.772216796875 4960.662109375 C 2397.69287109375 4960.677734375 2397.619873046875 4960.70849609375 2397.55517578125 4960.75341796875 C 2397.490478515625 4960.79833984375 2397.4365234375 4960.853515625 2397.395263671875 4960.91650390625 C 2397.353515625 4960.98193359375 2397.32421875 4961.05322265625 2397.30810546875 4961.12890625 C 2397.29150390625 4961.20703125 2397.29052734375 4961.287109375 2397.3056640625 4961.3671875 L 2398.13037109375 4965.70947265625 C 2398.14501953125 4965.7890625 2398.176025390625 4965.8662109375 2398.22021484375 4965.931640625 C 2398.26220703125 4965.99609375 2398.31591796875 4966.05126953125 2398.3798828125 4966.0947265625 C 2398.44140625 4966.1376953125 2398.510986328125 4966.16796875 2398.5869140625 4966.1845703125 C 2398.66552734375 4966.20263671875 2398.746826171875 4966.2021484375 2398.821533203125 4966.18701171875 C 2398.896484375 4966.17333984375 2398.96923828125 4966.14306640625 2399.037353515625 4966.09619140625 C 2399.099853515625 4966.05419921875 2399.153564453125 4965.9990234375 2399.197021484375 4965.9326171875 C 2399.23876953125 4965.87109375 2399.26953125 4965.79833984375 2399.28564453125 4965.7216796875 C 2399.301025390625 4965.642578125 2399.301513671875 4965.56201171875 2399.286865234375 4965.48095703125 L 2398.462158203125 4961.138671875 C 2398.4462890625 4961.05908203125 2398.416015625 4960.98486328125 2398.372314453125 4960.91796875 C 2398.329833984375 4960.85302734375 2398.274658203125 4960.79638671875 2398.212646484375 4960.75439453125 C 2398.1484375 4960.70947265625 2398.078857421875 4960.67919921875 2398.005615234375 4960.66455078125 C 2397.966796875 4960.65576171875 2397.926513671875 4960.6513671875 2397.8857421875 4960.6513671875 Z M 2415.023681640625 4957.8935546875 C 2414.87646484375 4957.8935546875 2414.730712890625 4957.91845703125 2414.590576171875 4957.96826171875 C 2414.41796875 4958.0302734375 2414.2646484375 4958.12255859375 2414.13525390625 4958.24267578125 L 2411.316650390625 4960.82958984375 C 2411.184326171875 4960.9521484375 2411.078369140625 4961.09814453125 2411.002197265625 4961.263671875 C 2410.92919921875 4961.42138671875 2410.8876953125 4961.591796875 2410.878662109375 4961.76904296875 C 2410.86962890625 4961.94482421875 2410.8935546875 4962.1181640625 2410.94970703125 4962.2841796875 C 2411.008056640625 4962.45654296875 2411.0986328125 4962.61328125 2411.21923828125 4962.74951171875 C 2411.33837890625 4962.8857421875 2411.48095703125 4962.994140625 2411.6435546875 4963.07177734375 C 2411.79931640625 4963.146484375 2411.9658203125 4963.18896484375 2412.138916015625 4963.19873046875 C 2412.161376953125 4963.2001953125 2412.18505859375 4963.2001953125 2412.20751953125 4963.2001953125 C 2412.3583984375 4963.2001953125 2412.50537109375 4963.17529296875 2412.644287109375 4963.12646484375 C 2412.81396484375 4963.06689453125 2412.967041015625 4962.974609375 2413.099609375 4962.85205078125 L 2415.9208984375 4960.26513671875 C 2416.05419921875 4960.14306640625 2416.160400390625 4959.9970703125 2416.236572265625 4959.83251953125 C 2416.3095703125 4959.6728515625 2416.35107421875 4959.501953125 2416.360107421875 4959.32568359375 C 2416.369873046875 4959.15283203125 2416.345947265625 4958.97900390625 2416.288818359375 4958.80908203125 C 2416.23095703125 4958.63720703125 2416.140380859375 4958.48046875 2416.019287109375 4958.34375 C 2415.8984375 4958.20703125 2415.755126953125 4958.0986328125 2415.59375 4958.02197265625 C 2415.439453125 4957.9482421875 2415.267578125 4957.90478515625 2415.09716796875 4957.89599609375 C 2415.07275390625 4957.89453125 2415.048095703125 4957.8935546875 2415.023681640625 4957.8935546875 Z M 2407.14697265625 4955.814453125 C 2407.106201171875 4955.814453125 2407.064453125 4955.8173828125 2407.02294921875 4955.8232421875 L 2402.4287109375 4956.48583984375 C 2402.310546875 4956.5029296875 2402.199462890625 4956.54296875 2402.09814453125 4956.6044921875 C 2402 4956.6650390625 2401.915283203125 4956.7431640625 2401.84619140625 4956.83642578125 C 2401.778564453125 4956.92822265625 2401.72900390625 4957.033203125 2401.698974609375 4957.1484375 C 2401.66845703125 4957.26220703125 2401.661376953125 4957.38232421875 2401.677734375 4957.50537109375 C 2401.695068359375 4957.62744140625 2401.734375 4957.74072265625 2401.794921875 4957.84228515625 C 2401.852294921875 4957.94140625 2401.92822265625 4958.0283203125 2402.020751953125 4958.1005859375 C 2402.1123046875 4958.169921875 2402.214599609375 4958.220703125 2402.3251953125 4958.25146484375 C 2402.39794921875 4958.271484375 2402.471923828125 4958.28125 2402.551025390625 4958.28125 C 2402.59228515625 4958.28125 2402.6337890625 4958.2783203125 2402.674560546875 4958.27294921875 L 2407.268798828125 4957.61279296875 C 2407.38916015625 4957.59521484375 2407.5009765625 4957.55517578125 2407.600830078125 4957.494140625 C 2407.701416015625 4957.431640625 2407.7861328125 4957.353515625 2407.852783203125 4957.26220703125 C 2407.9228515625 4957.16796875 2407.97314453125 4957.06298828125 2408.00244140625 4956.9501953125 C 2408.032470703125 4956.833984375 2408.039306640625 4956.7099609375 2408.0224609375 4956.591796875 C 2408.0068359375 4956.47265625 2407.967529296875 4956.35888671875 2407.9052734375 4956.25390625 C 2407.846923828125 4956.15283203125 2407.770263671875 4956.06640625 2407.67822265625 4955.99658203125 C 2407.587646484375 4955.92626953125 2407.482421875 4955.8740234375 2407.373779296875 4955.8447265625 C 2407.29833984375 4955.82470703125 2407.22216796875 4955.814453125 2407.14697265625 4955.814453125 Z M 2404.496337890625 4949.955078125 C 2404.477783203125 4949.955078125 2404.458984375 4949.9560546875 2404.440185546875 4949.95751953125 C 2404.350830078125 4949.966796875 2404.265869140625 4949.9931640625 2404.188232421875 4950.03515625 L 2398.33984375 4953.22412109375 C 2398.260009765625 4953.26708984375 2398.191650390625 4953.32470703125 2398.136474609375 4953.39501953125 C 2398.082275390625 4953.462890625 2398.0419921875 4953.53955078125 2398.016845703125 4953.62353515625 C 2397.992431640625 4953.708984375 2397.9833984375 4953.79833984375 2397.990478515625 4953.8818359375 C 2397.998046875 4953.9697265625 2398.02392578125 4954.05908203125 2398.0654296875 4954.14013671875 C 2398.107177734375 4954.2197265625 2398.16357421875 4954.2890625 2398.232666015625 4954.34716796875 C 2398.298583984375 4954.40185546875 2398.373779296875 4954.443359375 2398.4560546875 4954.4697265625 C 2398.5283203125 4954.4921875 2398.605224609375 4954.5009765625 2398.680908203125 4954.49853515625 L 2398.709228515625 4954.4970703125 C 2398.79833984375 4954.48779296875 2398.882568359375 4954.46142578125 2398.9599609375 4954.41845703125 L 2404.810791015625 4951.23291015625 C 2404.8896484375 4951.18896484375 2404.95849609375 4951.13134765625 2405.015380859375 4951.06201171875 C 2405.069091796875 4950.9921875 2405.10888671875 4950.91455078125 2405.134033203125 4950.8310546875 C 2405.15869140625 4950.748046875 2405.16796875 4950.6611328125 2405.161376953125 4950.57275390625 C 2405.15185546875 4950.47900390625 2405.126220703125 4950.39208984375 2405.085205078125 4950.314453125 C 2405.043701171875 4950.234375 2404.986083984375 4950.16259765625 2404.91796875 4950.107421875 C 2404.851318359375 4950.0517578125 2404.775634765625 4950.0107421875 2404.693603515625 4949.9853515625 C 2404.6279296875 4949.96533203125 2404.561767578125 4949.955078125 2404.496337890625 4949.955078125 Z M 2410.083740234375 4950.2265625 C 2410.068603515625 4950.2265625 2410.05322265625 4950.2275390625 2410.0380859375 4950.228515625 C 2409.951416015625 4950.23583984375 2409.86865234375 4950.2587890625 2409.791748046875 4950.296875 C 2409.7099609375 4950.33837890625 2409.6396484375 4950.39404296875 2409.582275390625 4950.4619140625 C 2409.52490234375 4950.52880859375 2409.4794921875 4950.60986328125 2409.451171875 4950.6962890625 C 2409.424560546875 4950.78173828125 2409.4140625 4950.87109375 2409.421142578125 4950.95458984375 C 2409.42626953125 4951.041015625 2409.4482421875 4951.1259765625 2409.486083984375 4951.20654296875 C 2409.52734375 4951.2900390625 2409.58203125 4951.36181640625 2409.6484375 4951.419921875 L 2412.6640625 4954.09130859375 C 2412.731689453125 4954.15185546875 2412.80908203125 4954.19677734375 2412.893798828125 4954.22509765625 C 2412.976806640625 4954.2509765625 2413.0625 4954.26025390625 2413.14697265625 4954.25634765625 C 2413.2333984375 4954.25 2413.316650390625 4954.2275390625 2413.39404296875 4954.18896484375 C 2413.474365234375 4954.14794921875 2413.544921875 4954.09228515625 2413.603759765625 4954.02392578125 C 2413.663818359375 4953.9541015625 2413.7080078125 4953.875 2413.734619140625 4953.7880859375 C 2413.76171875 4953.70654296875 2413.7724609375 4953.6171875 2413.765869140625 4953.52978515625 C 2413.759521484375 4953.43994140625 2413.7373046875 4953.35498046875 2413.69970703125 4953.27783203125 C 2413.661865234375 4953.1982421875 2413.606201171875 4953.12451171875 2413.538818359375 4953.064453125 L 2410.5205078125 4950.39306640625 C 2410.453857421875 4950.33349609375 2410.374267578125 4950.28759765625 2410.291015625 4950.259765625 C 2410.221435546875 4950.23779296875 2410.15185546875 4950.2265625 2410.083740234375 4950.2265625 Z" stroke="none" fill="#fff"/>
    </g>
  </g>
</svg>
